<svg width="106" height="106" viewBox="0 0 106 106" fill="none" xmlns="http://www.w3.org/2000/svg">
<g clip-path="url(#clip0_14_388)">
<path d="M116.6 -10.6H-10.6V116.6H116.6V-10.6Z" fill="white"/>
<path d="M116.6 -10.6H-10.6V116.6H116.6V-10.6Z" fill="white"/>
<mask id="mask0_14_388" style="mask-type:luminance" maskUnits="userSpaceOnUse" x="21" y="29" width="53" height="54">
<path d="M21.7393 29.5753H73.8074V82.5753H21.7393V29.5753Z" fill="white"/>
</mask>
<g mask="url(#mask0_14_388)">
<mask id="mask1_14_388" style="mask-type:luminance" maskUnits="userSpaceOnUse" x="21" y="29" width="53" height="54">
<path d="M21.9755 78.6755C22.6917 76.4574 23.1435 75.3482 23.6143 74.4551C24.0857 73.5621 24.6449 72.7769 25.2241 71.9033C25.862 70.9514 26.5 70.0584 27.2949 68.9685C28.3352 67.5653 29.5426 66.0931 30.9361 64.1889C32.9384 61.4602 36.1676 56.926 38.0912 54.0602C39.4653 52.0186 40.5255 50.1732 41.4973 48.7306C42.194 47.7097 42.6945 46.9736 43.3227 46.1593C43.951 45.3542 44.5398 44.5496 45.276 43.8625C46.0315 43.1459 46.9245 42.4685 47.8278 41.9389C48.6912 41.4088 49.6139 40.9575 50.5657 40.663C51.5181 40.3584 52.5389 40.2014 53.5398 40.1232C54.551 40.0445 55.5713 39.9954 56.6218 40.2111C57.7996 40.4565 59.1343 41.0556 60.2236 41.6343C61.2445 42.1843 62.1278 42.8223 62.9917 43.5385C63.875 44.2746 64.6894 45.1288 65.4648 46.0019C66.2403 46.8852 67.0255 47.7982 67.6241 48.819C68.2227 49.8496 68.7334 51.0371 69.0375 52.1561C69.3223 53.206 69.4889 54.2663 69.4301 55.3259C69.3611 56.4056 69.1551 57.6426 68.625 58.5648C68.1051 59.4681 67.1528 60.1255 66.3088 60.8028C65.4352 61.4996 64.4639 62.1963 63.4625 62.6773C62.481 63.1487 61.4213 63.4232 60.3611 63.6885C59.2718 63.963 58.1824 64.2083 57.0047 64.2871C55.6797 64.3658 54.0009 64.4246 52.8037 64.0811C51.7829 63.7963 50.9195 63.3547 50.1634 62.6579C49.3 61.863 48.4852 60.5084 48.0532 59.4093C47.6704 58.4278 47.5824 57.4361 47.5431 56.4056C47.494 55.3162 47.5528 54.05 47.8667 53C48.1611 52.0088 48.75 51.1158 49.3097 50.2519C49.8593 49.4079 50.3797 48.7991 51.1843 47.8667C52.4408 46.4144 54.4134 44.4315 56.2685 42.5278C58.4667 40.2801 61.4801 37.3751 63.5412 35.2352C65.1116 33.6061 66.662 31.7413 67.6241 30.8579C68.1051 30.426 68.3796 30.1709 68.7722 29.9649C69.1157 29.788 69.4695 29.6801 69.8324 29.6311C70.1954 29.582 70.5782 29.5917 70.9417 29.6602C71.3046 29.7292 71.6676 29.8565 71.9917 30.0334C72.3055 30.22 72.6102 30.4556 72.8556 30.7301C73.101 31.0051 73.3167 31.3287 73.4639 31.6625C73.6111 31.9963 73.6996 32.3792 73.7389 32.7422C73.7681 33.1056 73.7389 33.4982 73.6505 33.8514C73.562 34.2047 73.4051 34.5676 73.2088 34.8723C73.0222 35.1861 72.7574 35.4806 72.4727 35.7065C72.188 35.9417 71.8542 36.1283 71.5107 36.2561C71.1671 36.3834 70.7843 36.4621 70.4213 36.4718C70.0481 36.4815 69.6658 36.4324 69.312 36.3246C68.9588 36.2264 68.6153 36.0501 68.3111 35.8338C68.0167 35.6278 67.7417 35.3528 67.5259 35.0584C67.3102 34.7542 67.1333 34.4107 67.0255 34.0574C66.9176 33.7139 66.8685 33.3213 66.8685 32.9584C66.8783 32.5949 66.9565 32.2121 67.0746 31.8685C67.2018 31.525 67.3884 31.1815 67.6241 30.8973C67.85 30.6125 68.1343 30.3472 68.4486 30.1509C68.7528 29.9546 69.1157 29.7977 69.4695 29.7093C69.8227 29.6111 70.2056 29.582 70.5782 29.6111C70.9417 29.6408 71.3144 29.7292 71.6579 29.8764C71.9917 30.0139 72.3255 30.2297 72.5903 30.4653C72.8653 30.7107 73.1107 31.0149 73.2973 31.3287C73.4736 31.6528 73.6111 32.0158 73.6796 32.3792C73.7486 32.7324 73.7681 33.125 73.719 33.488C73.6699 33.8514 73.5523 34.2241 73.3954 34.5482C73.238 34.882 73.0028 35.1959 72.7472 35.4612C72.4921 35.7163 72.1093 35.8338 71.8445 36.1088C71.5694 36.4033 71.5694 36.6681 71.1574 37.1885C69.6458 39.0727 61.7746 46.7482 59.3991 49.2607C58.3394 50.3695 57.8486 50.8899 57.1519 51.6945C56.4843 52.4602 55.856 53.1667 55.2768 53.9815C54.6782 54.8158 53.4023 56.082 53.638 56.6509C53.8639 57.2204 55.5713 57.4167 56.5727 57.4361C57.6227 57.4464 58.7908 57.0144 59.8019 56.6612C60.7634 56.3176 62.1963 56.0917 62.5301 55.395C62.8736 54.6783 62.2162 53.2751 61.7648 52.3815C61.3232 51.5084 60.5768 50.8111 59.8801 50.0852C59.1833 49.3389 58.4866 48.5046 57.5736 47.9848C56.5921 47.425 55.2477 46.9445 54.1287 46.9445C53.0685 46.9445 51.9107 47.3759 51.0273 47.8963C50.1834 48.3871 49.5454 49.182 48.9074 49.9181C48.2593 50.6639 47.8278 51.3509 47.1505 52.3324C46.1296 53.8046 44.9616 55.7875 43.4602 57.9468C41.3301 60.9894 37.6398 65.8968 35.4315 68.7922C33.9398 70.7454 32.644 72.2764 31.594 73.6602C30.838 74.6514 30.269 75.3681 29.6898 76.2611C29.1106 77.1639 28.5315 78.175 28.1292 79.0487C27.7954 79.7848 27.6287 80.6681 27.3639 81.1292C27.2167 81.3945 27.0889 81.5315 26.9222 81.6987C26.7551 81.8653 26.5588 82.0125 26.3528 82.1403C26.1468 82.2579 25.9208 82.356 25.6954 82.4348C25.4695 82.5033 25.2241 82.5426 24.9884 82.562C24.7528 82.5723 24.4977 82.5523 24.2722 82.513C24.0366 82.4639 23.8009 82.3954 23.5852 82.2973C23.369 82.1991 23.1533 82.0713 22.9667 81.9241C22.7801 81.7769 22.6037 81.6005 22.4565 81.4139C22.319 81.2176 22.1912 81.0116 22.0931 80.7954C21.9949 80.5797 21.9264 80.3343 21.8773 80.1083C21.838 79.8732 21.8283 79.6278 21.838 79.3825C21.8574 79.1468 21.9755 78.6755 21.9755 78.6755Z" fill="white"/>
</mask>
<g mask="url(#mask1_14_388)">
<mask id="mask2_14_388" style="mask-type:luminance" maskUnits="userSpaceOnUse" x="21" y="29" width="53" height="54">
<path d="M73.8075 29.5753H21.7235V82.5753H73.8075V29.5753Z" fill="white"/>
</mask>
<g mask="url(#mask2_14_388)">
<mask id="mask3_14_388" style="mask-type:luminance" maskUnits="userSpaceOnUse" x="21" y="29" width="53" height="54">
<path d="M21.8282 29.5753H73.7762V82.5753H21.8282V29.5753Z" fill="white"/>
</mask>
<g mask="url(#mask3_14_388)">
<mask id="mask4_14_388" style="mask-type:luminance" maskUnits="userSpaceOnUse" x="21" y="29" width="53" height="54">
<path d="M21.9755 78.6755C22.6917 76.4574 23.1435 75.3482 23.6143 74.4551C24.0857 73.5621 24.6449 72.7769 25.2241 71.9033C25.862 70.9514 26.5 70.0584 27.2949 68.9685C28.3352 67.5653 29.5426 66.0931 30.9361 64.1889C32.9384 61.4602 36.1676 56.926 38.0912 54.0602C39.4653 52.0186 40.5255 50.1732 41.4973 48.7306C42.194 47.7097 42.6945 46.9736 43.3227 46.1593C43.951 45.3542 44.5398 44.5496 45.276 43.8625C46.0315 43.1459 46.9245 42.4685 47.8278 41.9389C48.6912 41.4088 49.6139 40.9575 50.5657 40.663C51.5181 40.3584 52.5389 40.2014 53.5398 40.1232C54.551 40.0445 55.5713 39.9954 56.6218 40.2111C57.7996 40.4565 59.1343 41.0556 60.2236 41.6343C61.2445 42.1843 62.1278 42.8223 62.9917 43.5385C63.875 44.2746 64.6894 45.1288 65.4648 46.0019C66.2403 46.8852 67.0255 47.7982 67.6241 48.819C68.2227 49.8496 68.7334 51.0371 69.0375 52.1561C69.3223 53.206 69.4889 54.2663 69.4301 55.3259C69.3611 56.4056 69.1551 57.6426 68.625 58.5648C68.1051 59.4681 67.1528 60.1255 66.3088 60.8028C65.4352 61.4996 64.4639 62.1963 63.4625 62.6773C62.481 63.1487 61.4213 63.4232 60.3611 63.6885C59.2718 63.963 58.1824 64.2083 57.0047 64.2871C55.6797 64.3658 54.0009 64.4246 52.8037 64.0811C51.7829 63.7963 50.9195 63.3547 50.1634 62.6579C49.3 61.863 48.4852 60.5084 48.0532 59.4093C47.6704 58.4278 47.5824 57.4361 47.5431 56.4056C47.494 55.3162 47.5528 54.05 47.8667 53C48.1611 52.0088 48.75 51.1158 49.3097 50.2519C49.8593 49.4079 50.3797 48.7991 51.1843 47.8667C52.4408 46.4144 54.4134 44.4315 56.2685 42.5278C58.4667 40.2801 61.4801 37.3751 63.5412 35.2352C65.1116 33.6061 66.662 31.7413 67.6241 30.8579C68.1051 30.426 68.3796 30.1709 68.7722 29.9649C69.1157 29.788 69.4695 29.6801 69.8324 29.6311C70.1954 29.582 70.5782 29.5917 70.9417 29.6602C71.3046 29.7292 71.6676 29.8565 71.9917 30.0334C72.3055 30.22 72.6102 30.4556 72.8556 30.7301C73.101 31.0051 73.3167 31.3287 73.4639 31.6625C73.6111 31.9963 73.6996 32.3792 73.7389 32.7422C73.7681 33.1056 73.7389 33.4982 73.6505 33.8514C73.562 34.2047 73.4051 34.5676 73.2088 34.8723C73.0222 35.1861 72.7574 35.4806 72.4727 35.7065C72.188 35.9417 71.8542 36.1283 71.5107 36.2561C71.1671 36.3834 70.7843 36.4621 70.4213 36.4718C70.0481 36.4815 69.6658 36.4324 69.312 36.3246C68.9588 36.2264 68.6153 36.0501 68.3111 35.8338C68.0167 35.6278 67.7417 35.3528 67.5259 35.0584C67.3102 34.7542 67.1333 34.4107 67.0255 34.0574C66.9176 33.7139 66.8685 33.3213 66.8685 32.9584C66.8783 32.5949 66.9565 32.2121 67.0746 31.8685C67.2018 31.525 67.3884 31.1815 67.6241 30.8973C67.85 30.6125 68.1343 30.3472 68.4486 30.1509C68.7528 29.9546 69.1157 29.7977 69.4695 29.7093C69.8227 29.6111 70.2056 29.582 70.5782 29.6111C70.9417 29.6408 71.3144 29.7292 71.6579 29.8764C71.9917 30.0139 72.3255 30.2297 72.5903 30.4653C72.8653 30.7107 73.1107 31.0149 73.2973 31.3287C73.4736 31.6528 73.6111 32.0158 73.6796 32.3792C73.7486 32.7324 73.7681 33.125 73.719 33.488C73.6699 33.8514 73.5523 34.2241 73.3954 34.5482C73.238 34.882 73.0028 35.1959 72.7472 35.4612C72.4921 35.7163 72.1093 35.8338 71.8445 36.1088C71.5694 36.4033 71.5694 36.6681 71.1574 37.1885C69.6458 39.0727 61.7746 46.7482 59.3991 49.2607C58.3394 50.3695 57.8486 50.8899 57.1519 51.6945C56.4843 52.4602 55.856 53.1667 55.2768 53.9815C54.6782 54.8158 53.4023 56.082 53.638 56.6509C53.8639 57.2204 55.5713 57.4167 56.5727 57.4361C57.6227 57.4464 58.7908 57.0144 59.8019 56.6612C60.7634 56.3176 62.1963 56.0917 62.5301 55.395C62.8736 54.6783 62.2162 53.2751 61.7648 52.3815C61.3232 51.5084 60.5768 50.8111 59.8801 50.0852C59.1833 49.3389 58.4866 48.5046 57.5736 47.9848C56.5921 47.425 55.2477 46.9445 54.1287 46.9445C53.0685 46.9445 51.9107 47.3759 51.0273 47.8963C50.1834 48.3871 49.5454 49.182 48.9074 49.9181C48.2593 50.6639 47.8278 51.3509 47.1505 52.3324C46.1296 53.8046 44.9616 55.7875 43.4602 57.9468C41.3301 60.9894 37.6398 65.8968 35.4315 68.7922C33.9398 70.7454 32.644 72.2764 31.594 73.6602C30.838 74.6514 30.269 75.3681 29.6898 76.2611C29.1106 77.1639 28.5315 78.175 28.1292 79.0487C27.7954 79.7848 27.6287 80.6681 27.3639 81.1292C27.2167 81.3945 27.0889 81.5315 26.9222 81.6987C26.7551 81.8653 26.5588 82.0125 26.3528 82.1403C26.1468 82.2579 25.9208 82.356 25.6954 82.4348C25.4695 82.5033 25.2241 82.5426 24.9884 82.562C24.7528 82.5723 24.4977 82.5523 24.2722 82.513C24.0366 82.4639 23.8009 82.3954 23.5852 82.2973C23.369 82.1991 23.1533 82.0713 22.9667 81.9241C22.7801 81.7769 22.6037 81.6005 22.4565 81.4139C22.319 81.2176 22.1912 81.0116 22.0931 80.7954C21.9949 80.5797 21.9264 80.3343 21.8773 80.1083C21.838 79.8732 21.8283 79.6278 21.838 79.3825C21.8574 79.1468 21.9755 78.6755 21.9755 78.6755Z" fill="white"/>
</mask>
<g mask="url(#mask4_14_388)">
<path d="M129.32 -23.3199H-23.3201V129.32H129.32V-23.3199Z" fill="#1E1E1E"/>
</g>
</g>
</g>
</g>
</g>
<mask id="mask5_14_388" style="mask-type:luminance" maskUnits="userSpaceOnUse" x="17" y="75" width="12" height="12">
<path d="M17.568 75.2106H28.8617V86.0958H17.568V75.2106Z" fill="white"/>
</mask>
<g mask="url(#mask5_14_388)">
<mask id="mask6_14_388" style="mask-type:luminance" maskUnits="userSpaceOnUse" x="17" y="75" width="12" height="12">
<path d="M22.3681 75.8879C23.7616 77.0069 24.7237 78.0962 25.538 78.8226C26.3134 79.5194 27.4621 80.2851 27.9426 80.7662C28.1685 81.0018 28.2667 81.149 28.3945 81.3648C28.5218 81.5708 28.6296 81.8064 28.6987 82.0518C28.7769 82.2875 28.8162 82.5425 28.8362 82.7879C28.8459 83.0333 28.8259 83.2981 28.7769 83.5435C28.738 83.7791 28.6593 84.0245 28.5514 84.2504C28.4533 84.4861 28.3158 84.7018 28.1588 84.8981C28.0019 85.0944 27.825 85.2713 27.6287 85.4185C27.4324 85.5754 27.2065 85.7027 26.9811 85.8111C26.7551 85.9092 26.5 85.9874 26.2644 86.0268C26.019 86.0662 25.7542 86.0856 25.5088 86.0662C25.2635 86.0462 25.0084 85.9972 24.7727 85.9287C24.5371 85.8499 24.3014 85.7421 24.0857 85.6148C23.8797 85.487 23.4871 85.1629 23.4968 85.1435C23.5162 85.124 24.8412 85.9287 24.8315 85.9384C24.8218 85.9583 24.1935 85.693 23.9185 85.5064C23.6537 85.3101 23.3987 85.0647 23.2024 84.7902C23.0061 84.5249 22.8491 84.2111 22.751 83.8972C22.6426 83.5731 22.5935 83.2296 22.6038 82.8958C22.6135 82.562 22.6723 82.2185 22.7801 81.9046C22.8982 81.5907 23.0648 81.286 23.2709 81.0212C23.4769 80.7662 23.7422 80.5208 24.0167 80.3439C24.3014 80.1573 24.6255 80.0203 24.9394 79.9416C25.2635 79.8532 25.6167 79.824 25.9505 79.8435C26.2741 79.8731 26.6278 79.9513 26.932 80.0791C27.2361 80.2166 27.5306 80.4027 27.7857 80.6189C28.031 80.8347 28.257 81.1097 28.4236 81.4041C28.5908 81.6889 28.7084 82.0222 28.7769 82.3462C28.8459 82.6703 28.8556 83.0236 28.8065 83.3574C28.7672 83.681 28.669 84.0245 28.5218 84.3189C28.3746 84.6134 28.1685 84.9078 27.9426 85.1435C27.7075 85.3791 27.4227 85.5851 27.1283 85.7421C26.8338 85.8893 26.4903 85.9972 26.1662 86.0365C25.8324 86.0856 25.4792 86.0856 25.1556 86.0171C24.8315 85.9583 24.4977 85.8402 24.2033 85.6833C23.9185 85.5166 23.6343 85.3004 23.4181 85.055C23.1926 84.8097 22.9963 84.5152 22.8685 84.2111C22.731 83.9069 22.6426 83.5634 22.6135 83.2296C22.5838 82.9055 22.6135 82.5523 22.6917 82.2287C22.7704 81.9046 22.9079 81.5805 23.0843 81.2963C23.2611 81.0115 23.4871 80.7462 23.7519 80.5402C24.007 80.3342 24.3111 80.1573 24.6255 80.0398C24.9297 79.9222 25.2144 79.8041 25.607 79.8435C26.2352 79.8925 27.4815 80.4226 27.9426 80.7662C28.188 80.9527 28.2667 81.149 28.3945 81.3648C28.5218 81.5708 28.6296 81.8064 28.6987 82.0518C28.7769 82.2875 28.8162 82.5425 28.8362 82.7879C28.8459 83.0333 28.8259 83.2981 28.7769 83.5337C28.738 83.7791 28.6593 84.0245 28.5514 84.2504C28.4533 84.4759 28.3158 84.7018 28.1588 84.8981C28.0019 85.0944 27.825 85.2713 27.6287 85.4185C27.4324 85.5754 27.2065 85.7027 26.9811 85.8111C26.7551 85.9092 26.5 85.9874 26.2644 86.0268C26.019 86.0662 25.7542 86.0856 25.5088 86.0662C25.2635 86.0462 25.0084 85.9972 24.7727 85.9287C24.5371 85.8499 24.3014 85.7421 24.0857 85.6148C23.8797 85.487 23.7325 85.3694 23.4968 85.1435C23.0648 84.7212 22.476 83.8282 21.7889 83.1411C20.9449 82.2875 19.2861 81.0212 18.6973 80.4717C18.4519 80.2458 18.344 80.1573 18.2065 79.9713C18.0593 79.7847 17.9315 79.5787 17.8436 79.3624C17.7454 79.1467 17.6764 78.9111 17.637 78.6851C17.5982 78.45 17.588 78.2046 17.5982 77.9689C17.6176 77.743 17.6667 77.4976 17.7352 77.2819C17.8042 77.056 17.9121 76.8305 18.0296 76.6342C18.1574 76.4379 18.3047 76.2416 18.4815 76.0842C18.6482 75.9175 18.8348 75.7703 19.0408 75.6527C19.2371 75.5347 19.463 75.4365 19.6884 75.368C19.9144 75.299 20.15 75.2602 20.3852 75.2402C20.6209 75.2305 20.8662 75.2499 21.0922 75.299C21.3278 75.3384 21.5533 75.4171 21.7695 75.5152C21.9852 75.6134 22.3681 75.8879 22.3681 75.8879Z" fill="white"/>
</mask>
<g mask="url(#mask6_14_388)">
<mask id="mask7_14_388" style="mask-type:luminance" maskUnits="userSpaceOnUse" x="17" y="75" width="12" height="12">
<path d="M28.9211 75.116H17.5359V86.1086H28.9211V75.116Z" fill="white"/>
</mask>
<g mask="url(#mask7_14_388)">
<mask id="mask8_14_388" style="mask-type:luminance" maskUnits="userSpaceOnUse" x="17" y="75" width="12" height="12">
<path d="M17.588 75.2207H28.8618V86.0875H17.588V75.2207Z" fill="white"/>
</mask>
<g mask="url(#mask8_14_388)">
<mask id="mask9_14_388" style="mask-type:luminance" maskUnits="userSpaceOnUse" x="17" y="75" width="12" height="12">
<path d="M22.3681 75.8878C23.7616 77.0068 24.7237 78.0961 25.538 78.8225C26.3134 79.5193 27.4621 80.285 27.9426 80.766C28.1685 81.0017 28.2667 81.1489 28.3945 81.3646C28.5218 81.5707 28.6296 81.8063 28.6987 82.0517C28.7769 82.2873 28.8162 82.5424 28.8362 82.7878C28.8459 83.0332 28.8259 83.298 28.7769 83.5433C28.738 83.779 28.6593 84.0244 28.5514 84.2503C28.4533 84.486 28.3158 84.7017 28.1588 84.898C28.0019 85.0943 27.825 85.2711 27.6287 85.4184C27.4324 85.5753 27.2065 85.7026 26.9811 85.811C26.7551 85.9091 26.5 85.9873 26.2644 86.0267C26.019 86.066 25.7542 86.0855 25.5088 86.066C25.2635 86.0461 25.0084 85.997 24.7727 85.9285C24.5371 85.8498 24.3014 85.7419 24.0857 85.6147C23.8797 85.4869 23.4871 85.1628 23.4968 85.1433C23.5162 85.1239 24.8412 85.9285 24.8315 85.9382C24.8218 85.9582 24.1935 85.6929 23.9185 85.5063C23.6537 85.31 23.3987 85.0646 23.2024 84.7901C23.0061 84.5248 22.8491 84.2109 22.751 83.8971C22.6426 83.573 22.5935 83.2295 22.6038 82.8957C22.6135 82.5618 22.6723 82.2183 22.7801 81.9045C22.8982 81.5906 23.0648 81.2859 23.2709 81.0211C23.4769 80.766 23.7422 80.5207 24.0167 80.3438C24.3014 80.1572 24.6255 80.0202 24.9394 79.9415C25.2635 79.8531 25.6167 79.8239 25.9505 79.8433C26.2741 79.873 26.6278 79.9512 26.932 80.079C27.2361 80.2165 27.5306 80.4026 27.7857 80.6188C28.031 80.8345 28.257 81.1096 28.4236 81.404C28.5908 81.6887 28.7084 82.022 28.7769 82.3461C28.8459 82.6702 28.8556 83.0234 28.8065 83.3573C28.7672 83.6808 28.669 84.0244 28.5218 84.3188C28.3746 84.6132 28.1685 84.9077 27.9426 85.1433C27.7075 85.379 27.4227 85.585 27.1283 85.7419C26.8338 85.8892 26.4903 85.997 26.1662 86.0364C25.8324 86.0855 25.4792 86.0855 25.1556 86.017C24.8315 85.9582 24.4977 85.8401 24.2033 85.6832C23.9185 85.5165 23.6343 85.3003 23.4181 85.0549C23.1926 84.8095 22.9963 84.5151 22.8685 84.2109C22.731 83.9068 22.6426 83.5633 22.6135 83.2295C22.5838 82.9054 22.6135 82.5521 22.6917 82.2286C22.7704 81.9045 22.9079 81.5804 23.0843 81.2961C23.2611 81.0114 23.4871 80.7461 23.7519 80.5401C24.007 80.3341 24.3111 80.1572 24.6255 80.0396C24.9297 79.9221 25.2144 79.804 25.607 79.8433C26.2352 79.8924 27.4815 80.4225 27.9426 80.766C28.188 80.9526 28.2667 81.1489 28.3945 81.3646C28.5218 81.5707 28.6296 81.8063 28.6987 82.0517C28.7769 82.2873 28.8162 82.5424 28.8362 82.7878C28.8459 83.0332 28.8259 83.298 28.7769 83.5336C28.738 83.779 28.6593 84.0244 28.5514 84.2503C28.4533 84.4757 28.3158 84.7017 28.1588 84.898C28.0019 85.0943 27.825 85.2711 27.6287 85.4184C27.4324 85.5753 27.2065 85.7026 26.9811 85.811C26.7551 85.9091 26.5 85.9873 26.2644 86.0267C26.019 86.066 25.7542 86.0855 25.5088 86.066C25.2635 86.0461 25.0084 85.997 24.7727 85.9285C24.5371 85.8498 24.3014 85.7419 24.0857 85.6147C23.8797 85.4869 23.7325 85.3693 23.4968 85.1433C23.0648 84.7211 22.476 83.8281 21.7889 83.141C20.9449 82.2873 19.2861 81.0211 18.6973 80.4716C18.4519 80.2457 18.344 80.1572 18.2065 79.9711C18.0593 79.7846 17.9315 79.5786 17.8436 79.3623C17.7454 79.1466 17.6764 78.9109 17.637 78.685C17.5982 78.4498 17.588 78.2045 17.5982 77.9688C17.6176 77.7429 17.6667 77.4975 17.7352 77.2818C17.8042 77.0558 17.9121 76.8304 18.0296 76.6341C18.1574 76.4378 18.3047 76.2415 18.4815 76.0841C18.6482 75.9174 18.8348 75.7702 19.0408 75.6526C19.2371 75.5345 19.463 75.4364 19.6884 75.3679C19.9144 75.2989 20.15 75.26 20.3852 75.2401C20.6209 75.2304 20.8662 75.2498 21.0922 75.2989C21.3278 75.3382 21.5533 75.417 21.7695 75.5151C21.9852 75.6133 22.3681 75.8878 22.3681 75.8878Z" fill="white"/>
</mask>
<g mask="url(#mask9_14_388)">
<path d="M129.32 -23.3202H-23.3199V129.32H129.32V-23.3202Z" fill="#1E1E1E"/>
</g>
</g>
</g>
</g>
</g>
<mask id="mask10_14_388" style="mask-type:luminance" maskUnits="userSpaceOnUse" x="21" y="75" width="6" height="7">
<path d="M21.2291 75.6405H26.9146V81.4532H21.2291V75.6405Z" fill="white"/>
</mask>
<g mask="url(#mask10_14_388)">
<mask id="mask11_14_388" style="mask-type:luminance" maskUnits="userSpaceOnUse" x="21" y="75" width="6" height="7">
<path d="M26.8926 77.6843C26.9023 79.5097 26.6866 79.981 26.4115 80.3343C26.137 80.6875 25.7342 81.0019 25.3222 81.1879C24.9102 81.3745 24.4092 81.463 23.9578 81.4333C23.5065 81.4139 23.0157 81.257 22.6328 81.0213C22.25 80.7954 21.887 80.4324 21.6513 80.0398C21.4259 79.6569 21.2685 79.1662 21.2393 78.7245C21.2194 78.2732 21.3078 77.763 21.4944 77.3602C21.681 76.9482 21.9949 76.5458 22.3481 76.2708C22.7018 75.9861 23.1726 75.7801 23.6143 75.7019C24.056 75.6134 24.5667 75.6528 24.9981 75.7801C25.4203 75.9176 26.1759 76.4968 26.1759 76.4968" fill="white"/>
</mask>
<g mask="url(#mask11_14_388)">
<mask id="mask12_14_388" style="mask-type:luminance" maskUnits="userSpaceOnUse" x="21" y="75" width="6" height="7">
<path d="M26.958 75.6395H21.2V81.5284H26.958V75.6395Z" fill="white"/>
</mask>
<g mask="url(#mask12_14_388)">
<mask id="mask13_14_388" style="mask-type:luminance" maskUnits="userSpaceOnUse" x="21" y="75" width="6" height="7">
<path d="M21.2291 75.6405H26.9146V81.4532H21.2291V75.6405Z" fill="white"/>
</mask>
<g mask="url(#mask13_14_388)">
<mask id="mask14_14_388" style="mask-type:luminance" maskUnits="userSpaceOnUse" x="21" y="75" width="6" height="7">
<path d="M26.8926 77.6843C26.9023 79.5097 26.6866 79.981 26.4115 80.3343C26.137 80.6875 25.7342 81.0019 25.3222 81.1879C24.9102 81.3745 24.4092 81.463 23.9578 81.4333C23.5065 81.4139 23.0157 81.257 22.6328 81.0213C22.25 80.7954 21.887 80.4324 21.6513 80.0398C21.4259 79.6569 21.2685 79.1662 21.2393 78.7245C21.2194 78.2732 21.3078 77.763 21.4944 77.3602C21.681 76.9482 21.9949 76.5458 22.3481 76.2708C22.7018 75.9861 23.1726 75.7801 23.6143 75.7019C24.056 75.6134 24.5667 75.6528 24.9981 75.7801C25.4203 75.9176 26.1759 76.4968 26.1759 76.4968" fill="white"/>
</mask>
<g mask="url(#mask14_14_388)">
<path d="M129.32 -23.3201H-23.3201V129.32H129.32V-23.3201Z" fill="#1E1E1E"/>
</g>
</g>
</g>
</g>
</g>
<mask id="mask15_14_388" style="mask-type:luminance" maskUnits="userSpaceOnUse" x="20" y="68" width="13" height="15">
<path d="M20.5457 68.2855H32.8469V82.3698H20.5457V68.2855Z" fill="white"/>
</mask>
<g mask="url(#mask15_14_388)">
<mask id="mask16_14_388" style="mask-type:luminance" maskUnits="userSpaceOnUse" x="20" y="68" width="13" height="15">
<path d="M32.1532 73.101C26.274 80.1968 24.6648 82.0222 23.7421 82.2972C23.3398 82.4148 23.0551 82.2384 22.731 82.1306C22.4074 82.0324 22.093 81.8653 21.8185 81.6593C21.5435 81.4533 21.2981 81.1982 21.1018 80.9134C20.9153 80.6384 20.7583 80.3046 20.6699 79.981C20.5717 79.6569 20.5324 79.3037 20.5523 78.9602C20.5717 78.6264 20.6408 78.2732 20.768 77.9593C20.8861 77.6449 21.0722 77.331 21.2884 77.076C21.5139 76.8106 21.7792 76.575 22.0736 76.3986C22.3583 76.2218 22.6916 76.0945 23.0254 76.0157C23.3593 75.937 23.7125 75.9176 24.056 75.957C24.3898 75.9861 24.7333 76.0842 25.0472 76.2218C25.3519 76.3593 25.656 76.5653 25.9014 76.7912C26.1468 77.0269 26.3625 77.3111 26.5296 77.6055C26.6866 77.9102 26.8042 78.2537 26.8629 78.587C26.9222 78.9208 26.9222 79.2741 26.8629 79.6079C26.8139 79.9417 26.6963 80.2852 26.5394 80.5893C26.3824 80.8838 26.1662 81.1782 25.9305 81.4139C25.6852 81.6496 25.381 81.8458 25.0768 81.9931C24.7727 82.1403 24.4292 82.2384 24.0857 82.2778C23.7518 82.3167 23.3889 82.2972 23.0648 82.2287C22.731 82.15 22.3972 82.0222 22.1028 81.8458C21.8083 81.6787 21.5338 81.4435 21.3176 81.188C21.0921 80.9329 20.9055 80.619 20.7778 80.3046C20.6505 79.9907 20.5717 79.6472 20.5523 79.3037C20.5324 78.9699 20.5717 78.607 20.6602 78.2829C20.7486 77.9593 20.8958 77.6255 21.0824 77.3505C21.2787 77.0657 21.5241 76.8009 21.7889 76.5949C22.0537 76.3889 22.3778 76.2218 22.6916 76.1139C23.0157 75.9963 23.6731 75.8588 23.7125 75.937C23.7518 76.0551 21.8967 77.3505 21.7792 77.2232C21.5338 76.9676 26.068 71.2259 27.1773 69.9111C27.619 69.3907 27.8644 69.1157 28.1782 68.8806C28.3945 68.7134 28.5708 68.6153 28.7871 68.5268C29.0028 68.4389 29.2384 68.3796 29.4639 68.3408C29.6995 68.3014 29.9352 68.3014 30.1708 68.3208C30.4065 68.3408 30.6416 68.3898 30.8579 68.4681C31.0833 68.5468 31.2995 68.6449 31.4958 68.7722C31.6921 68.9 31.8685 69.0569 32.0357 69.2241C32.1926 69.4005 32.3398 69.587 32.4477 69.7931C32.5658 69.9991 32.6537 70.2153 32.7227 70.4407C32.7815 70.6667 32.8208 70.912 32.8306 71.138C32.8306 71.3731 32.8111 71.6185 32.7621 71.8444C32.713 72.0704 32.6343 72.2958 32.5361 72.5121C32.4282 72.7181 32.1532 73.101 32.1532 73.101Z" fill="white"/>
</mask>
<g mask="url(#mask16_14_388)">
<mask id="mask17_14_388" style="mask-type:luminance" maskUnits="userSpaceOnUse" x="20" y="68" width="13" height="15">
<path d="M32.8469 68.1802H20.5457V82.4444H32.8469V68.1802Z" fill="white"/>
</mask>
<g mask="url(#mask17_14_388)">
<mask id="mask18_14_388" style="mask-type:luminance" maskUnits="userSpaceOnUse" x="20" y="68" width="13" height="15">
<path d="M20.5457 68.2855H32.8469V82.3698H20.5457V68.2855Z" fill="white"/>
</mask>
<g mask="url(#mask18_14_388)">
<mask id="mask19_14_388" style="mask-type:luminance" maskUnits="userSpaceOnUse" x="20" y="68" width="13" height="15">
<path d="M32.1532 73.101C26.274 80.1968 24.6648 82.0222 23.7421 82.2972C23.3398 82.4148 23.0551 82.2384 22.731 82.1306C22.4074 82.0324 22.093 81.8653 21.8185 81.6593C21.5435 81.4533 21.2981 81.1982 21.1018 80.9134C20.9153 80.6384 20.7583 80.3046 20.6699 79.981C20.5717 79.6569 20.5324 79.3037 20.5523 78.9602C20.5717 78.6264 20.6408 78.2732 20.768 77.9593C20.8861 77.6449 21.0722 77.331 21.2884 77.076C21.5139 76.8106 21.7792 76.575 22.0736 76.3986C22.3583 76.2218 22.6916 76.0945 23.0254 76.0157C23.3593 75.937 23.7125 75.9176 24.056 75.957C24.3898 75.9861 24.7333 76.0842 25.0472 76.2218C25.3519 76.3593 25.656 76.5653 25.9014 76.7912C26.1468 77.0269 26.3625 77.3111 26.5296 77.6055C26.6866 77.9102 26.8042 78.2537 26.8629 78.587C26.9222 78.9208 26.9222 79.2741 26.8629 79.6079C26.8139 79.9417 26.6963 80.2852 26.5394 80.5893C26.3824 80.8838 26.1662 81.1782 25.9305 81.4139C25.6852 81.6496 25.381 81.8458 25.0768 81.9931C24.7727 82.1403 24.4292 82.2384 24.0857 82.2778C23.7518 82.3167 23.3889 82.2972 23.0648 82.2287C22.731 82.15 22.3972 82.0222 22.1028 81.8458C21.8083 81.6787 21.5338 81.4435 21.3176 81.188C21.0921 80.9329 20.9055 80.619 20.7778 80.3046C20.6505 79.9907 20.5717 79.6472 20.5523 79.3037C20.5324 78.9699 20.5717 78.607 20.6602 78.2829C20.7486 77.9593 20.8958 77.6255 21.0824 77.3505C21.2787 77.0657 21.5241 76.8009 21.7889 76.5949C22.0537 76.3889 22.3778 76.2218 22.6916 76.1139C23.0157 75.9963 23.6731 75.8588 23.7125 75.937C23.7518 76.0551 21.8967 77.3505 21.7792 77.2232C21.5338 76.9676 26.068 71.2259 27.1773 69.9111C27.619 69.3907 27.8644 69.1157 28.1782 68.8806C28.3945 68.7134 28.5708 68.6153 28.7871 68.5268C29.0028 68.4389 29.2384 68.3796 29.4639 68.3408C29.6995 68.3014 29.9352 68.3014 30.1708 68.3208C30.4065 68.3408 30.6416 68.3898 30.8579 68.4681C31.0833 68.5468 31.2995 68.6449 31.4958 68.7722C31.6921 68.9 31.8685 69.0569 32.0357 69.2241C32.1926 69.4005 32.3398 69.587 32.4477 69.7931C32.5658 69.9991 32.6537 70.2153 32.7227 70.4407C32.7815 70.6667 32.8208 70.912 32.8306 71.138C32.8306 71.3731 32.8111 71.6185 32.7621 71.8444C32.713 72.0704 32.6343 72.2958 32.5361 72.5121C32.4282 72.7181 32.1532 73.101 32.1532 73.101Z" fill="white"/>
</mask>
<g mask="url(#mask19_14_388)">
<path d="M129.32 -23.3201H-23.3201V129.32H129.32V-23.3201Z" fill="#1E1E1E"/>
</g>
</g>
</g>
</g>
</g>
<mask id="mask20_14_388" style="mask-type:luminance" maskUnits="userSpaceOnUse" x="20" y="71" width="11" height="11">
<path d="M20.8074 71.62H30.179V81.6306H20.8074V71.62Z" fill="white"/>
</mask>
<g mask="url(#mask20_14_388)">
<mask id="mask21_14_388" style="mask-type:luminance" maskUnits="userSpaceOnUse" x="20" y="71" width="11" height="11">
<path d="M29.3954 76.5162C26.3528 79.8532 26.3431 80.3639 26.068 80.6972C25.8426 80.9722 25.5579 81.1291 25.2634 81.2763C24.969 81.4236 24.6449 81.5314 24.3213 81.5708C23.9972 81.6199 23.6537 81.6102 23.3296 81.5514C23.006 81.4926 22.6819 81.3745 22.3972 81.2176C22.113 81.0606 21.838 80.8444 21.6222 80.599C21.406 80.3639 21.2194 80.0694 21.0824 79.775C20.9546 79.4703 20.8662 79.137 20.837 78.8129C20.8171 78.4888 20.837 78.1453 20.9153 77.8217C20.994 77.5074 21.1315 77.1935 21.2981 76.9088C21.475 76.6342 21.7102 76.3786 21.9555 76.1726C22.2111 75.9666 22.5153 75.7898 22.8194 75.6819C23.1236 75.5643 23.4671 75.4953 23.7912 75.4856C24.1148 75.4759 24.4583 75.525 24.7727 75.6134C25.0866 75.7115 25.3907 75.8588 25.656 76.0551C25.9208 76.2417 26.1759 76.487 26.3625 76.7518C26.5588 77.0069 26.7157 77.3213 26.8041 77.6351C26.9023 77.9393 26.9514 78.2828 26.9514 78.6166C26.9417 78.9407 26.8732 79.274 26.7648 79.5884C26.6569 79.8926 26.4903 80.1967 26.2843 80.4518C26.0777 80.7074 25.8227 80.9425 25.5482 81.1194C25.2828 81.2963 24.9593 81.4333 24.6449 81.512C24.331 81.5907 23.9875 81.6199 23.6537 81.6004C23.3296 81.5708 22.9963 81.4926 22.6916 81.3648C22.3972 81.237 22.1027 81.0509 21.8574 80.8347C21.612 80.619 21.3963 80.3537 21.2296 80.0694C21.0722 79.7847 20.9546 79.4606 20.8861 79.137C20.8268 78.8226 20.8171 78.4694 20.8565 78.1453C20.8958 77.8314 20.994 77.4976 21.1412 77.2032C21.2884 76.9088 21.475 76.6537 21.7102 76.3986C21.9755 76.1139 22.319 75.9666 22.6722 75.6037C23.2315 75.0148 24.0657 73.6898 24.6157 73.0713C24.9787 72.669 25.2828 72.3648 25.587 72.1486C25.8032 71.9916 25.9898 71.9032 26.2055 71.825C26.4315 71.7463 26.6666 71.6875 26.8926 71.6578C27.1282 71.6384 27.3639 71.6384 27.599 71.6675C27.825 71.6972 28.0606 71.756 28.2764 71.8444C28.4926 71.9231 28.7083 72.0407 28.9046 72.1685C29.0912 72.3055 29.2676 72.4727 29.425 72.6393C29.5722 72.8162 29.7092 73.0222 29.8176 73.2282C29.9255 73.4342 30.0139 73.6602 30.063 73.8861C30.1218 74.1115 30.1412 74.3569 30.1412 74.5828C30.1412 74.8185 30.112 75.0536 30.0527 75.2796C29.994 75.5055 29.9055 75.731 29.7977 75.937C29.6898 76.1435 29.3954 76.5162 29.3954 76.5162Z" fill="white"/>
</mask>
<g mask="url(#mask21_14_388)">
<mask id="mask22_14_388" style="mask-type:luminance" maskUnits="userSpaceOnUse" x="20" y="71" width="11" height="11">
<path d="M30.2296 71.5826H20.8074V81.6592H30.2296V71.5826Z" fill="white"/>
</mask>
<g mask="url(#mask22_14_388)">
<mask id="mask23_14_388" style="mask-type:luminance" maskUnits="userSpaceOnUse" x="20" y="71" width="11" height="11">
<path d="M20.8074 71.62H30.1509V81.628H20.8074V71.62Z" fill="white"/>
</mask>
<g mask="url(#mask23_14_388)">
<mask id="mask24_14_388" style="mask-type:luminance" maskUnits="userSpaceOnUse" x="20" y="71" width="11" height="11">
<path d="M29.3954 76.5162C26.3528 79.8532 26.3431 80.3639 26.068 80.6972C25.8426 80.9722 25.5579 81.1291 25.2634 81.2763C24.969 81.4236 24.6449 81.5314 24.3213 81.5708C23.9972 81.6199 23.6537 81.6102 23.3296 81.5514C23.006 81.4926 22.6819 81.3745 22.3972 81.2176C22.113 81.0606 21.838 80.8444 21.6222 80.599C21.406 80.3639 21.2194 80.0694 21.0824 79.775C20.9546 79.4703 20.8662 79.137 20.837 78.8129C20.8171 78.4888 20.837 78.1453 20.9153 77.8217C20.994 77.5074 21.1315 77.1935 21.2981 76.9088C21.475 76.6342 21.7102 76.3786 21.9555 76.1726C22.2111 75.9666 22.5153 75.7898 22.8194 75.6819C23.1236 75.5643 23.4671 75.4953 23.7912 75.4856C24.1148 75.4759 24.4583 75.525 24.7727 75.6134C25.0866 75.7115 25.3907 75.8588 25.656 76.0551C25.9208 76.2417 26.1759 76.487 26.3625 76.7518C26.5588 77.0069 26.7157 77.3213 26.8041 77.6351C26.9023 77.9393 26.9514 78.2828 26.9514 78.6166C26.9417 78.9407 26.8732 79.274 26.7648 79.5884C26.6569 79.8926 26.4903 80.1967 26.2843 80.4518C26.0777 80.7074 25.8227 80.9425 25.5482 81.1194C25.2828 81.2963 24.9593 81.4333 24.6449 81.512C24.331 81.5907 23.9875 81.6199 23.6537 81.6004C23.3296 81.5708 22.9963 81.4926 22.6916 81.3648C22.3972 81.237 22.1027 81.0509 21.8574 80.8347C21.612 80.619 21.3963 80.3537 21.2296 80.0694C21.0722 79.7847 20.9546 79.4606 20.8861 79.137C20.8268 78.8226 20.8171 78.4694 20.8565 78.1453C20.8958 77.8314 20.994 77.4976 21.1412 77.2032C21.2884 76.9088 21.475 76.6537 21.7102 76.3986C21.9755 76.1139 22.319 75.9666 22.6722 75.6037C23.2315 75.0148 24.0657 73.6898 24.6157 73.0713C24.9787 72.669 25.2828 72.3648 25.587 72.1486C25.8032 71.9916 25.9898 71.9032 26.2055 71.825C26.4315 71.7463 26.6666 71.6875 26.8926 71.6578C27.1282 71.6384 27.3639 71.6384 27.599 71.6675C27.825 71.6972 28.0606 71.756 28.2764 71.8444C28.4926 71.9231 28.7083 72.0407 28.9046 72.1685C29.0912 72.3055 29.2676 72.4727 29.425 72.6393C29.5722 72.8162 29.7092 73.0222 29.8176 73.2282C29.9255 73.4342 30.0139 73.6602 30.063 73.8861C30.1218 74.1115 30.1412 74.3569 30.1412 74.5828C30.1412 74.8185 30.112 75.0536 30.0527 75.2796C29.994 75.5055 29.9055 75.731 29.7977 75.937C29.6898 76.1435 29.3954 76.5162 29.3954 76.5162Z" fill="white"/>
</mask>
<g mask="url(#mask24_14_388)">
<path d="M129.32 -23.3201H-23.3201V129.32H129.32V-23.3201Z" fill="#1E1E1E"/>
</g>
</g>
</g>
</g>
</g>
<mask id="mask25_14_388" style="mask-type:luminance" maskUnits="userSpaceOnUse" x="57" y="16" width="30" height="29">
<path d="M57.8419 16.3702H86.7046V44.8746H57.8419V16.3702Z" fill="white"/>
</mask>
<g mask="url(#mask25_14_388)">
<mask id="mask26_14_388" style="mask-type:luminance" maskUnits="userSpaceOnUse" x="57" y="16" width="30" height="29">
<path d="M62.913 17.2837C68.4093 22.5934 72.9829 27.4717 75.7019 30.0138C77.5861 31.7703 79.0681 32.8601 80.6384 34.3027C82.1403 35.6671 85.0157 38.2189 84.9278 38.4347C84.9079 38.474 84.6824 38.3953 84.6722 38.4249C84.6528 38.474 85.3204 38.7587 85.5755 38.9944C85.8403 39.2295 86.0856 39.524 86.2528 39.8384C86.4292 40.1425 86.5667 40.4958 86.6352 40.8393C86.7042 41.1925 86.7139 41.5657 86.6648 41.9189C86.6157 42.2721 86.5079 42.6259 86.351 42.9495C86.1935 43.2638 85.9778 43.568 85.7324 43.8231C85.4773 44.0782 85.1732 44.2944 84.8588 44.4513C84.5352 44.6083 84.1815 44.7258 83.8282 44.7749C83.475 44.824 83.1018 44.8143 82.7486 44.7458C82.4051 44.687 82.0519 44.5495 81.738 44.3823C81.4333 44.206 81.1389 43.9703 80.9037 43.7055C80.6681 43.4499 80.4621 43.1263 80.3148 42.8022C80.1773 42.4787 80.0889 42.1152 80.0592 41.762C80.0301 41.4087 80.0592 41.0356 80.138 40.6921C80.2264 40.3485 80.3736 39.9953 80.5602 39.7009C80.7463 39.3967 81.0019 39.1217 81.2764 38.8963C81.5514 38.6703 81.875 38.4837 82.2088 38.3662C82.5426 38.2384 82.9158 38.1699 83.269 38.1601C83.6222 38.1499 83.9954 38.199 84.3287 38.2971C84.6722 38.4055 85.006 38.5722 85.3005 38.7782C85.5852 38.9745 85.85 39.2495 86.0662 39.5342C86.2722 39.8184 86.4389 40.1522 86.5472 40.4958C86.6454 40.8296 86.7042 41.2027 86.6945 41.556C86.6842 41.9092 86.6157 42.2824 86.488 42.6157C86.3704 42.9495 86.1838 43.2833 85.9681 43.5583C85.7421 43.8328 85.4676 44.0879 85.1732 44.2745C84.8685 44.4708 84.525 44.618 84.1815 44.7064C83.8379 44.7949 83.4653 44.824 83.1121 44.7949C82.7583 44.7652 82.425 44.7064 82.0616 44.5398C81.6102 44.3235 81.237 43.9606 80.6681 43.4601C79.5982 42.5277 77.8611 40.6236 76.3296 39.1805C74.7005 37.6495 73.2088 36.5407 71.1574 34.5578C67.8792 31.368 60.1454 23.0944 58.8204 21.6022C58.5551 21.3078 58.4963 21.249 58.3685 21.0527C58.2412 20.8564 58.1334 20.6305 58.0546 20.405C57.9759 20.1791 57.9268 19.9434 57.9074 19.7083C57.888 19.4629 57.888 19.2175 57.9268 18.9916C57.9662 18.7559 58.0352 18.5106 58.1231 18.2949C58.2116 18.0786 58.3394 17.8629 58.4769 17.6763C58.6241 17.48 58.7907 17.3037 58.9676 17.1564C59.1537 16.999 59.3602 16.8717 59.5759 16.7638C59.7917 16.6657 60.0176 16.5773 60.2533 16.5282C60.4889 16.4791 60.7343 16.4592 60.9694 16.4694C61.2051 16.4791 61.4505 16.5185 61.6764 16.5773C61.9018 16.6458 62.1375 16.7439 62.3435 16.862C62.55 16.9699 62.913 17.2837 62.913 17.2837Z" fill="white"/>
</mask>
<g mask="url(#mask26_14_388)">
<mask id="mask27_14_388" style="mask-type:luminance" maskUnits="userSpaceOnUse" x="57" y="16" width="30" height="29">
<path d="M86.7629 16.3579H57.8419V44.8863H86.7629V16.3579Z" fill="white"/>
</mask>
<g mask="url(#mask27_14_388)">
<mask id="mask28_14_388" style="mask-type:luminance" maskUnits="userSpaceOnUse" x="57" y="16" width="30" height="29">
<path d="M57.8838 16.4576H86.7046V44.8496H57.8838V16.4576Z" fill="white"/>
</mask>
<g mask="url(#mask28_14_388)">
<mask id="mask29_14_388" style="mask-type:luminance" maskUnits="userSpaceOnUse" x="57" y="16" width="30" height="29">
<path d="M62.9131 17.284C68.4094 22.5937 72.983 27.472 75.702 30.0141C77.5862 31.7705 79.0682 32.8604 80.6385 34.303C82.1404 35.6673 85.0159 38.2192 84.9279 38.4349C84.908 38.4743 84.6826 38.3955 84.6723 38.4252C84.6529 38.4743 85.3205 38.759 85.5756 38.9946C85.8404 39.2298 86.0858 39.5242 86.2529 39.8386C86.4293 40.1428 86.5668 40.496 86.6353 40.8395C86.7043 41.1928 86.714 41.5659 86.6649 41.9192C86.6159 42.2724 86.508 42.6261 86.3511 42.9497C86.1936 43.2641 85.9779 43.5682 85.7325 43.8233C85.4775 44.0784 85.1733 44.2946 84.8589 44.4516C84.5353 44.6085 84.1816 44.7261 83.8284 44.7752C83.4751 44.8242 83.102 44.8145 82.7487 44.746C82.4052 44.6872 82.052 44.5497 81.7381 44.3826C81.4334 44.2062 81.139 43.9706 80.9039 43.7058C80.6682 43.4502 80.4622 43.1266 80.315 42.8025C80.1775 42.4789 80.089 42.1154 80.0594 41.7622C80.0302 41.409 80.0594 41.0358 80.1381 40.6923C80.2265 40.3488 80.3737 39.9956 80.5603 39.7011C80.7464 39.397 81.002 39.1219 81.2765 38.8965C81.5515 38.6706 81.8751 38.484 82.2089 38.3664C82.5427 38.2386 82.9159 38.1701 83.2691 38.1604C83.6224 38.1502 83.9955 38.1992 84.3288 38.2974C84.6723 38.4058 85.0061 38.5724 85.3006 38.7784C85.5853 38.9747 85.8501 39.2497 86.0663 39.5345C86.2724 39.8187 86.439 40.1525 86.5474 40.496C86.6455 40.8298 86.7043 41.203 86.6946 41.5562C86.6844 41.9094 86.6159 42.2826 86.4881 42.6159C86.3705 42.9497 86.1839 43.2835 85.9682 43.5585C85.7422 43.833 85.4677 44.0881 85.1733 44.2747C84.8686 44.471 84.5251 44.6182 84.1816 44.7067C83.8381 44.7951 83.4654 44.8242 83.1122 44.7951C82.7584 44.7655 82.4251 44.7067 82.0617 44.54C81.6103 44.3238 81.2371 43.9608 80.6682 43.4604C79.5983 42.528 77.8613 40.6238 76.3297 39.1807C74.7006 37.6497 73.2089 36.5409 71.1575 34.558C67.8793 31.3682 60.1455 23.0946 58.8205 21.6025C58.5552 21.308 58.4964 21.2493 58.3686 21.053C58.2413 20.8567 58.1335 20.6307 58.0548 20.4053C57.976 20.1793 57.927 19.9437 57.9075 19.7085C57.8881 19.4632 57.8881 19.2178 57.927 18.9918C57.9663 18.7562 58.0353 18.5108 58.1233 18.2951C58.2117 18.0789 58.3395 17.8631 58.477 17.6766C58.6242 17.4803 58.7909 17.3039 58.9677 17.1567C59.1538 16.9992 59.3603 16.872 59.5761 16.7641C59.7918 16.6659 60.0177 16.5775 60.2534 16.5284C60.489 16.4794 60.7344 16.4594 60.9696 16.4696C61.2052 16.4794 61.4506 16.5187 61.6765 16.5775C61.902 16.646 62.1376 16.7442 62.3436 16.8622C62.5501 16.9701 62.9131 17.284 62.9131 17.284Z" fill="white"/>
</mask>
<g mask="url(#mask29_14_388)">
<path d="M129.32 -23.3201H-23.3201V129.32H129.32V-23.3201Z" fill="#1E1E1E"/>
</g>
</g>
</g>
</g>
</g>
<mask id="mask30_14_388" style="mask-type:luminance" maskUnits="userSpaceOnUse" x="62" y="31" width="19" height="11">
<path d="M62.2397 31.8138H80.7432V41.5223H62.2397V31.8138Z" fill="white"/>
</mask>
<g mask="url(#mask30_14_388)">
<mask id="mask31_14_388" style="mask-type:luminance" maskUnits="userSpaceOnUse" x="62" y="31" width="19" height="11">
<path d="M76.6046 38.9552C72.2176 37.7677 71.2653 38.1112 70.3722 38.4644C69.4695 38.8177 67.8107 39.9561 67.8107 39.9464C67.801 39.9464 68.4389 39.475 68.4778 39.5241C68.5268 39.5732 68.1445 40.1524 67.9185 40.4075C67.6829 40.663 67.3981 40.8982 67.094 41.0654C66.7995 41.2417 66.4463 41.3598 66.1125 41.4283C65.769 41.4973 65.406 41.507 65.0625 41.4579C64.719 41.4089 64.3658 41.301 64.0514 41.1538C63.7472 40.9963 63.4431 40.7806 63.1977 40.5353C62.9523 40.2899 62.7463 39.9954 62.5889 39.6816C62.4319 39.3672 62.3241 39.0237 62.2847 38.6802C62.2357 38.3366 62.2454 37.964 62.3047 37.6302C62.3732 37.2867 62.501 36.9431 62.6676 36.639C62.8445 36.3445 63.0699 36.0501 63.3352 35.8241C63.5903 35.5885 63.8945 35.3922 64.2186 35.2547C64.5324 35.1177 64.8954 35.0292 65.2389 34.9996C65.5824 34.9705 65.9459 35.0093 66.2797 35.088C66.6232 35.1765 66.9565 35.314 67.2509 35.5C67.5357 35.6866 67.8107 35.932 68.0264 36.207C68.2426 36.4718 68.4287 36.7959 68.5468 37.1195C68.6644 37.4436 68.7334 37.8065 68.7431 38.15C68.7528 38.5038 68.7037 38.8667 68.6056 39.1908C68.4977 39.5241 68.3408 39.8579 68.1343 40.1329C67.938 40.4177 67.6732 40.6728 67.3884 40.8788C67.1139 41.0848 66.7801 41.2417 66.4463 41.3399C66.1222 41.4482 65.7496 41.4973 65.406 41.4871C65.0625 41.4774 64.6991 41.4089 64.3755 41.2908C64.0514 41.1635 63.7278 40.9866 63.4625 40.7709C63.1977 40.5547 62.9426 40.2802 62.7658 39.9857C62.5792 39.6913 62.4319 39.3575 62.3435 39.0237C62.2653 38.6899 62.2357 38.3172 62.2653 37.9737C62.2944 37.6302 62.3241 37.2769 62.5204 36.9528C62.756 36.5505 63.2268 36.207 63.7472 35.8339C64.4833 35.294 65.6514 34.7839 66.5935 34.195C67.5454 33.5862 68.3796 32.644 69.4102 32.2514C70.451 31.8589 71.7167 31.7904 72.7963 31.8394C73.7977 31.8885 74.7301 32.2223 75.6722 32.4774C76.6144 32.7228 77.7236 33.0463 78.4398 33.3607C78.9305 33.5667 79.3231 33.7825 79.6176 34.0084C79.8338 34.1653 79.9713 34.3223 80.1185 34.4991C80.2658 34.6857 80.3833 34.8917 80.4815 35.1075C80.5796 35.3237 80.6481 35.5491 80.6875 35.7751C80.7269 36.0107 80.7463 36.2464 80.7269 36.4815C80.7074 36.7172 80.6681 36.9528 80.5991 37.1788C80.5306 37.3945 80.4227 37.6205 80.3046 37.8168C80.187 38.0131 80.0398 38.1991 79.8732 38.3663C79.706 38.5329 79.5097 38.6802 79.3134 38.7982C79.1171 38.9158 78.8917 39.014 78.6755 39.0825C78.45 39.1515 78.2144 39.2005 77.9787 39.2103C77.7431 39.22 77.5074 39.2103 77.2723 39.1612C77.0463 39.1218 76.6046 38.9552 76.6046 38.9552Z" fill="white"/>
</mask>
<g mask="url(#mask31_14_388)">
<mask id="mask32_14_388" style="mask-type:luminance" maskUnits="userSpaceOnUse" x="62" y="31" width="19" height="11">
<path d="M80.7432 31.8H62.1605V41.6149H80.7432V31.8Z" fill="white"/>
</mask>
<g mask="url(#mask32_14_388)">
<mask id="mask33_14_388" style="mask-type:luminance" maskUnits="userSpaceOnUse" x="62" y="31" width="19" height="11">
<path d="M62.2397 31.8138H80.7432V41.5208H62.2397V31.8138Z" fill="white"/>
</mask>
<g mask="url(#mask33_14_388)">
<mask id="mask34_14_388" style="mask-type:luminance" maskUnits="userSpaceOnUse" x="62" y="31" width="19" height="11">
<path d="M76.6046 38.9552C72.2176 37.7677 71.2653 38.1112 70.3722 38.4644C69.4695 38.8177 67.8107 39.9561 67.8107 39.9464C67.801 39.9464 68.4389 39.475 68.4778 39.5241C68.5268 39.5732 68.1445 40.1524 67.9185 40.4075C67.6829 40.6631 67.3981 40.8982 67.094 41.0654C66.7995 41.2417 66.4463 41.3598 66.1125 41.4283C65.769 41.4973 65.406 41.507 65.0625 41.4579C64.719 41.4089 64.3658 41.301 64.0514 41.1538C63.7472 40.9963 63.4431 40.7806 63.1977 40.5353C62.9523 40.2899 62.7463 39.9954 62.5889 39.6816C62.4319 39.3672 62.3241 39.0237 62.2847 38.6802C62.2357 38.3366 62.2454 37.964 62.3047 37.6302C62.3732 37.2867 62.501 36.9431 62.6676 36.639C62.8445 36.3445 63.0699 36.0501 63.3352 35.8241C63.5903 35.5885 63.8945 35.3922 64.2185 35.2547C64.5324 35.1177 64.8954 35.0292 65.2389 34.9996C65.5824 34.9705 65.9459 35.0093 66.2797 35.088C66.6232 35.1765 66.9565 35.314 67.2509 35.5C67.5357 35.6866 67.8107 35.932 68.0264 36.207C68.2426 36.4718 68.4287 36.7959 68.5468 37.1195C68.6644 37.4436 68.7334 37.8065 68.7431 38.15C68.7528 38.5038 68.7037 38.8667 68.6056 39.1908C68.4977 39.5241 68.3408 39.8579 68.1343 40.1329C67.938 40.4177 67.6732 40.6728 67.3884 40.8788C67.1139 41.0848 66.7801 41.2417 66.4463 41.3399C66.1222 41.4482 65.7496 41.4973 65.406 41.4871C65.0625 41.4774 64.6991 41.4089 64.3755 41.2908C64.0514 41.1635 63.7278 40.9866 63.4625 40.7709C63.1977 40.5547 62.9426 40.2802 62.7658 39.9857C62.5792 39.6913 62.4319 39.3575 62.3435 39.0237C62.2653 38.6899 62.2357 38.3172 62.2653 37.9737C62.2944 37.6302 62.3241 37.2769 62.5204 36.9528C62.756 36.5505 63.2268 36.207 63.7472 35.8339C64.4833 35.294 65.6514 34.7839 66.5935 34.195C67.5454 33.5862 68.3796 32.644 69.4102 32.2514C70.451 31.8589 71.7167 31.7904 72.7963 31.8394C73.7977 31.8885 74.7301 32.2223 75.6722 32.4774C76.6144 32.7228 77.7236 33.0463 78.4398 33.3607C78.9305 33.5667 79.3231 33.7825 79.6176 34.0084C79.8338 34.1653 79.9713 34.3223 80.1185 34.4991C80.2658 34.6857 80.3833 34.8917 80.4815 35.1075C80.5796 35.3237 80.6481 35.5491 80.6875 35.7751C80.7269 36.0107 80.7463 36.2464 80.7269 36.4815C80.7074 36.7172 80.6681 36.9528 80.5991 37.1788C80.5306 37.3945 80.4227 37.6205 80.3046 37.8168C80.187 38.0131 80.0398 38.1991 79.8732 38.3663C79.706 38.5329 79.5097 38.6802 79.3134 38.7982C79.1171 38.9158 78.8917 39.014 78.6755 39.0825C78.45 39.1515 78.2144 39.2005 77.9787 39.2103C77.7431 39.22 77.5074 39.2103 77.2723 39.1612C77.0463 39.1218 76.6046 38.9552 76.6046 38.9552Z" fill="white"/>
</mask>
<g mask="url(#mask34_14_388)">
<path d="M129.32 -23.3199H-23.3201V129.32H129.32V-23.3199Z" fill="#1E1E1E"/>
</g>
</g>
</g>
</g>
</g>
<mask id="mask35_14_388" style="mask-type:luminance" maskUnits="userSpaceOnUse" x="63" y="22" width="9" height="17">
<path d="M63.0331 22.0659H71.891V38.5057H63.0331V22.0659Z" fill="white"/>
</mask>
<g mask="url(#mask35_14_388)">
<mask id="mask36_14_388" style="mask-type:luminance" maskUnits="userSpaceOnUse" x="63" y="22" width="9" height="17">
<path d="M68.4287 23.4278C70.9514 27.4718 71.3343 28.4139 71.5694 29.3857C71.7954 30.3472 71.9232 31.319 71.8741 32.3398C71.8148 33.4389 71.6875 34.7542 71.1278 35.7556C70.5491 36.7959 68.9394 38.15 68.3699 38.4153C68.1736 38.5135 68.0954 38.4838 67.9088 38.4741C67.6338 38.4741 67.2121 38.4153 66.888 38.3075C66.5639 38.1991 66.2403 38.0324 65.975 37.8264C65.7005 37.6204 65.4551 37.3551 65.2588 37.0806C65.0722 36.7959 64.9153 36.4621 64.8268 36.138C64.7287 35.8047 64.6893 35.4509 64.7093 35.1074C64.7287 34.7639 64.8074 34.4107 64.9347 34.0968C65.0528 33.7824 65.2491 33.4685 65.4648 33.2038C65.6805 32.9482 65.9653 32.713 66.25 32.5361C66.5444 32.3593 66.8782 32.2223 67.2121 32.1533C67.5453 32.075 67.9088 32.0551 68.2523 32.0945C68.5861 32.1338 68.9394 32.232 69.2435 32.3695C69.5574 32.5167 69.8518 32.713 70.1074 32.9482C70.3528 33.1838 70.5685 33.4783 70.7352 33.7727C70.8926 34.0769 71.0102 34.4204 71.0593 34.7542C71.118 35.088 71.118 35.4509 71.0593 35.7945C71.0102 36.1283 70.8926 36.4718 70.7352 36.7759C70.5782 37.0704 70.3528 37.3648 70.1074 37.6005C69.8621 37.8361 69.5574 38.0324 69.2532 38.1797C68.9394 38.3269 68.5958 38.425 68.2523 38.4547C67.9185 38.4935 67.5556 38.4741 67.2218 38.4056C66.888 38.3269 66.5542 38.1991 66.2597 38.0227C65.9653 37.8459 65.6908 37.6102 65.4648 37.3551C65.2491 37.0903 65.0625 36.7759 64.9347 36.4621C64.8074 36.1482 64.7287 35.7945 64.7093 35.4509C64.6893 35.1176 64.7287 34.7542 64.8171 34.4204C64.9153 34.0968 65.0625 33.763 65.2588 33.488C65.4454 33.2037 65.7005 32.9384 65.9653 32.7324C66.2403 32.5264 66.5542 32.3593 66.8782 32.2417C67.2018 32.1338 67.8889 32.0454 67.8991 32.075C67.9185 32.1338 66.0143 33.1838 65.5926 32.8991C65.131 32.5852 65.7593 30.9658 65.4648 29.9449C65.1019 28.669 63.4921 26.7357 63.1977 25.9306C63.0796 25.6167 63.0699 25.4792 63.0505 25.2435C63.0305 25.0084 63.0408 24.7727 63.0796 24.5371C63.1093 24.3111 63.1778 24.076 63.2662 23.8597C63.3643 23.644 63.4824 23.438 63.6194 23.2514C63.7569 23.0648 63.9241 22.888 64.1102 22.7407C64.287 22.5935 64.493 22.4662 64.699 22.3681C64.9153 22.2602 65.1407 22.1815 65.3667 22.1421C65.5926 22.0931 65.838 22.0736 66.0731 22.0834C66.2991 22.0931 66.5444 22.1227 66.7704 22.1912C66.9861 22.2602 67.2121 22.3482 67.4181 22.4662C67.6144 22.5838 67.8107 22.731 67.9773 22.888C68.1445 23.0454 68.4287 23.4278 68.4287 23.4278Z" fill="white"/>
</mask>
<g mask="url(#mask36_14_388)">
<mask id="mask37_14_388" style="mask-type:luminance" maskUnits="userSpaceOnUse" x="62" y="21" width="10" height="18">
<path d="M71.9753 21.9852H62.9457V38.605H71.9753V21.9852Z" fill="white"/>
</mask>
<g mask="url(#mask37_14_388)">
<mask id="mask38_14_388" style="mask-type:luminance" maskUnits="userSpaceOnUse" x="63" y="22" width="9" height="17">
<path d="M63.0331 22.066H71.891V38.5059H63.0331V22.066Z" fill="white"/>
</mask>
<g mask="url(#mask38_14_388)">
<mask id="mask39_14_388" style="mask-type:luminance" maskUnits="userSpaceOnUse" x="63" y="22" width="9" height="17">
<path d="M68.4287 23.4279C70.9514 27.4719 71.3343 28.414 71.5694 29.3858C71.7954 30.3474 71.9232 31.3191 71.8741 32.34C71.8148 33.439 71.6875 34.7543 71.1278 35.7557C70.5491 36.796 68.9394 38.1501 68.3699 38.4154C68.1736 38.5136 68.0954 38.4839 67.9088 38.4742C67.6338 38.4742 67.2121 38.4154 66.888 38.3076C66.5639 38.1992 66.2403 38.0326 65.975 37.8265C65.7005 37.6205 65.4551 37.3552 65.2588 37.0807C65.0722 36.796 64.9153 36.4622 64.8268 36.1381C64.7287 35.8048 64.6893 35.4511 64.7093 35.1075C64.7287 34.764 64.8074 34.4108 64.9347 34.0969C65.0528 33.7825 65.2491 33.4687 65.4648 33.2039C65.6805 32.9483 65.9653 32.7131 66.25 32.5363C66.5444 32.3594 66.8782 32.2224 67.2121 32.1534C67.5453 32.0752 67.9088 32.0552 68.2523 32.0946C68.5861 32.134 68.9394 32.2321 69.2435 32.3696C69.5574 32.5168 69.8518 32.7131 70.1074 32.9483C70.3528 33.1839 70.5685 33.4784 70.7352 33.7728C70.8926 34.077 71.0102 34.4205 71.0593 34.7543C71.118 35.0881 71.118 35.4511 71.0593 35.7946C71.0102 36.1284 70.8926 36.4719 70.7352 36.7761C70.5782 37.0705 70.3528 37.3649 70.1074 37.6006C69.8621 37.8363 69.5574 38.0326 69.2532 38.1798C68.9394 38.327 68.5958 38.4251 68.2523 38.4548C67.9185 38.4936 67.5556 38.4742 67.2218 38.4057C66.888 38.327 66.5542 38.1992 66.2597 38.0228C65.9653 37.846 65.6908 37.6103 65.4648 37.3552C65.2491 37.0904 65.0625 36.7761 64.9347 36.4622C64.8074 36.1483 64.7287 35.7946 64.7093 35.4511C64.6893 35.1178 64.7287 34.7543 64.8171 34.4205C64.9153 34.0969 65.0625 33.7631 65.2588 33.4881C65.4454 33.2039 65.7005 32.9386 65.9653 32.7326C66.2403 32.5265 66.5542 32.3594 66.8782 32.2418C67.2018 32.134 67.8889 32.0455 67.8991 32.0752C67.9185 32.134 66.0143 33.1839 65.5926 32.8992C65.131 32.5853 65.7593 30.9659 65.4648 29.945C65.1019 28.6691 63.4921 26.7358 63.1977 25.9307C63.0796 25.6168 63.0699 25.4793 63.0505 25.2436C63.0305 25.0085 63.0408 24.7728 63.0796 24.5372C63.1093 24.3112 63.1778 24.0761 63.2662 23.8599C63.3643 23.6441 63.4824 23.4381 63.6194 23.2515C63.7569 23.065 63.9241 22.8881 64.1102 22.7409C64.287 22.5936 64.493 22.4664 64.699 22.3682C64.9153 22.2604 65.1407 22.1816 65.3667 22.1423C65.5926 22.0932 65.838 22.0738 66.0731 22.0835C66.2991 22.0932 66.5444 22.1228 66.7704 22.1913C66.9861 22.2604 67.2121 22.3483 67.4181 22.4664C67.6144 22.5839 67.8107 22.7312 67.9773 22.8881C68.1445 23.0455 68.4287 23.4279 68.4287 23.4279Z" fill="white"/>
</mask>
<g mask="url(#mask39_14_388)">
<path d="M129.32 -23.3198H-23.3201V129.32H129.32V-23.3198Z" fill="#1E1E1E"/>
</g>
</g>
</g>
</g>
</g>
<mask id="mask40_14_388" style="mask-type:luminance" maskUnits="userSpaceOnUse" x="65" y="31" width="6" height="7">
<path d="M65.1013 31.6307H70.7868V37.444H65.1013V31.6307Z" fill="white"/>
</mask>
<g mask="url(#mask40_14_388)">
<mask id="mask41_14_388" style="mask-type:luminance" maskUnits="userSpaceOnUse" x="65" y="31" width="6" height="7">
<path d="M70.7648 33.6745C70.7648 35.5 70.5588 35.9713 70.2741 36.3245C69.9991 36.6777 69.5967 36.9921 69.1847 37.1787C68.7824 37.3648 68.2717 37.4532 67.8204 37.4241C67.3787 37.3944 66.888 37.2472 66.4954 37.0115C66.1125 36.7861 65.7495 36.4129 65.5236 36.0301C65.2879 35.6472 65.131 35.1564 65.1116 34.7148C65.0819 34.2634 65.1704 33.7532 65.357 33.3509C65.5435 32.9384 65.8574 32.5361 66.2106 32.2611C66.5639 31.9768 67.0352 31.7703 67.4768 31.6921C67.9185 31.6037 68.4287 31.643 68.8606 31.7703C69.2926 31.9078 70.0481 32.487 70.0481 32.487" fill="white"/>
</mask>
<g mask="url(#mask41_14_388)">
<mask id="mask42_14_388" style="mask-type:luminance" maskUnits="userSpaceOnUse" x="65" y="31" width="6" height="7">
<path d="M70.7976 31.5382H65.0396V37.558H70.7976V31.5382Z" fill="white"/>
</mask>
<g mask="url(#mask42_14_388)">
<mask id="mask43_14_388" style="mask-type:luminance" maskUnits="userSpaceOnUse" x="65" y="31" width="6" height="7">
<path d="M65.1014 31.6307H70.7869V37.444H65.1014V31.6307Z" fill="white"/>
</mask>
<g mask="url(#mask43_14_388)">
<mask id="mask44_14_388" style="mask-type:luminance" maskUnits="userSpaceOnUse" x="65" y="31" width="6" height="7">
<path d="M70.7649 33.6745C70.7649 35.5 70.5589 35.9713 70.2742 36.3245C69.9992 36.6777 69.5969 36.9921 69.1849 37.1787C68.7825 37.3648 68.2719 37.4532 67.8205 37.4241C67.3788 37.3944 66.8881 37.2472 66.4955 37.0115C66.1126 36.7861 65.7497 36.4129 65.5237 36.0301C65.2881 35.6472 65.1311 35.1564 65.1117 34.7148C65.0821 34.2634 65.1705 33.7532 65.3571 33.3509C65.5437 32.9384 65.8575 32.5361 66.2108 32.2611C66.564 31.9768 67.0353 31.7703 67.477 31.6921C67.9186 31.6037 68.4288 31.643 68.8608 31.7703C69.2927 31.9078 70.0482 32.487 70.0482 32.487" fill="white"/>
</mask>
<g mask="url(#mask44_14_388)">
<path d="M129.32 -23.3201H-23.3198V129.32H129.32V-23.3201Z" fill="#1E1E1E"/>
</g>
</g>
</g>
</g>
</g>
<mask id="mask45_14_388" style="mask-type:luminance" maskUnits="userSpaceOnUse" x="61" y="28" width="11" height="15">
<path d="M61.9678 28.4404H71.4938V42.0493H61.9678V28.4404Z" fill="white"/>
</mask>
<g mask="url(#mask45_14_388)">
<mask id="mask46_14_388" style="mask-type:luminance" maskUnits="userSpaceOnUse" x="61" y="28" width="11" height="15">
<path d="M71.2949 32.3889C70.7842 33.6551 69.5379 35.2352 69.0277 36.3445C68.5861 37.3259 68.5467 38.3662 68.1245 39.269C67.7027 40.1523 67.0448 41.3009 66.4953 41.713C66.1712 41.9486 65.8573 41.9583 65.5235 41.9977C65.1897 42.037 64.8365 42.0268 64.5129 41.9583C64.1791 41.8995 63.8453 41.7717 63.5606 41.6051C63.2661 41.4379 62.9916 41.2125 62.7754 40.9574C62.55 40.712 62.3634 40.4074 62.2356 40.1032C62.1083 39.7893 62.0199 39.4458 61.9999 39.112C61.9805 38.7782 62.0101 38.425 62.0884 38.1009C62.1768 37.7773 62.3143 37.4532 62.5009 37.1787C62.687 36.894 62.9226 36.6287 63.1879 36.4227C63.443 36.2167 63.7569 36.05 64.0713 35.9319C64.3851 35.8241 64.7384 35.7556 65.0722 35.7556C65.406 35.7453 65.7592 35.7944 66.0731 35.9028C66.3972 36.0009 66.711 36.1579 66.9763 36.3542C67.2508 36.5505 67.4962 36.8055 67.6925 37.0806C67.8791 37.3551 68.036 37.6792 68.1342 37.993C68.2323 38.3171 68.2717 38.6704 68.262 39.0042C68.2523 39.338 68.1833 39.6815 68.0657 39.9954C67.9481 40.3092 67.7615 40.6139 67.5555 40.8787C67.3393 41.1338 67.0745 41.3694 66.7898 41.5463C66.505 41.7227 66.1814 41.8602 65.8573 41.9389C65.5333 42.0171 65.18 42.037 64.8462 42.0074C64.5129 41.9777 64.1694 41.8898 63.8647 41.7523C63.5606 41.6245 63.2564 41.4282 63.0111 41.2028C62.7657 40.9768 62.55 40.7018 62.3828 40.4074C62.2259 40.1129 62.0981 39.7796 62.0393 39.4458C61.9805 39.1217 61.9805 38.7685 62.0296 38.4347C62.0689 38.1009 62.1768 37.7676 62.3337 37.4732C62.4809 37.1685 62.6972 36.8843 62.9323 36.6486C63.168 36.4129 63.7666 36.0694 63.7569 36.0694C63.7569 36.0597 63.0111 36.6486 62.9426 36.5796C62.805 36.4523 64.0416 34.8032 64.5027 33.812C65.0037 32.7421 65.5041 31.0736 65.8083 30.3866C65.9458 30.0921 65.9949 29.9546 66.1324 29.7583C66.2597 29.5722 66.4166 29.3856 66.5837 29.2287C66.7601 29.0713 66.9564 28.9343 67.1629 28.8259C67.3689 28.7083 67.5944 28.6199 67.8203 28.5611C68.0463 28.5023 68.2814 28.4727 68.5171 28.4727C68.743 28.4629 68.9884 28.4926 69.2138 28.5417C69.4398 28.6005 69.6657 28.6787 69.8717 28.787C70.0874 28.8852 70.2837 29.0222 70.4606 29.1796C70.637 29.3269 70.7944 29.5032 70.9314 29.6995C71.0689 29.8861 71.187 30.1018 71.2652 30.3181C71.3536 30.5338 71.4124 30.7694 71.4518 30.9954C71.4814 31.2305 71.4814 31.4662 71.4615 31.7018C71.4324 31.9278 71.2949 32.3889 71.2949 32.3889Z" fill="white"/>
</mask>
<g mask="url(#mask46_14_388)">
<mask id="mask47_14_388" style="mask-type:luminance" maskUnits="userSpaceOnUse" x="61" y="28" width="11" height="15">
<path d="M71.5826 28.3975H61.8987V42.1382H71.5826V28.3975Z" fill="white"/>
</mask>
<g mask="url(#mask47_14_388)">
<mask id="mask48_14_388" style="mask-type:luminance" maskUnits="userSpaceOnUse" x="61" y="28" width="11" height="15">
<path d="M61.9677 28.4552H71.4829V42.0492H61.9677V28.4552Z" fill="white"/>
</mask>
<g mask="url(#mask48_14_388)">
<mask id="mask49_14_388" style="mask-type:luminance" maskUnits="userSpaceOnUse" x="61" y="28" width="11" height="15">
<path d="M71.2947 32.3888C70.7841 33.655 69.5378 35.235 69.0276 36.3443C68.5859 37.3258 68.5466 38.3661 68.1243 39.2688C67.7026 40.1522 67.0447 41.3008 66.4952 41.7128C66.1711 41.9485 65.8572 41.9582 65.5234 41.9976C65.1896 42.0369 64.8364 42.0267 64.5128 41.9582C64.179 41.8994 63.8452 41.7716 63.5605 41.605C63.266 41.4378 62.9915 41.2124 62.7753 40.9573C62.5498 40.7119 62.3633 40.4073 62.2355 40.1031C62.1082 39.7892 62.0197 39.4457 61.9998 39.1119C61.9804 38.7781 62.01 38.4249 62.0882 38.1008C62.1767 37.7772 62.3142 37.4531 62.5008 37.1786C62.6868 36.8939 62.9225 36.6285 63.1878 36.4225C63.4429 36.2165 63.7568 36.0499 64.0711 35.9318C64.385 35.8239 64.7382 35.7554 65.072 35.7554C65.4058 35.7452 65.7591 35.7943 66.0729 35.9027C66.397 36.0008 66.7109 36.1577 66.9762 36.354C67.2507 36.5503 67.4961 36.8054 67.6924 37.0804C67.879 37.3549 68.0359 37.679 68.1341 37.9929C68.2322 38.317 68.2716 38.6702 68.2619 39.004C68.2521 39.3378 68.1831 39.6814 68.0656 39.9952C67.948 40.3091 67.7614 40.6138 67.5554 40.8786C67.3392 41.1337 67.0744 41.3693 66.7896 41.5462C66.5049 41.7225 66.1813 41.8601 65.8572 41.9388C65.5331 42.017 65.1799 42.0369 64.8461 42.0073C64.5128 41.9776 64.1693 41.8897 63.8646 41.7522C63.5605 41.6244 63.2563 41.4281 63.0109 41.2027C62.7656 40.9767 62.5498 40.7017 62.3827 40.4073C62.2257 40.1128 62.0979 39.7795 62.0392 39.4457C61.9804 39.1216 61.9804 38.7684 62.0294 38.4346C62.0688 38.1008 62.1767 37.7675 62.3336 37.473C62.4808 37.1684 62.6971 36.8841 62.9322 36.6485C63.1679 36.4128 63.7665 36.0693 63.7568 36.0693C63.7568 36.0596 63.0109 36.6485 62.9424 36.5795C62.8049 36.4522 64.0415 34.8031 64.5026 33.8119C65.0035 32.742 65.504 31.0735 65.8082 30.3864C65.9457 30.092 65.9947 29.9545 66.1322 29.7582C66.2595 29.5721 66.4165 29.3855 66.5836 29.2286C66.76 29.0711 66.9563 28.9341 67.1628 28.8258C67.3688 28.7082 67.5942 28.6198 67.8202 28.561C68.0461 28.5022 68.2813 28.4725 68.5169 28.4725C68.7429 28.4628 68.9883 28.4925 69.2137 28.5416C69.4396 28.6003 69.6656 28.6785 69.8716 28.7869C70.0873 28.8851 70.2836 29.0221 70.4605 29.1795C70.6368 29.3267 70.7943 29.5031 70.9313 29.6994C71.0688 29.886 71.1869 30.1017 71.2651 30.3179C71.3535 30.5337 71.4123 30.7693 71.4517 30.9953C71.4813 31.2304 71.4813 31.4661 71.4614 31.7017C71.4322 31.9277 71.2947 32.3888 71.2947 32.3888Z" fill="white"/>
</mask>
<g mask="url(#mask49_14_388)">
<path d="M129.32 -23.3202H-23.3202V129.32H129.32V-23.3202Z" fill="#1E1E1E"/>
</g>
</g>
</g>
</g>
</g>
<mask id="mask50_14_388" style="mask-type:luminance" maskUnits="userSpaceOnUse" x="31" y="48" width="12" height="11">
<path d="M31.4468 48.8972H42.2691V58.4963H31.4468V48.8972Z" fill="white"/>
</mask>
<g mask="url(#mask50_14_388)">
<mask id="mask51_14_388" style="mask-type:luminance" maskUnits="userSpaceOnUse" x="31" y="48" width="12" height="11">
<path d="M36.2852 49.6042C39.7106 52.2148 39.6421 52.2833 39.7203 52.3523C39.8578 52.4996 40.3685 52.5287 40.6527 52.6861C40.9472 52.8334 41.2222 53.0491 41.4379 53.2945C41.6639 53.5301 41.8602 53.8246 41.9977 54.119C42.125 54.4134 42.2231 54.757 42.2528 55.0805C42.2824 55.4046 42.2625 55.7482 42.194 56.0723C42.1153 56.3861 41.988 56.7102 41.8111 56.9944C41.6445 57.2695 41.4185 57.5343 41.1634 57.7505C40.9083 57.9565 40.6139 58.1334 40.3092 58.2509C40.0051 58.3685 39.6616 58.4375 39.338 58.4569C39.0042 58.4667 38.6606 58.4278 38.3463 58.3394C38.0324 58.2509 37.7185 58.1037 37.4435 57.9171C37.1787 57.7305 36.9231 57.4852 36.7268 57.2204C36.5305 56.9653 36.3736 56.6509 36.2754 56.3468C36.1676 56.0329 36.1185 55.6894 36.1185 55.3556C36.1185 55.0315 36.1773 54.688 36.2852 54.3741C36.3935 54.0699 36.5602 53.7658 36.7565 53.5005C36.9625 53.2454 37.2176 53.0097 37.4926 52.8231C37.7574 52.6468 38.0815 52.4996 38.3953 52.4208C38.7097 52.3324 39.063 52.2936 39.387 52.313C39.7106 52.3426 40.0541 52.4111 40.3583 52.5389C40.663 52.6662 40.9574 52.8431 41.2028 53.0588C41.4482 53.275 41.6736 53.5398 41.8407 53.8246C42.0074 54.1093 42.1352 54.4329 42.2037 54.7473C42.2722 55.0708 42.2824 55.4241 42.2431 55.7482C42.2037 56.0723 42.1153 56.4055 41.968 56.7C41.8305 56.9944 41.6342 57.2792 41.4088 57.5148C41.1828 57.7505 40.8981 57.9662 40.6139 58.1134C40.3195 58.2607 39.9856 58.3685 39.6616 58.4278C39.338 58.4769 39.0532 58.526 38.6704 58.4176C38.0227 58.2315 37.0806 57.4755 36.2657 56.9259C35.3527 56.3273 34.2343 55.5713 33.4782 54.9533C32.899 54.4819 32.3301 53.9912 32.0356 53.6083C31.8491 53.3732 31.7703 53.206 31.6824 52.9903C31.594 52.7741 31.525 52.5389 31.4958 52.3033C31.4565 52.0773 31.4468 51.8319 31.4759 51.5963C31.4958 51.3611 31.5449 51.1255 31.6231 50.8995C31.7018 50.6838 31.8 50.4579 31.9278 50.2616C32.0551 50.0653 32.212 49.8787 32.3889 49.7218C32.5555 49.5551 32.7518 49.4176 32.9583 49.3C33.1644 49.1819 33.3898 49.0935 33.6157 49.025C33.8417 48.9662 34.0768 48.9269 34.3125 48.9269C34.5481 48.9172 34.7935 48.9366 35.0195 48.9857C35.2449 49.0347 35.4805 49.1134 35.6866 49.2213C35.9028 49.3195 36.2852 49.6042 36.2852 49.6042Z" fill="white"/>
</mask>
<g mask="url(#mask51_14_388)">
<mask id="mask52_14_388" style="mask-type:luminance" maskUnits="userSpaceOnUse" x="31" y="48" width="12" height="11">
<path d="M42.2691 48.8124H31.4073V58.4963H42.2691V48.8124Z" fill="white"/>
</mask>
<g mask="url(#mask52_14_388)">
<mask id="mask53_14_388" style="mask-type:luminance" maskUnits="userSpaceOnUse" x="31" y="48" width="12" height="11">
<path d="M31.4467 48.9014H42.269V58.4964H31.4467V48.9014Z" fill="white"/>
</mask>
<g mask="url(#mask53_14_388)">
<mask id="mask54_14_388" style="mask-type:luminance" maskUnits="userSpaceOnUse" x="31" y="48" width="12" height="11">
<path d="M36.285 49.6043C39.7105 52.2149 39.642 52.2834 39.7202 52.3525C39.8577 52.4997 40.3684 52.5288 40.6526 52.6863C40.9471 52.8335 41.2221 53.0492 41.4378 53.2946C41.6638 53.5302 41.8601 53.8247 41.9976 54.1191C42.1248 54.4136 42.223 54.7571 42.2526 55.0807C42.2823 55.4048 42.2624 55.7483 42.1939 56.0724C42.1151 56.3862 41.9878 56.7103 41.811 56.9946C41.6443 57.2696 41.4184 57.5344 41.1633 57.7506C40.9082 57.9566 40.6138 58.1335 40.3091 58.2511C40.005 58.3686 39.6614 58.4376 39.3378 58.4571C39.004 58.4668 38.6605 58.4279 38.3461 58.3395C38.0323 58.2511 37.7184 58.1038 37.4434 57.9173C37.1786 57.7307 36.923 57.4853 36.7267 57.2205C36.5304 56.9654 36.3735 56.651 36.2753 56.3469C36.1675 56.033 36.1184 55.6895 36.1184 55.3557C36.1184 55.0316 36.1772 54.6881 36.285 54.3742C36.3934 54.0701 36.5601 53.7659 36.7563 53.5006C36.9624 53.2455 37.2174 53.0098 37.4925 52.8233C37.7573 52.6469 38.0813 52.4997 38.3952 52.421C38.7096 52.3325 39.0628 52.2937 39.3869 52.3131C39.7105 52.3427 40.054 52.4112 40.3582 52.539C40.6628 52.6663 40.9573 52.8432 41.2027 53.0589C41.448 53.2752 41.6735 53.5399 41.8406 53.8247C42.0073 54.1094 42.1351 54.433 42.2036 54.7474C42.2721 55.071 42.2823 55.4242 42.2429 55.7483C42.2036 56.0724 42.1151 56.4057 41.9679 56.7001C41.8304 56.9946 41.6341 57.2793 41.4087 57.5149C41.1827 57.7506 40.898 57.9663 40.6138 58.1136C40.3193 58.2608 39.9855 58.3686 39.6614 58.4279C39.3378 58.477 39.0531 58.5261 38.6702 58.4177C38.0226 58.2316 37.0804 57.4756 36.2656 56.9261C35.3526 56.3275 34.2341 55.5714 33.4781 54.9534C32.8989 54.4821 32.33 53.9913 32.0355 53.6084C31.8489 53.3733 31.7702 53.2061 31.6823 52.9904C31.5939 52.7742 31.5248 52.539 31.4957 52.3034C31.4563 52.0774 31.4466 51.8321 31.4758 51.5964C31.4957 51.3613 31.5448 51.1256 31.623 50.8997C31.7017 50.6839 31.7999 50.458 31.9277 50.2617C32.0549 50.0654 32.2119 49.8788 32.3888 49.7219C32.5554 49.5552 32.7517 49.4177 32.9582 49.3002C33.1642 49.1821 33.3897 49.0936 33.6156 49.0251C33.8416 48.9663 34.0767 48.927 34.3124 48.927C34.548 48.9173 34.7934 48.9367 35.0193 48.9858C35.2448 49.0348 35.4804 49.1136 35.6864 49.2214C35.9027 49.3196 36.285 49.6043 36.285 49.6043Z" fill="white"/>
</mask>
<g mask="url(#mask54_14_388)">
<path d="M129.32 -23.3199H-23.3202V129.32H129.32V-23.3199Z" fill="#1E1E1E"/>
</g>
</g>
</g>
</g>
</g>
<mask id="mask55_14_388" style="mask-type:luminance" maskUnits="userSpaceOnUse" x="25" y="54" width="13" height="12">
<path d="M25.9259 54.0454H37.8473V65.7245H25.9259V54.0454Z" fill="white"/>
</mask>
<g mask="url(#mask55_14_388)">
<mask id="mask56_14_388" style="mask-type:luminance" maskUnits="userSpaceOnUse" x="25" y="54" width="13" height="12">
<path d="M30.9266 54.9044C36.5113 60.5086 34.8919 59.4878 34.9215 59.3993C34.9409 59.3503 35.4317 59.4781 35.6673 59.5568C35.903 59.635 36.1382 59.7428 36.3544 59.8706C36.5604 60.0082 36.7664 60.1748 36.9433 60.3517C37.1196 60.528 37.2771 60.7346 37.3947 60.96C37.5224 61.1762 37.6303 61.4114 37.6988 61.647C37.7678 61.8924 37.8169 62.1475 37.8266 62.4031C37.8363 62.6484 37.8169 62.9132 37.7678 63.1586C37.7187 63.404 37.64 63.6493 37.5322 63.8753C37.4243 64.1007 37.2868 64.317 37.1299 64.5133C36.9724 64.7096 36.7863 64.8956 36.5798 65.0428C36.3835 65.1901 36.1581 65.3276 35.9224 65.4257C35.6965 65.5239 35.4511 65.5929 35.196 65.642C34.9507 65.6808 34.7544 65.7202 34.4405 65.6711C33.9104 65.5827 32.8308 65.1706 32.3303 64.8466C31.9965 64.6308 31.8002 64.4049 31.6039 64.1304C31.4076 63.8651 31.241 63.5415 31.1428 63.2174C31.0447 62.9035 30.9854 62.5503 30.9956 62.2165C30.9956 61.873 31.0641 61.5295 31.172 61.2054C31.29 60.8915 31.4664 60.5771 31.6724 60.3123C31.8789 60.0572 32.1437 59.8119 32.4187 59.6253C32.703 59.4484 33.0271 59.3012 33.3512 59.2133C33.6844 59.1345 34.0382 59.0952 34.3715 59.1248C34.7053 59.1442 35.0488 59.2327 35.3632 59.3605C35.6673 59.4878 35.9715 59.6841 36.2266 59.9003C36.4817 60.1257 36.7076 60.4007 36.8743 60.6855C37.0414 60.9799 37.1687 61.3132 37.2377 61.647C37.2965 61.9711 37.3159 62.3341 37.2771 62.6582C37.228 62.992 37.1299 63.3355 36.9826 63.6396C36.8354 63.9438 36.6289 64.2382 36.3937 64.4739C36.1581 64.7096 35.8734 64.9253 35.5692 65.0725C35.2748 65.2294 34.9312 65.3373 34.5974 65.3864C34.2733 65.4354 33.9104 65.4257 33.5766 65.3669C33.253 65.3082 32.9095 65.1901 32.6248 65.0234C32.3303 64.8665 32.0456 64.6405 31.8196 64.3952C31.5942 64.1498 31.3979 63.8456 31.2604 63.5415C31.1229 63.2373 31.0344 62.8836 31.0053 62.5503C30.9757 62.2165 31.0053 61.8633 31.0835 61.5392C31.1622 61.2054 31.2998 60.8818 31.4761 60.597C31.653 60.3123 31.8886 60.0373 32.1437 59.8313C32.4085 59.6156 32.7132 59.4387 33.0271 59.3211C33.3409 59.203 33.6947 59.1345 34.028 59.1151C34.3618 59.1049 34.7252 59.154 35.0391 59.2424C35.3632 59.3405 35.9715 59.6646 35.9618 59.6938C35.9521 59.7234 34.9215 59.4193 34.9215 59.3993C34.9215 59.3896 35.4317 59.4781 35.6673 59.5568C35.903 59.635 36.1382 59.7428 36.3544 59.8706C36.5604 60.0082 36.7664 60.1748 36.9433 60.3517C37.1196 60.528 37.2771 60.7346 37.3947 60.96C37.5224 61.1762 37.6303 61.4114 37.6988 61.647C37.7678 61.8924 37.8169 62.1475 37.8266 62.4031C37.8363 62.6484 37.8169 62.9132 37.7678 63.1586C37.7187 63.404 37.64 63.6493 37.5322 63.8753C37.4243 64.1007 37.2868 64.317 37.1299 64.5133C36.9724 64.7096 36.7863 64.8956 36.5798 65.0428C36.3835 65.1901 36.1581 65.3276 35.9224 65.4257C35.6965 65.5239 35.4511 65.5929 35.196 65.642C34.9507 65.6808 34.6562 65.7401 34.4405 65.6711C34.2636 65.6123 34.1951 65.5142 33.9988 65.3276C33.4984 64.8762 31.5942 62.7169 31.6136 62.7072C31.6233 62.6873 34.4696 65.4354 34.3914 65.5336C34.3224 65.622 32.6641 64.454 31.8396 63.8359C31.0053 63.2077 30.2298 62.5503 29.4252 61.804C28.5419 60.9697 27.2854 59.6253 26.7849 59.0461C26.5687 58.8007 26.4706 58.6929 26.3433 58.4966C26.2252 58.2906 26.127 58.0743 26.0585 57.8489C25.99 57.6229 25.941 57.3873 25.9307 57.1521C25.921 56.9165 25.9307 56.6808 25.9701 56.4452C26.0192 56.2197 26.0882 55.9841 26.1863 55.7781C26.2743 55.5618 26.4021 55.3558 26.5493 55.1692C26.6965 54.9827 26.8632 54.816 27.0497 54.6688C27.2363 54.5216 27.4423 54.404 27.6483 54.3058C27.8646 54.2077 28.1002 54.1387 28.3257 54.0993C28.5613 54.0503 28.797 54.0405 29.0326 54.0503C29.2678 54.0702 29.5034 54.1096 29.7294 54.1781C29.9451 54.2466 30.171 54.3447 30.3673 54.4725C30.5734 54.5901 30.9266 54.9044 30.9266 54.9044Z" fill="white"/>
</mask>
<g mask="url(#mask56_14_388)">
<mask id="mask57_14_388" style="mask-type:luminance" maskUnits="userSpaceOnUse" x="25" y="53" width="13" height="13">
<path d="M37.9506 53.916H25.9111V65.8247H37.9506V53.916Z" fill="white"/>
</mask>
<g mask="url(#mask57_14_388)">
<mask id="mask58_14_388" style="mask-type:luminance" maskUnits="userSpaceOnUse" x="25" y="54" width="13" height="12">
<path d="M25.9259 54.0454H37.8458V65.7245H25.9259V54.0454Z" fill="white"/>
</mask>
<g mask="url(#mask58_14_388)">
<mask id="mask59_14_388" style="mask-type:luminance" maskUnits="userSpaceOnUse" x="25" y="54" width="13" height="12">
<path d="M30.9266 54.9044C36.5113 60.5086 34.8919 59.4878 34.9215 59.3993C34.9409 59.3503 35.4317 59.4781 35.6673 59.5568C35.903 59.635 36.1382 59.7428 36.3544 59.8706C36.5604 60.0082 36.7664 60.1748 36.9433 60.3517C37.1196 60.528 37.2771 60.7346 37.3947 60.96C37.5224 61.1762 37.6303 61.4114 37.6988 61.647C37.7678 61.8924 37.8169 62.1475 37.8266 62.4031C37.8363 62.6484 37.8169 62.9132 37.7678 63.1586C37.7187 63.404 37.64 63.6493 37.5322 63.8753C37.4243 64.1007 37.2868 64.317 37.1299 64.5133C36.9724 64.7096 36.7863 64.8956 36.5798 65.0428C36.3835 65.1901 36.1581 65.3276 35.9224 65.4257C35.6965 65.5239 35.4511 65.5929 35.196 65.642C34.9507 65.6808 34.7544 65.7202 34.4405 65.6711C33.9104 65.5827 32.8308 65.1706 32.3303 64.8466C31.9965 64.6308 31.8002 64.4049 31.6039 64.1304C31.4076 63.8651 31.241 63.5415 31.1428 63.2174C31.0447 62.9035 30.9854 62.5503 30.9956 62.2165C30.9956 61.873 31.0641 61.5295 31.172 61.2054C31.29 60.8915 31.4664 60.5771 31.6724 60.3123C31.8789 60.0572 32.1437 59.8119 32.4187 59.6253C32.703 59.4484 33.0271 59.3012 33.3512 59.2133C33.6844 59.1345 34.0382 59.0952 34.3715 59.1248C34.7053 59.1442 35.0488 59.2327 35.3632 59.3605C35.6673 59.4878 35.9715 59.6841 36.2266 59.9003C36.4817 60.1257 36.7076 60.4007 36.8743 60.6855C37.0414 60.9799 37.1687 61.3132 37.2377 61.647C37.2965 61.9711 37.3159 62.3341 37.2771 62.6582C37.228 62.992 37.1299 63.3355 36.9826 63.6396C36.8354 63.9438 36.6289 64.2382 36.3937 64.4739C36.1581 64.7096 35.8734 64.9253 35.5692 65.0725C35.2748 65.2294 34.9312 65.3373 34.5974 65.3864C34.2733 65.4354 33.9104 65.4257 33.5766 65.3669C33.253 65.3082 32.9095 65.1901 32.6248 65.0234C32.3303 64.8665 32.0456 64.6405 31.8196 64.3952C31.5942 64.1498 31.3979 63.8456 31.2604 63.5415C31.1229 63.2373 31.0344 62.8836 31.0053 62.5503C30.9757 62.2165 31.0053 61.8633 31.0835 61.5392C31.1622 61.2054 31.2998 60.8818 31.4761 60.597C31.653 60.3123 31.8886 60.0373 32.1437 59.8313C32.4085 59.6156 32.7132 59.4387 33.0271 59.3211C33.3409 59.203 33.6947 59.1345 34.028 59.1151C34.3618 59.1049 34.7252 59.154 35.0391 59.2424C35.3632 59.3405 35.9715 59.6646 35.9618 59.6938C35.9521 59.7234 34.9215 59.4193 34.9215 59.3993C34.9215 59.3896 35.4317 59.4781 35.6673 59.5568C35.903 59.635 36.1382 59.7428 36.3544 59.8706C36.5604 60.0082 36.7664 60.1748 36.9433 60.3517C37.1196 60.528 37.2771 60.7346 37.3947 60.96C37.5224 61.1762 37.6303 61.4114 37.6988 61.647C37.7678 61.8924 37.8169 62.1475 37.8266 62.4031C37.8363 62.6484 37.8169 62.9132 37.7678 63.1586C37.7187 63.404 37.64 63.6493 37.5322 63.8753C37.4243 64.1007 37.2868 64.317 37.1299 64.5133C36.9724 64.7096 36.7863 64.8956 36.5798 65.0428C36.3835 65.1901 36.1581 65.3276 35.9224 65.4257C35.6965 65.5239 35.4511 65.5929 35.196 65.642C34.9507 65.6808 34.6562 65.7401 34.4405 65.6711C34.2636 65.6123 34.1951 65.5142 33.9988 65.3276C33.4984 64.8762 31.5942 62.7169 31.6136 62.7072C31.6233 62.6873 34.4696 65.4354 34.3914 65.5336C34.3224 65.622 32.6641 64.454 31.8396 63.8359C31.0053 63.2077 30.2298 62.5503 29.4252 61.804C28.5419 60.9697 27.2854 59.6253 26.7849 59.0461C26.5687 58.8007 26.4706 58.6929 26.3433 58.4966C26.2252 58.2906 26.127 58.0743 26.0585 57.8489C25.99 57.6229 25.941 57.3873 25.9307 57.1521C25.921 56.9165 25.9307 56.6808 25.9701 56.4452C26.0192 56.2197 26.0882 55.9841 26.1863 55.7781C26.2743 55.5618 26.4021 55.3558 26.5493 55.1692C26.6965 54.9827 26.8632 54.816 27.0497 54.6688C27.2363 54.5216 27.4423 54.404 27.6483 54.3058C27.8646 54.2077 28.1002 54.1387 28.3257 54.0993C28.5613 54.0503 28.797 54.0405 29.0326 54.0503C29.2678 54.0702 29.5034 54.1096 29.7294 54.1781C29.9451 54.2466 30.171 54.3447 30.3673 54.4725C30.5734 54.5901 30.9266 54.9044 30.9266 54.9044Z" fill="white"/>
</mask>
<g mask="url(#mask59_14_388)">
<path d="M129.32 -23.3199H-23.3201V129.32H129.32V-23.3199Z" fill="#1E1E1E"/>
</g>
</g>
</g>
</g>
</g>
<mask id="mask60_14_388" style="mask-type:luminance" maskUnits="userSpaceOnUse" x="20" y="44" width="17" height="18">
<path d="M20.2119 44.1498H36.2494V61.3416H20.2119V44.1498Z" fill="white"/>
</mask>
<g mask="url(#mask60_14_388)">
<mask id="mask61_14_388" style="mask-type:luminance" maskUnits="userSpaceOnUse" x="20" y="44" width="17" height="18">
<path d="M20.8862 56.5333C24.4487 52.0972 25.0279 51.5962 25.8718 50.674C27.089 49.3388 29.2482 46.6888 30.2788 45.6685C30.7792 45.1675 31.0737 44.8536 31.476 44.618C31.8001 44.4314 32.114 44.3333 32.4478 44.2745C32.7913 44.206 33.1547 44.206 33.488 44.255C33.8315 44.3041 34.1751 44.412 34.4797 44.5689C34.7839 44.7161 35.0783 44.9324 35.3237 45.1777C35.5594 45.4231 35.7654 45.7176 35.9126 46.0314C36.0695 46.3356 36.1677 46.6888 36.2167 47.0226C36.2561 47.3661 36.2464 47.7296 36.1774 48.0629C36.1089 48.3967 35.9811 48.7402 35.8047 49.0347C35.6376 49.3291 35.4019 49.6138 35.1468 49.8398C34.8917 50.0652 34.5876 50.2518 34.2635 50.3893C33.9496 50.5166 33.5964 50.605 33.2626 50.625C32.9191 50.6541 32.5556 50.625 32.2223 50.5365C31.8885 50.4481 31.5644 50.3009 31.27 50.1143C30.9852 49.9277 30.7205 49.6823 30.5047 49.4175C30.2982 49.1425 30.1219 48.8286 30.0038 48.5046C29.8862 48.181 29.8274 47.8277 29.8177 47.4842C29.8177 47.1407 29.8668 46.7773 29.9649 46.4537C30.0728 46.1296 30.2394 45.8055 30.4357 45.531C30.6417 45.256 30.8973 45.0009 31.1815 44.8046C31.4566 44.6083 31.7904 44.4513 32.114 44.3532C32.438 44.255 32.801 44.206 33.1445 44.2157C33.488 44.2351 33.8418 44.3041 34.1653 44.4217C34.4797 44.5495 34.8033 44.7259 35.0584 44.9421C35.3237 45.1578 35.5691 45.4328 35.7454 45.7273C35.932 46.012 36.0695 46.3555 36.1482 46.6791C36.2265 47.0129 36.2561 47.3759 36.2265 47.7194C36.1973 48.0629 36.0992 48.4166 35.9617 48.7208C35.8242 49.0347 35.6279 49.3388 35.3922 49.5944C35.1668 49.8495 34.627 50.0852 34.5779 50.2324C34.5677 50.3009 34.6561 50.3106 34.6367 50.3893C34.5482 50.8601 31.7019 53.6476 30.5242 54.8351C29.6802 55.6893 29.0422 56.1504 28.2862 56.9555C27.4028 57.8879 26.1172 59.5365 25.5677 60.1351C25.332 60.3805 25.2538 60.4986 25.0672 60.6458C24.8806 60.793 24.6746 60.9203 24.4584 61.0184C24.2427 61.1166 24.0167 61.1856 23.7816 61.2347C23.5459 61.274 23.3103 61.2935 23.0746 61.2838C22.839 61.274 22.5936 61.225 22.3681 61.156C22.1422 61.0972 21.9265 60.999 21.7205 60.8712C21.514 60.7537 21.3279 60.6064 21.151 60.4398C20.9844 60.2726 20.8371 60.086 20.7093 59.88C20.5918 59.6837 20.4834 59.4583 20.4149 59.2421C20.3362 59.0166 20.2973 58.7713 20.2774 58.5356C20.258 58.2999 20.2774 58.0643 20.3167 57.8286C20.3561 57.5935 20.4246 57.3578 20.5228 57.1518C20.6112 56.9356 20.8862 56.5333 20.8862 56.5333Z" fill="white"/>
</mask>
<g mask="url(#mask61_14_388)">
<mask id="mask62_14_388" style="mask-type:luminance" maskUnits="userSpaceOnUse" x="20" y="44" width="17" height="18">
<path d="M36.2495 44.1012H20.1532V61.3753H36.2495V44.1012Z" fill="white"/>
</mask>
<g mask="url(#mask62_14_388)">
<mask id="mask63_14_388" style="mask-type:luminance" maskUnits="userSpaceOnUse" x="20" y="44" width="17" height="18">
<path d="M20.2579 44.1902H36.2494V61.3073H20.2579V44.1902Z" fill="white"/>
</mask>
<g mask="url(#mask63_14_388)">
<mask id="mask64_14_388" style="mask-type:luminance" maskUnits="userSpaceOnUse" x="20" y="44" width="17" height="18">
<path d="M20.8862 56.5334C24.4487 52.0973 25.0279 51.5963 25.8718 50.6742C27.089 49.3389 29.2482 46.6889 30.2788 45.6686C30.7792 45.1676 31.0737 44.8538 31.476 44.6181C31.8001 44.4315 32.114 44.3334 32.4478 44.2746C32.7913 44.2061 33.1547 44.2061 33.488 44.2552C33.8315 44.3042 34.1751 44.4121 34.4797 44.569C34.7839 44.7163 35.0783 44.9325 35.3237 45.1779C35.5594 45.4232 35.7654 45.7177 35.9126 46.0315C36.0695 46.3357 36.1677 46.6889 36.2167 47.0227C36.2561 47.3663 36.2464 47.7297 36.1774 48.063C36.1089 48.3968 35.9811 48.7403 35.8047 49.0348C35.6376 49.3292 35.4019 49.614 35.1468 49.8399C34.8917 50.0653 34.5876 50.2519 34.2635 50.3894C33.9496 50.5167 33.5964 50.6052 33.2626 50.6251C32.9191 50.6542 32.5556 50.6251 32.2223 50.5367C31.8885 50.4482 31.5644 50.301 31.27 50.1144C30.9852 49.9278 30.7205 49.6825 30.5047 49.4177C30.2982 49.1426 30.1219 48.8288 30.0038 48.5047C29.8862 48.1811 29.8274 47.8279 29.8177 47.4843C29.8177 47.1408 29.8668 46.7774 29.9649 46.4538C30.0728 46.1297 30.2394 45.8056 30.4357 45.5311C30.6417 45.2561 30.8973 45.001 31.1815 44.8047C31.4566 44.6084 31.7904 44.4515 32.114 44.3533C32.438 44.2552 32.801 44.2061 33.1445 44.2158C33.488 44.2352 33.8418 44.3042 34.1653 44.4218C34.4797 44.5496 34.8033 44.726 35.0584 44.9422C35.3237 45.1579 35.5691 45.4329 35.7454 45.7274C35.932 46.0121 36.0695 46.3556 36.1482 46.6792C36.2265 47.013 36.2561 47.376 36.2265 47.7195C36.1973 48.063 36.0992 48.4168 35.9617 48.7209C35.8242 49.0348 35.6279 49.3389 35.3922 49.5945C35.1668 49.8496 34.627 50.0853 34.5779 50.2325C34.5677 50.301 34.6561 50.3107 34.6367 50.3894C34.5482 50.8602 31.7019 53.6477 30.5242 54.8352C29.6802 55.6894 29.0422 56.1505 28.2862 56.9556C27.4028 57.8881 26.1172 59.5366 25.5677 60.1352C25.332 60.3806 25.2538 60.4987 25.0672 60.6459C24.8806 60.7931 24.6746 60.9204 24.4584 61.0186C24.2427 61.1167 24.0167 61.1857 23.7816 61.2348C23.5459 61.2742 23.3103 61.2936 23.0746 61.2839C22.839 61.2742 22.5936 61.2251 22.3681 61.1561C22.1422 61.0973 21.9265 60.9991 21.7205 60.8713C21.514 60.7538 21.3279 60.6066 21.151 60.4399C20.9844 60.2727 20.8371 60.0862 20.7093 59.8802C20.5918 59.6839 20.4834 59.4584 20.4149 59.2422C20.3362 59.0168 20.2973 58.7714 20.2774 58.5357C20.258 58.3001 20.2774 58.0644 20.3167 57.8288C20.3561 57.5936 20.4246 57.3579 20.5228 57.1519C20.6112 56.9357 20.8862 56.5334 20.8862 56.5334Z" fill="white"/>
</mask>
<g mask="url(#mask64_14_388)">
<path d="M129.32 -23.3199H-23.3199V129.32H129.32V-23.3199Z" fill="#1E1E1E"/>
</g>
</g>
</g>
</g>
</g>
</g>
<defs>
<clipPath id="clip0_14_388">
<rect width="106" height="106" fill="white"/>
</clipPath>
</defs>
</svg>
