<svg xmlns="http://www.w3.org/2000/svg" xmlns:xlink="http://www.w3.org/1999/xlink" width="1080" zoomAndPan="magnify" viewBox="0 0 810 809.999993" height="1080" preserveAspectRatio="xMidYMid meet" version="1.0"><defs><clipPath id="5a32d48523"><path d="M 53 154 L 653.710938 154 L 653.710938 767 L 53 767 Z M 53 154 " clip-rule="nonzero"/></clipPath><clipPath id="b39fcebf48"><path d="M 55.089844 721.535156 C 63.363281 695.917969 68.578125 683.109375 74.019531 672.792969 C 79.460938 662.476562 85.921875 653.410156 92.609375 643.320312 C 99.976562 632.328125 107.34375 622.011719 116.523438 609.429688 C 128.539062 593.21875 142.484375 576.21875 158.578125 554.226562 C 181.703125 522.714844 218.996094 470.347656 241.210938 437.25 C 257.082031 413.671875 269.324219 392.359375 280.546875 375.699219 C 288.59375 363.910156 294.375 355.410156 301.628906 346 C 308.882812 336.707031 315.683594 327.410156 324.183594 319.476562 C 332.914062 311.203125 343.226562 303.378906 353.65625 297.257812 C 363.632812 291.136719 374.285156 285.925781 385.28125 282.523438 C 396.277344 279.011719 408.066406 277.195312 419.628906 276.289062 C 431.300781 275.382812 443.089844 274.816406 455.21875 277.308594 C 468.820312 280.144531 484.238281 287.058594 496.820312 293.746094 C 508.609375 300.09375 518.808594 307.460938 528.785156 315.734375 C 538.988281 324.238281 548.394531 334.097656 557.347656 344.1875 C 566.304688 354.386719 575.371094 364.929688 582.285156 376.71875 C 589.199219 388.621094 595.09375 402.335938 598.609375 415.257812 C 601.894531 427.386719 603.824219 439.628906 603.144531 451.871094 C 602.351562 464.339844 599.96875 478.621094 593.847656 489.277344 C 587.839844 499.707031 576.847656 507.300781 567.097656 515.121094 C 557.007812 523.167969 545.789062 531.21875 534.226562 536.769531 C 522.890625 542.210938 510.648438 545.386719 498.40625 548.445312 C 485.824219 551.621094 473.242188 554.453125 459.640625 555.359375 C 444.339844 556.269531 424.953125 556.949219 411.125 552.980469 C 399.335938 549.691406 389.363281 544.59375 380.632812 536.542969 C 370.660156 527.363281 361.25 511.71875 356.265625 499.023438 C 351.84375 487.691406 350.824219 476.242188 350.371094 464.339844 C 349.804688 451.757812 350.484375 437.136719 354.109375 425.007812 C 357.511719 413.558594 364.3125 403.242188 370.773438 393.269531 C 377.121094 383.519531 383.128906 376.492188 392.421875 365.722656 C 406.933594 348.949219 429.714844 326.050781 451.140625 304.058594 C 476.53125 278.101562 511.328125 244.550781 535.132812 219.839844 C 553.269531 201.023438 571.179688 179.488281 582.285156 169.285156 C 587.839844 164.296875 591.015625 161.351562 595.546875 158.96875 C 599.515625 156.929688 603.597656 155.683594 607.789062 155.117188 C 611.984375 154.550781 616.40625 154.664062 620.597656 155.457031 C 624.792969 156.25 628.988281 157.722656 632.726562 159.765625 C 636.355469 161.917969 639.871094 164.636719 642.703125 167.8125 C 645.535156 170.984375 648.03125 174.726562 649.730469 178.582031 C 651.429688 182.433594 652.453125 186.855469 652.90625 191.050781 C 653.246094 195.242188 652.90625 199.777344 651.882812 203.859375 C 650.863281 207.9375 649.050781 212.132812 646.785156 215.644531 C 644.628906 219.273438 641.570312 222.675781 638.28125 225.28125 C 634.996094 228 631.140625 230.15625 627.175781 231.628906 C 623.207031 233.101562 618.785156 234.007812 614.59375 234.121094 C 610.285156 234.234375 605.863281 233.667969 601.78125 232.421875 C 597.703125 231.289062 593.734375 229.25 590.222656 226.753906 C 586.820312 224.375 583.648438 221.199219 581.152344 217.800781 C 578.660156 214.285156 576.617188 210.320312 575.371094 206.238281 C 574.125 202.269531 573.558594 197.738281 573.558594 193.542969 C 573.671875 189.347656 574.578125 184.929688 575.9375 180.960938 C 577.414062 176.992188 579.566406 173.027344 582.285156 169.738281 C 584.894531 166.453125 588.179688 163.390625 591.808594 161.125 C 595.320312 158.855469 599.515625 157.042969 603.597656 156.023438 C 607.675781 154.890625 612.097656 154.550781 616.40625 154.890625 C 620.597656 155.230469 624.90625 156.25 628.875 157.949219 C 632.726562 159.539062 636.582031 162.03125 639.640625 164.75 C 642.816406 167.585938 645.648438 171.097656 647.804688 174.726562 C 649.84375 178.46875 651.429688 182.660156 652.222656 186.855469 C 653.019531 190.9375 653.246094 195.46875 652.679688 199.664062 C 652.109375 203.859375 650.75 208.164062 648.9375 211.90625 C 647.125 215.757812 644.402344 219.386719 641.457031 222.449219 C 638.507812 225.394531 634.089844 226.753906 631.027344 229.929688 C 627.855469 233.328125 627.855469 236.390625 623.09375 242.398438 C 605.636719 264.160156 514.730469 352.800781 487.296875 381.820312 C 475.054688 394.628906 469.386719 400.636719 461.339844 409.929688 C 453.632812 418.773438 446.378906 426.933594 439.691406 436.339844 C 432.777344 445.976562 418.039062 460.597656 420.761719 467.171875 C 423.367188 473.746094 443.089844 476.015625 454.652344 476.242188 C 466.78125 476.355469 480.269531 471.367188 491.945312 467.285156 C 503.054688 463.320312 519.601562 460.710938 523.457031 452.664062 C 527.425781 444.390625 519.828125 428.179688 514.617188 417.867188 C 509.515625 407.777344 500.898438 399.730469 492.851562 391.339844 C 484.804688 382.726562 476.757812 373.089844 466.214844 367.082031 C 454.878906 360.621094 439.351562 355.070312 426.429688 355.070312 C 414.1875 355.070312 400.8125 360.054688 390.609375 366.0625 C 380.859375 371.730469 373.492188 380.914062 366.125 389.414062 C 358.644531 398.027344 353.65625 405.964844 345.835938 417.296875 C 334.046875 434.300781 320.558594 457.199219 303.214844 482.136719 C 278.617188 517.273438 235.996094 573.949219 210.492188 607.390625 C 193.265625 629.945312 178.300781 647.628906 166.171875 663.613281 C 157.445312 675.058594 150.871094 683.335938 144.183594 693.648438 C 137.496094 704.078125 130.808594 715.753906 126.160156 725.839844 C 122.304688 734.34375 120.378906 744.542969 117.320312 749.871094 C 115.617188 752.933594 114.144531 754.519531 112.21875 756.445312 C 110.292969 758.375 108.023438 760.074219 105.644531 761.546875 C 103.261719 762.90625 100.65625 764.039062 98.050781 764.949219 C 95.441406 765.742188 92.609375 766.195312 89.886719 766.421875 C 87.167969 766.535156 84.21875 766.308594 81.613281 765.855469 C 78.894531 765.289062 76.171875 764.496094 73.679688 763.359375 C 71.183594 762.226562 68.691406 760.753906 66.539062 759.054688 C 64.382812 757.351562 62.34375 755.3125 60.644531 753.160156 C 59.054688 750.890625 57.582031 748.511719 56.449219 746.019531 C 55.316406 743.523438 54.523438 740.691406 53.957031 738.082031 C 53.5 735.363281 53.386719 732.527344 53.5 729.695312 C 53.730469 726.976562 55.089844 721.535156 55.089844 721.535156 " clip-rule="nonzero"/></clipPath><clipPath id="c90c283e3d"><path d="M 0.28125 0.320312 L 600.28125 0.320312 L 600.28125 612.558594 L 0.28125 612.558594 Z M 0.28125 0.320312 " clip-rule="nonzero"/></clipPath><clipPath id="3de94a4b7a"><path d="M 2.089844 567.535156 C 10.363281 541.917969 15.578125 529.109375 21.019531 518.792969 C 26.460938 508.476562 32.921875 499.410156 39.609375 489.320312 C 46.976562 478.328125 54.34375 468.011719 63.523438 455.429688 C 75.539062 439.21875 89.484375 422.21875 105.578125 400.226562 C 128.703125 368.714844 165.996094 316.347656 188.210938 283.25 C 204.082031 259.671875 216.324219 238.359375 227.546875 221.699219 C 235.59375 209.910156 241.375 201.410156 248.628906 192 C 255.882812 182.707031 262.683594 173.410156 271.183594 165.476562 C 279.914062 157.203125 290.226562 149.378906 300.65625 143.257812 C 310.632812 137.136719 321.285156 131.925781 332.28125 128.523438 C 343.277344 125.011719 355.066406 123.195312 366.628906 122.289062 C 378.300781 121.382812 390.089844 120.816406 402.21875 123.308594 C 415.820312 126.144531 431.238281 133.058594 443.820312 139.746094 C 455.609375 146.09375 465.808594 153.460938 475.785156 161.734375 C 485.988281 170.238281 495.394531 180.097656 504.347656 190.1875 C 513.304688 200.386719 522.371094 210.929688 529.285156 222.71875 C 536.199219 234.621094 542.09375 248.335938 545.609375 261.257812 C 548.894531 273.386719 550.824219 285.628906 550.144531 297.871094 C 549.351562 310.339844 546.96875 324.621094 540.847656 335.277344 C 534.839844 345.707031 523.847656 353.300781 514.097656 361.121094 C 504.007812 369.167969 492.789062 377.21875 481.226562 382.769531 C 469.890625 388.210938 457.648438 391.386719 445.40625 394.445312 C 432.824219 397.621094 420.242188 400.453125 406.640625 401.359375 C 391.339844 402.269531 371.953125 402.949219 358.125 398.980469 C 346.335938 395.691406 336.363281 390.59375 327.632812 382.542969 C 317.660156 373.363281 308.25 357.71875 303.265625 345.023438 C 298.84375 333.691406 297.824219 322.242188 297.371094 310.339844 C 296.804688 297.757812 297.484375 283.136719 301.109375 271.007812 C 304.511719 259.558594 311.3125 249.242188 317.773438 239.269531 C 324.121094 229.519531 330.128906 222.492188 339.421875 211.722656 C 353.933594 194.949219 376.714844 172.050781 398.140625 150.058594 C 423.53125 124.101562 458.328125 90.550781 482.132812 65.839844 C 500.269531 47.023438 518.179688 25.488281 529.285156 15.285156 C 534.839844 10.296875 538.015625 7.351562 542.546875 4.96875 C 546.515625 2.929688 550.597656 1.683594 554.789062 1.117188 C 558.984375 0.550781 563.40625 0.664062 567.597656 1.457031 C 571.792969 2.25 575.988281 3.722656 579.726562 5.765625 C 583.355469 7.917969 586.871094 10.636719 589.703125 13.8125 C 592.535156 16.984375 595.03125 20.726562 596.730469 24.582031 C 598.429688 28.433594 599.453125 32.855469 599.90625 37.050781 C 600.246094 41.242188 599.90625 45.777344 598.882812 49.859375 C 597.863281 53.9375 596.050781 58.132812 593.785156 61.644531 C 591.628906 65.273438 588.570312 68.675781 585.28125 71.28125 C 581.996094 74 578.140625 76.15625 574.175781 77.628906 C 570.207031 79.101562 565.785156 80.007812 561.59375 80.121094 C 557.285156 80.234375 552.863281 79.667969 548.78125 78.421875 C 544.703125 77.289062 540.734375 75.25 537.222656 72.753906 C 533.820312 70.375 530.648438 67.199219 528.152344 63.800781 C 525.660156 60.285156 523.617188 56.320312 522.371094 52.238281 C 521.125 48.269531 520.558594 43.738281 520.558594 39.542969 C 520.671875 35.347656 521.578125 30.929688 522.9375 26.960938 C 524.414062 22.992188 526.566406 19.027344 529.285156 15.738281 C 531.894531 12.453125 535.179688 9.390625 538.808594 7.125 C 542.320312 4.855469 546.515625 3.042969 550.597656 2.023438 C 554.675781 0.890625 559.097656 0.550781 563.40625 0.890625 C 567.597656 1.230469 571.90625 2.25 575.875 3.949219 C 579.726562 5.539062 583.582031 8.03125 586.640625 10.75 C 589.816406 13.585938 592.648438 17.097656 594.804688 20.726562 C 596.84375 24.46875 598.429688 28.660156 599.222656 32.855469 C 600.019531 36.9375 600.246094 41.46875 599.679688 45.664062 C 599.109375 49.859375 597.75 54.164062 595.9375 57.90625 C 594.125 61.757812 591.402344 65.386719 588.457031 68.449219 C 585.507812 71.394531 581.089844 72.753906 578.027344 75.929688 C 574.855469 79.328125 574.855469 82.390625 570.09375 88.398438 C 552.636719 110.160156 461.730469 198.800781 434.296875 227.820312 C 422.054688 240.628906 416.386719 246.636719 408.339844 255.929688 C 400.632812 264.773438 393.378906 272.933594 386.691406 282.339844 C 379.777344 291.976562 365.039062 306.597656 367.761719 313.171875 C 370.367188 319.746094 390.089844 322.015625 401.652344 322.242188 C 413.78125 322.355469 427.269531 317.367188 438.945312 313.285156 C 450.054688 309.320312 466.601562 306.710938 470.457031 298.664062 C 474.425781 290.390625 466.828125 274.179688 461.617188 263.867188 C 456.515625 253.777344 447.898438 245.730469 439.851562 237.339844 C 431.804688 228.726562 423.757812 219.089844 413.214844 213.082031 C 401.878906 206.621094 386.351562 201.070312 373.429688 201.070312 C 361.1875 201.070312 347.8125 206.054688 337.609375 212.0625 C 327.859375 217.730469 320.492188 226.914062 313.125 235.414062 C 305.644531 244.027344 300.65625 251.964844 292.835938 263.296875 C 281.046875 280.300781 267.558594 303.199219 250.214844 328.136719 C 225.617188 363.273438 182.996094 419.949219 157.492188 453.390625 C 140.265625 475.945312 125.300781 493.628906 113.171875 509.613281 C 104.445312 521.058594 97.871094 529.335938 91.183594 539.648438 C 84.496094 550.078125 77.808594 561.753906 73.160156 571.839844 C 69.304688 580.34375 67.378906 590.542969 64.320312 595.871094 C 62.617188 598.933594 61.144531 600.519531 59.21875 602.445312 C 57.292969 604.375 55.023438 606.074219 52.644531 607.546875 C 50.261719 608.90625 47.65625 610.039062 45.050781 610.949219 C 42.441406 611.742188 39.609375 612.195312 36.886719 612.421875 C 34.167969 612.535156 31.21875 612.308594 28.613281 611.855469 C 25.894531 611.289062 23.171875 610.496094 20.679688 609.359375 C 18.183594 608.226562 15.691406 606.753906 13.539062 605.054688 C 11.382812 603.351562 9.34375 601.3125 7.644531 599.160156 C 6.054688 596.890625 4.582031 594.511719 3.449219 592.019531 C 2.316406 589.523438 1.523438 586.691406 0.957031 584.082031 C 0.5 581.363281 0.386719 578.527344 0.5 575.695312 C 0.730469 572.976562 2.089844 567.535156 2.089844 567.535156 " clip-rule="nonzero"/></clipPath><clipPath id="06b8749de3"><rect x="0" width="601" y="0" height="613"/></clipPath><clipPath id="f2499a4de5"><path d="M 4.191406 681.515625 L 134.617188 681.515625 L 134.617188 807 L 4.191406 807 Z M 4.191406 681.515625 " clip-rule="nonzero"/></clipPath><clipPath id="86b8f0f5f0"><path d="M 59.621094 689.34375 C 75.71875 702.265625 86.828125 714.847656 96.234375 723.234375 C 105.191406 731.28125 118.453125 740.125 124.007812 745.679688 C 126.613281 748.398438 127.746094 750.097656 129.222656 752.59375 C 130.695312 754.972656 131.941406 757.691406 132.734375 760.527344 C 133.640625 763.246094 134.09375 766.195312 134.320312 769.027344 C 134.433594 771.863281 134.207031 774.921875 133.640625 777.757812 C 133.1875 780.476562 132.28125 783.3125 131.035156 785.917969 C 129.902344 788.636719 128.3125 791.132812 126.5 793.398438 C 124.6875 795.664062 122.644531 797.707031 120.378906 799.40625 C 118.113281 801.21875 115.503906 802.695312 112.898438 803.941406 C 110.292969 805.074219 107.34375 805.980469 104.625 806.433594 C 101.789062 806.886719 98.730469 807.113281 95.894531 806.886719 C 93.0625 806.660156 90.113281 806.09375 87.394531 805.300781 C 84.671875 804.394531 81.953125 803.148438 79.460938 801.671875 C 77.078125 800.199219 72.546875 796.460938 72.660156 796.234375 C 72.886719 796.007812 88.1875 805.300781 88.074219 805.414062 C 87.960938 805.640625 80.707031 802.582031 77.53125 800.425781 C 74.472656 798.160156 71.523438 795.324219 69.257812 792.152344 C 66.992188 789.089844 65.175781 785.464844 64.042969 781.835938 C 62.796875 778.097656 62.230469 774.128906 62.34375 770.273438 C 62.457031 766.421875 63.136719 762.453125 64.382812 758.828125 C 65.742188 755.199219 67.671875 751.6875 70.050781 748.625 C 72.429688 745.679688 75.492188 742.84375 78.664062 740.804688 C 81.953125 738.648438 85.695312 737.0625 89.320312 736.15625 C 93.0625 735.136719 97.140625 734.796875 100.996094 735.023438 C 104.738281 735.363281 108.816406 736.269531 112.332031 737.742188 C 115.84375 739.332031 119.246094 741.484375 122.191406 743.976562 C 125.027344 746.472656 127.632812 749.644531 129.5625 753.046875 C 131.488281 756.332031 132.847656 760.1875 133.640625 763.925781 C 134.433594 767.667969 134.546875 771.75 133.980469 775.601562 C 133.527344 779.34375 132.394531 783.3125 130.695312 786.710938 C 128.992188 790.113281 126.613281 793.511719 124.007812 796.234375 C 121.285156 798.953125 118 801.332031 114.597656 803.148438 C 111.199219 804.847656 107.230469 806.09375 103.488281 806.546875 C 99.636719 807.113281 95.554688 807.113281 91.816406 806.320312 C 88.074219 805.640625 84.21875 804.28125 80.820312 802.46875 C 77.53125 800.539062 74.246094 798.046875 71.75 795.210938 C 69.144531 792.378906 66.878906 788.976562 65.402344 785.464844 C 63.816406 781.949219 62.796875 777.984375 62.457031 774.128906 C 62.117188 770.386719 62.457031 766.308594 63.363281 762.566406 C 64.269531 758.828125 65.855469 755.085938 67.898438 751.800781 C 69.9375 748.511719 72.546875 745.453125 75.605469 743.070312 C 78.550781 740.691406 82.066406 738.648438 85.695312 737.289062 C 89.207031 735.929688 92.496094 734.570312 97.027344 735.023438 C 104.285156 735.589844 118.679688 741.710938 124.007812 745.679688 C 126.839844 747.832031 127.746094 750.097656 129.222656 752.59375 C 130.695312 754.972656 131.941406 757.691406 132.734375 760.527344 C 133.640625 763.246094 134.09375 766.195312 134.320312 769.027344 C 134.433594 771.863281 134.207031 774.921875 133.640625 777.644531 C 133.1875 780.476562 132.28125 783.3125 131.035156 785.917969 C 129.902344 788.523438 128.3125 791.132812 126.5 793.398438 C 124.6875 795.664062 122.644531 797.707031 120.378906 799.40625 C 118.113281 801.21875 115.503906 802.695312 112.898438 803.941406 C 110.292969 805.074219 107.34375 805.980469 104.625 806.433594 C 101.789062 806.886719 98.730469 807.113281 95.894531 806.886719 C 93.0625 806.660156 90.113281 806.09375 87.394531 805.300781 C 84.671875 804.394531 81.953125 803.148438 79.460938 801.671875 C 77.078125 800.199219 75.378906 798.839844 72.660156 796.234375 C 67.671875 791.359375 60.871094 781.042969 52.933594 773.109375 C 43.1875 763.246094 24.03125 748.625 17.230469 742.277344 C 14.394531 739.671875 13.148438 738.648438 11.5625 736.496094 C 9.863281 734.34375 8.386719 731.960938 7.367188 729.46875 C 6.234375 726.976562 5.441406 724.253906 4.988281 721.648438 C 4.535156 718.925781 4.421875 716.09375 4.535156 713.371094 C 4.761719 710.765625 5.328125 707.933594 6.121094 705.4375 C 6.914062 702.832031 8.160156 700.222656 9.523438 697.957031 C 10.996094 695.691406 12.695312 693.421875 14.734375 691.609375 C 16.664062 689.683594 18.816406 687.980469 21.195312 686.621094 C 23.464844 685.261719 26.070312 684.128906 28.679688 683.335938 C 31.285156 682.542969 34.003906 682.085938 36.726562 681.859375 C 39.445312 681.746094 42.28125 681.972656 44.886719 682.542969 C 47.609375 682.996094 50.214844 683.902344 52.707031 685.035156 C 55.203125 686.167969 59.621094 689.34375 59.621094 689.34375 " clip-rule="nonzero"/></clipPath><clipPath id="165683b418"><path d="M 0.320312 0.601562 L 130.617188 0.601562 L 130.617188 126 L 0.320312 126 Z M 0.320312 0.601562 " clip-rule="nonzero"/></clipPath><clipPath id="aeed15c734"><path d="M 55.621094 8.34375 C 71.71875 21.265625 82.828125 33.847656 92.234375 42.234375 C 101.191406 50.28125 114.453125 59.125 120.007812 64.679688 C 122.613281 67.398438 123.746094 69.097656 125.222656 71.59375 C 126.695312 73.972656 127.941406 76.691406 128.734375 79.527344 C 129.640625 82.246094 130.09375 85.195312 130.320312 88.027344 C 130.433594 90.863281 130.207031 93.921875 129.640625 96.757812 C 129.1875 99.476562 128.28125 102.3125 127.035156 104.917969 C 125.902344 107.636719 124.3125 110.132812 122.5 112.398438 C 120.6875 114.664062 118.644531 116.707031 116.378906 118.40625 C 114.113281 120.21875 111.503906 121.695312 108.898438 122.941406 C 106.292969 124.074219 103.34375 124.980469 100.625 125.433594 C 97.789062 125.886719 94.730469 126.113281 91.894531 125.886719 C 89.0625 125.660156 86.113281 125.09375 83.394531 124.300781 C 80.671875 123.394531 77.953125 122.148438 75.460938 120.671875 C 73.078125 119.199219 68.546875 115.460938 68.660156 115.234375 C 68.886719 115.007812 84.1875 124.300781 84.074219 124.414062 C 83.960938 124.640625 76.707031 121.582031 73.53125 119.425781 C 70.472656 117.160156 67.523438 114.324219 65.257812 111.152344 C 62.992188 108.089844 61.175781 104.464844 60.042969 100.835938 C 58.796875 97.097656 58.230469 93.128906 58.34375 89.273438 C 58.457031 85.421875 59.136719 81.453125 60.382812 77.828125 C 61.742188 74.199219 63.671875 70.6875 66.050781 67.625 C 68.429688 64.679688 71.492188 61.84375 74.664062 59.804688 C 77.953125 57.648438 81.695312 56.0625 85.320312 55.15625 C 89.0625 54.136719 93.140625 53.796875 96.996094 54.023438 C 100.738281 54.363281 104.816406 55.269531 108.332031 56.742188 C 111.84375 58.332031 115.246094 60.484375 118.191406 62.976562 C 121.027344 65.472656 123.632812 68.644531 125.5625 72.046875 C 127.488281 75.332031 128.847656 79.1875 129.640625 82.925781 C 130.433594 86.667969 130.546875 90.75 129.980469 94.601562 C 129.527344 98.34375 128.394531 102.3125 126.695312 105.710938 C 124.992188 109.113281 122.613281 112.511719 120.007812 115.234375 C 117.285156 117.953125 114 120.332031 110.597656 122.148438 C 107.199219 123.847656 103.230469 125.09375 99.488281 125.546875 C 95.636719 126.113281 91.554688 126.113281 87.816406 125.320312 C 84.074219 124.640625 80.21875 123.28125 76.820312 121.46875 C 73.53125 119.539062 70.246094 117.046875 67.75 114.210938 C 65.144531 111.378906 62.878906 107.976562 61.402344 104.464844 C 59.816406 100.949219 58.796875 96.984375 58.457031 93.128906 C 58.117188 89.386719 58.457031 85.308594 59.363281 81.566406 C 60.269531 77.828125 61.855469 74.085938 63.898438 70.800781 C 65.9375 67.511719 68.546875 64.453125 71.605469 62.070312 C 74.550781 59.691406 78.066406 57.648438 81.695312 56.289062 C 85.207031 54.929688 88.496094 53.570312 93.027344 54.023438 C 100.285156 54.589844 114.679688 60.710938 120.007812 64.679688 C 122.839844 66.832031 123.746094 69.097656 125.222656 71.59375 C 126.695312 73.972656 127.941406 76.691406 128.734375 79.527344 C 129.640625 82.246094 130.09375 85.195312 130.320312 88.027344 C 130.433594 90.863281 130.207031 93.921875 129.640625 96.644531 C 129.1875 99.476562 128.28125 102.3125 127.035156 104.917969 C 125.902344 107.523438 124.3125 110.132812 122.5 112.398438 C 120.6875 114.664062 118.644531 116.707031 116.378906 118.40625 C 114.113281 120.21875 111.503906 121.695312 108.898438 122.941406 C 106.292969 124.074219 103.34375 124.980469 100.625 125.433594 C 97.789062 125.886719 94.730469 126.113281 91.894531 125.886719 C 89.0625 125.660156 86.113281 125.09375 83.394531 124.300781 C 80.671875 123.394531 77.953125 122.148438 75.460938 120.671875 C 73.078125 119.199219 71.378906 117.839844 68.660156 115.234375 C 63.671875 110.359375 56.871094 100.042969 48.933594 92.109375 C 39.1875 82.246094 20.03125 67.625 13.230469 61.277344 C 10.394531 58.671875 9.148438 57.648438 7.5625 55.496094 C 5.863281 53.34375 4.386719 50.960938 3.367188 48.46875 C 2.234375 45.976562 1.441406 43.253906 0.988281 40.648438 C 0.535156 37.925781 0.421875 35.09375 0.535156 32.371094 C 0.761719 29.765625 1.328125 26.933594 2.121094 24.4375 C 2.914062 21.832031 4.160156 19.222656 5.523438 16.957031 C 6.996094 14.691406 8.695312 12.421875 10.734375 10.609375 C 12.664062 8.683594 14.816406 6.980469 17.195312 5.621094 C 19.464844 4.261719 22.070312 3.128906 24.679688 2.335938 C 27.285156 1.542969 30.003906 1.085938 32.726562 0.859375 C 35.445312 0.746094 38.28125 0.972656 40.886719 1.542969 C 43.609375 1.996094 46.214844 2.902344 48.707031 4.035156 C 51.203125 5.167969 55.621094 8.34375 55.621094 8.34375 " clip-rule="nonzero"/></clipPath><clipPath id="008d5d9c88"><rect x="0" width="131" y="0" height="126"/></clipPath><clipPath id="44bfc45cd2"><path d="M 46.46875 686.480469 L 112 686.480469 L 112 753.617188 L 46.46875 753.617188 Z M 46.46875 686.480469 " clip-rule="nonzero"/></clipPath><clipPath id="1b3971c24e"><path d="M 111.878906 710.085938 C 111.992188 731.167969 109.496094 736.609375 106.324219 740.691406 C 103.148438 744.769531 98.503906 748.398438 93.742188 750.550781 C 88.980469 752.707031 83.199219 753.726562 77.984375 753.386719 C 72.773438 753.160156 67.105469 751.34375 62.683594 748.625 C 58.261719 746.019531 54.070312 741.824219 51.347656 737.289062 C 48.742188 732.871094 46.925781 727.203125 46.585938 722.101562 C 46.359375 716.886719 47.382812 710.992188 49.535156 706.34375 C 51.6875 701.585938 55.316406 696.9375 59.394531 693.761719 C 63.476562 690.476562 68.917969 688.09375 74.019531 687.1875 C 79.121094 686.167969 85.011719 686.621094 90 688.09375 C 94.875 689.683594 103.601562 696.371094 103.601562 696.371094 " clip-rule="nonzero"/></clipPath><clipPath id="4d31f7bb58"><path d="M 0.46875 0.480469 L 66 0.480469 L 66 67.617188 L 0.46875 67.617188 Z M 0.46875 0.480469 " clip-rule="nonzero"/></clipPath><clipPath id="02c4c175d9"><path d="M 65.878906 24.085938 C 65.992188 45.167969 63.496094 50.609375 60.324219 54.691406 C 57.148438 58.769531 52.503906 62.398438 47.742188 64.550781 C 42.980469 66.707031 37.199219 67.726562 31.984375 67.386719 C 26.773438 67.160156 21.105469 65.34375 16.683594 62.625 C 12.261719 60.019531 8.070312 55.824219 5.347656 51.289062 C 2.742188 46.871094 0.925781 41.203125 0.585938 36.101562 C 0.359375 30.886719 1.382812 24.992188 3.535156 20.34375 C 5.6875 15.585938 9.316406 10.9375 13.394531 7.761719 C 17.476562 4.476562 22.917969 2.09375 28.019531 1.1875 C 33.121094 0.167969 39.011719 0.621094 44 2.09375 C 48.875 3.683594 57.601562 10.371094 57.601562 10.371094 " clip-rule="nonzero"/></clipPath><clipPath id="ca7826b80b"><rect x="0" width="66" y="0" height="68"/></clipPath><clipPath id="b1d6176f0a"><path d="M 38.246094 601.539062 L 180.863281 601.539062 L 180.863281 764 L 38.246094 764 Z M 38.246094 601.539062 " clip-rule="nonzero"/></clipPath><clipPath id="9728b99b7f"><path d="M 172.632812 657.152344 C 104.738281 739.105469 86.148438 760.1875 75.492188 763.359375 C 70.84375 764.722656 67.558594 762.679688 63.816406 761.433594 C 60.078125 760.300781 56.449219 758.375 53.273438 755.992188 C 50.101562 753.613281 47.269531 750.664062 45 747.378906 C 42.847656 744.203125 41.035156 740.351562 40.011719 736.609375 C 38.878906 732.871094 38.425781 728.789062 38.652344 724.820312 C 38.878906 720.96875 39.671875 716.886719 41.148438 713.257812 C 42.507812 709.632812 44.660156 706.003906 47.152344 703.058594 C 49.761719 699.996094 52.820312 697.277344 56.222656 695.238281 C 59.507812 693.195312 63.363281 691.722656 67.21875 690.816406 C 71.070312 689.910156 75.152344 689.683594 79.121094 690.136719 C 82.972656 690.476562 86.941406 691.609375 90.566406 693.195312 C 94.082031 694.78125 97.59375 697.164062 100.429688 699.769531 C 103.261719 702.492188 105.757812 705.777344 107.683594 709.179688 C 109.496094 712.691406 110.859375 716.660156 111.539062 720.515625 C 112.21875 724.367188 112.21875 728.449219 111.539062 732.300781 C 110.972656 736.15625 109.609375 740.125 107.796875 743.636719 C 105.984375 747.039062 103.488281 750.4375 100.769531 753.160156 C 97.9375 755.878906 94.421875 758.148438 90.90625 759.847656 C 87.394531 761.546875 83.425781 762.679688 79.460938 763.132812 C 75.605469 763.585938 71.410156 763.359375 67.671875 762.566406 C 63.816406 761.660156 59.964844 760.1875 56.5625 758.148438 C 53.160156 756.21875 49.988281 753.5 47.496094 750.550781 C 44.886719 747.605469 42.734375 743.976562 41.261719 740.351562 C 39.785156 736.722656 38.878906 732.757812 38.652344 728.789062 C 38.425781 724.933594 38.878906 720.742188 39.898438 717 C 40.917969 713.257812 42.621094 709.40625 44.773438 706.230469 C 47.039062 702.945312 49.875 699.882812 52.933594 697.503906 C 55.996094 695.125 59.734375 693.195312 63.363281 691.949219 C 67.105469 690.589844 74.699219 689.003906 75.152344 689.910156 C 75.605469 691.269531 54.183594 706.230469 52.820312 704.757812 C 49.988281 701.8125 102.355469 635.5 115.164062 620.3125 C 120.265625 614.304688 123.101562 611.128906 126.726562 608.410156 C 129.222656 606.480469 131.261719 605.347656 133.753906 604.328125 C 136.25 603.308594 138.96875 602.628906 141.574219 602.175781 C 144.296875 601.722656 147.015625 601.722656 149.738281 601.949219 C 152.457031 602.175781 155.179688 602.742188 157.671875 603.648438 C 160.277344 604.554688 162.773438 605.6875 165.039062 607.164062 C 167.308594 608.636719 169.347656 610.449219 171.273438 612.375 C 173.085938 614.417969 174.789062 616.570312 176.035156 618.949219 C 177.394531 621.332031 178.414062 623.824219 179.207031 626.433594 C 179.890625 629.039062 180.34375 631.871094 180.457031 634.480469 C 180.457031 637.199219 180.230469 640.035156 179.664062 642.640625 C 179.09375 645.25 178.1875 647.855469 177.054688 650.347656 C 175.808594 652.730469 172.632812 657.152344 172.632812 657.152344 " clip-rule="nonzero"/></clipPath><clipPath id="628b2d0958"><path d="M 0.398438 0.679688 L 142.480469 0.679688 L 142.480469 163 L 0.398438 163 Z M 0.398438 0.679688 " clip-rule="nonzero"/></clipPath><clipPath id="76068f43d1"><path d="M 134.632812 56.152344 C 66.738281 138.105469 48.148438 159.1875 37.492188 162.359375 C 32.84375 163.722656 29.558594 161.679688 25.816406 160.433594 C 22.078125 159.300781 18.449219 157.375 15.273438 154.992188 C 12.101562 152.613281 9.269531 149.664062 7 146.378906 C 4.847656 143.203125 3.035156 139.351562 2.011719 135.609375 C 0.878906 131.871094 0.425781 127.789062 0.652344 123.820312 C 0.878906 119.96875 1.671875 115.886719 3.148438 112.257812 C 4.507812 108.632812 6.660156 105.003906 9.152344 102.058594 C 11.761719 98.996094 14.820312 96.277344 18.222656 94.238281 C 21.507812 92.195312 25.363281 90.722656 29.21875 89.816406 C 33.070312 88.910156 37.152344 88.683594 41.121094 89.136719 C 44.972656 89.476562 48.941406 90.609375 52.566406 92.195312 C 56.082031 93.78125 59.59375 96.164062 62.429688 98.769531 C 65.261719 101.492188 67.757812 104.777344 69.683594 108.179688 C 71.496094 111.691406 72.859375 115.660156 73.539062 119.515625 C 74.21875 123.367188 74.21875 127.449219 73.539062 131.300781 C 72.972656 135.15625 71.609375 139.125 69.796875 142.636719 C 67.984375 146.039062 65.488281 149.4375 62.769531 152.160156 C 59.9375 154.878906 56.421875 157.148438 52.90625 158.847656 C 49.394531 160.546875 45.425781 161.679688 41.460938 162.132812 C 37.605469 162.585938 33.410156 162.359375 29.671875 161.566406 C 25.816406 160.660156 21.964844 159.1875 18.5625 157.148438 C 15.160156 155.21875 11.988281 152.5 9.496094 149.550781 C 6.886719 146.605469 4.734375 142.976562 3.261719 139.351562 C 1.785156 135.722656 0.878906 131.757812 0.652344 127.789062 C 0.425781 123.933594 0.878906 119.742188 1.898438 116 C 2.917969 112.257812 4.621094 108.40625 6.773438 105.230469 C 9.039062 101.945312 11.875 98.882812 14.933594 96.503906 C 17.996094 94.125 21.734375 92.195312 25.363281 90.949219 C 29.105469 89.589844 36.699219 88.003906 37.152344 88.910156 C 37.605469 90.269531 16.183594 105.230469 14.820312 103.757812 C 11.988281 100.8125 64.355469 34.5 77.164062 19.3125 C 82.265625 13.304688 85.101562 10.128906 88.726562 7.410156 C 91.222656 5.480469 93.261719 4.347656 95.753906 3.328125 C 98.25 2.308594 100.96875 1.628906 103.574219 1.175781 C 106.296875 0.722656 109.015625 0.722656 111.738281 0.949219 C 114.457031 1.175781 117.179688 1.742188 119.671875 2.648438 C 122.277344 3.554688 124.773438 4.6875 127.039062 6.164062 C 129.308594 7.636719 131.347656 9.449219 133.273438 11.375 C 135.085938 13.417969 136.789062 15.570312 138.035156 17.949219 C 139.394531 20.332031 140.414062 22.824219 141.207031 25.433594 C 141.890625 28.039062 142.34375 30.871094 142.457031 33.480469 C 142.457031 36.199219 142.230469 39.035156 141.664062 41.640625 C 141.09375 44.25 140.1875 46.855469 139.054688 49.347656 C 137.808594 51.730469 134.632812 56.152344 134.632812 56.152344 " clip-rule="nonzero"/></clipPath><clipPath id="1d1b6a4236"><rect x="0" width="143" y="0" height="163"/></clipPath><clipPath id="cf6f362c59"><path d="M 41.503906 640.050781 L 149.835938 640.050781 L 149.835938 755.664062 L 41.503906 755.664062 Z M 41.503906 640.050781 " clip-rule="nonzero"/></clipPath><clipPath id="df02cfb157"><path d="M 140.78125 696.597656 C 105.644531 735.136719 105.53125 741.03125 102.355469 744.882812 C 99.75 748.058594 96.460938 749.871094 93.0625 751.570312 C 89.660156 753.273438 85.921875 754.519531 82.179688 754.972656 C 78.4375 755.539062 74.472656 755.425781 70.730469 754.746094 C 66.992188 754.066406 63.25 752.707031 59.964844 750.890625 C 56.675781 749.078125 53.5 746.585938 51.007812 743.75 C 48.515625 741.03125 46.359375 737.628906 44.773438 734.230469 C 43.300781 730.714844 42.28125 726.863281 41.941406 723.121094 C 41.714844 719.378906 41.941406 715.414062 42.847656 711.671875 C 43.753906 708.046875 45.339844 704.417969 47.269531 701.128906 C 49.308594 697.957031 52.027344 695.011719 54.863281 692.628906 C 57.808594 690.25 61.324219 688.207031 64.835938 686.960938 C 68.351562 685.601562 72.316406 684.808594 76.058594 684.695312 C 79.800781 684.582031 83.765625 685.148438 87.394531 686.167969 C 91.019531 687.300781 94.535156 689.003906 97.59375 691.269531 C 100.65625 693.421875 103.601562 696.257812 105.757812 699.316406 C 108.023438 702.265625 109.835938 705.890625 110.859375 709.519531 C 111.992188 713.03125 112.558594 717 112.558594 720.855469 C 112.445312 724.59375 111.652344 728.449219 110.40625 732.074219 C 109.15625 735.589844 107.230469 739.105469 104.851562 742.050781 C 102.46875 744.996094 99.523438 747.71875 96.347656 749.757812 C 93.289062 751.800781 89.546875 753.386719 85.921875 754.292969 C 82.292969 755.199219 78.324219 755.539062 74.472656 755.3125 C 70.730469 754.972656 66.878906 754.066406 63.363281 752.59375 C 59.964844 751.117188 56.5625 748.964844 53.730469 746.472656 C 50.894531 743.976562 48.402344 740.917969 46.472656 737.628906 C 44.660156 734.34375 43.300781 730.601562 42.507812 726.863281 C 41.828125 723.234375 41.714844 719.152344 42.167969 715.414062 C 42.621094 711.785156 43.753906 707.933594 45.453125 704.53125 C 47.152344 701.128906 49.308594 698.183594 52.027344 695.238281 C 55.089844 691.949219 59.054688 690.25 63.136719 686.054688 C 69.597656 679.253906 79.234375 663.953125 85.582031 656.808594 C 89.773438 652.164062 93.289062 648.648438 96.800781 646.15625 C 99.296875 644.339844 101.449219 643.320312 103.941406 642.414062 C 106.550781 641.507812 109.269531 640.828125 111.878906 640.488281 C 114.597656 640.261719 117.320312 640.261719 120.039062 640.601562 C 122.644531 640.941406 125.367188 641.621094 127.859375 642.640625 C 130.355469 643.546875 132.847656 644.910156 135.113281 646.382812 C 137.269531 647.96875 139.308594 649.894531 141.121094 651.824219 C 142.824219 653.863281 144.410156 656.242188 145.65625 658.625 C 146.902344 661.003906 147.921875 663.613281 148.492188 666.21875 C 149.171875 668.824219 149.398438 671.660156 149.398438 674.265625 C 149.398438 676.988281 149.058594 679.707031 148.378906 682.316406 C 147.695312 684.921875 146.675781 687.527344 145.429688 689.910156 C 144.183594 692.289062 140.78125 696.597656 140.78125 696.597656 " clip-rule="nonzero"/></clipPath><clipPath id="a8ada9b01f"><path d="M 0.519531 0.078125 L 108.519531 0.078125 L 108.519531 115.664062 L 0.519531 115.664062 Z M 0.519531 0.078125 " clip-rule="nonzero"/></clipPath><clipPath id="7d0fa616bd"><path d="M 99.78125 56.597656 C 64.644531 95.136719 64.53125 101.03125 61.355469 104.882812 C 58.75 108.058594 55.460938 109.871094 52.0625 111.570312 C 48.660156 113.273438 44.921875 114.519531 41.179688 114.972656 C 37.4375 115.539062 33.472656 115.425781 29.730469 114.746094 C 25.992188 114.066406 22.25 112.707031 18.964844 110.890625 C 15.675781 109.078125 12.5 106.585938 10.007812 103.75 C 7.515625 101.03125 5.359375 97.628906 3.773438 94.230469 C 2.300781 90.714844 1.28125 86.863281 0.941406 83.121094 C 0.714844 79.378906 0.941406 75.414062 1.847656 71.671875 C 2.753906 68.046875 4.339844 64.417969 6.269531 61.128906 C 8.308594 57.957031 11.027344 55.011719 13.863281 52.628906 C 16.808594 50.25 20.324219 48.207031 23.835938 46.960938 C 27.351562 45.601562 31.316406 44.808594 35.058594 44.695312 C 38.800781 44.582031 42.765625 45.148438 46.394531 46.167969 C 50.019531 47.300781 53.535156 49.003906 56.59375 51.269531 C 59.65625 53.421875 62.601562 56.257812 64.757812 59.316406 C 67.023438 62.265625 68.835938 65.890625 69.859375 69.519531 C 70.992188 73.03125 71.558594 77 71.558594 80.855469 C 71.445312 84.59375 70.652344 88.449219 69.40625 92.074219 C 68.15625 95.589844 66.230469 99.105469 63.851562 102.050781 C 61.46875 104.996094 58.523438 107.71875 55.347656 109.757812 C 52.289062 111.800781 48.546875 113.386719 44.921875 114.292969 C 41.292969 115.199219 37.324219 115.539062 33.472656 115.3125 C 29.730469 114.972656 25.878906 114.066406 22.363281 112.59375 C 18.964844 111.117188 15.5625 108.964844 12.730469 106.472656 C 9.894531 103.976562 7.402344 100.917969 5.472656 97.628906 C 3.660156 94.34375 2.300781 90.601562 1.507812 86.863281 C 0.828125 83.234375 0.714844 79.152344 1.167969 75.414062 C 1.621094 71.785156 2.753906 67.933594 4.453125 64.53125 C 6.152344 61.128906 8.308594 58.183594 11.027344 55.238281 C 14.089844 51.949219 18.054688 50.25 22.136719 46.054688 C 28.597656 39.253906 38.234375 23.953125 44.582031 16.808594 C 48.773438 12.164062 52.289062 8.648438 55.800781 6.15625 C 58.296875 4.339844 60.449219 3.320312 62.941406 2.414062 C 65.550781 1.507812 68.269531 0.828125 70.878906 0.488281 C 73.597656 0.261719 76.320312 0.261719 79.039062 0.601562 C 81.644531 0.941406 84.367188 1.621094 86.859375 2.640625 C 89.355469 3.546875 91.847656 4.910156 94.113281 6.382812 C 96.269531 7.96875 98.308594 9.894531 100.121094 11.824219 C 101.824219 13.863281 103.410156 16.242188 104.65625 18.625 C 105.902344 21.003906 106.921875 23.613281 107.492188 26.21875 C 108.171875 28.824219 108.398438 31.660156 108.398438 34.265625 C 108.398438 36.988281 108.058594 39.707031 107.378906 42.316406 C 106.695312 44.921875 105.675781 47.527344 104.429688 49.910156 C 103.183594 52.289062 99.78125 56.597656 99.78125 56.597656 " clip-rule="nonzero"/></clipPath><clipPath id="5433bf28a3"><rect x="0" width="109" y="0" height="116"/></clipPath><clipPath id="08f0cdbb98"><path d="M 469 3 L 802.652344 3 L 802.652344 331 L 469 331 Z M 469 3 " clip-rule="nonzero"/></clipPath><clipPath id="9ec87e49e5"><path d="M 527.878906 12.519531 C 591.355469 73.84375 644.175781 130.179688 675.574219 159.539062 C 697.339844 179.828125 714.453125 192.410156 732.589844 209.070312 C 749.933594 224.828125 783.144531 254.300781 782.125 256.792969 C 781.898438 257.246094 779.292969 256.339844 779.179688 256.679688 C 778.953125 257.246094 786.660156 260.535156 789.605469 263.253906 C 792.667969 265.972656 795.5 269.375 797.429688 273.003906 C 799.46875 276.515625 801.054688 280.597656 801.847656 284.5625 C 802.640625 288.644531 802.753906 292.953125 802.1875 297.03125 C 801.621094 301.113281 800.375 305.195312 798.5625 308.933594 C 796.746094 312.5625 794.253906 316.074219 791.421875 319.023438 C 788.472656 321.96875 784.960938 324.464844 781.332031 326.277344 C 777.589844 328.089844 773.511719 329.453125 769.429688 330.019531 C 765.347656 330.585938 761.042969 330.472656 756.960938 329.679688 C 752.992188 328.996094 748.914062 327.410156 745.285156 325.484375 C 741.773438 323.445312 738.371094 320.722656 735.652344 317.664062 C 732.929688 314.714844 730.550781 310.976562 728.851562 307.234375 C 727.261719 303.492188 726.242188 299.300781 725.902344 295.21875 C 725.5625 291.136719 725.902344 286.832031 726.808594 282.863281 C 727.832031 278.894531 729.53125 274.816406 731.683594 271.414062 C 733.835938 267.902344 736.785156 264.726562 739.957031 262.121094 C 743.132812 259.511719 746.875 257.359375 750.726562 256 C 754.582031 254.527344 758.886719 253.730469 762.96875 253.617188 C 767.050781 253.503906 771.355469 254.074219 775.210938 255.207031 C 779.179688 256.453125 783.03125 258.378906 786.433594 260.761719 C 789.71875 263.027344 792.78125 266.199219 795.273438 269.488281 C 797.65625 272.777344 799.582031 276.628906 800.828125 280.597656 C 801.960938 284.449219 802.640625 288.757812 802.527344 292.839844 C 802.414062 296.917969 801.621094 301.226562 800.148438 305.082031 C 798.789062 308.933594 796.632812 312.789062 794.140625 315.960938 C 791.535156 319.136719 788.359375 322.082031 784.960938 324.238281 C 781.445312 326.503906 777.476562 328.203125 773.511719 329.222656 C 769.542969 330.246094 765.234375 330.585938 761.15625 330.246094 C 757.074219 329.90625 753.222656 329.222656 749.027344 327.296875 C 743.8125 324.804688 739.503906 320.609375 732.929688 314.828125 C 720.574219 304.058594 700.511719 282.070312 682.828125 265.40625 C 664.011719 247.726562 646.785156 234.917969 623.09375 212.019531 C 585.234375 175.179688 495.914062 79.625 480.609375 62.394531 C 477.550781 58.996094 476.871094 58.3125 475.394531 56.046875 C 473.921875 53.78125 472.675781 51.171875 471.769531 48.566406 C 470.863281 45.960938 470.296875 43.238281 470.070312 40.519531 C 469.84375 37.683594 469.84375 34.851562 470.296875 32.242188 C 470.75 29.523438 471.542969 26.6875 472.5625 24.195312 C 473.582031 21.703125 475.054688 19.207031 476.644531 17.054688 C 478.34375 14.789062 480.269531 12.746094 482.3125 11.046875 C 484.464844 9.234375 486.84375 7.757812 489.339844 6.511719 C 491.832031 5.378906 494.4375 4.359375 497.160156 3.792969 C 499.878906 3.226562 502.714844 3 505.433594 3.113281 C 508.15625 3.226562 510.988281 3.679688 513.597656 4.359375 C 516.203125 5.152344 518.921875 6.285156 521.304688 7.644531 C 523.683594 8.894531 527.878906 12.519531 527.878906 12.519531 " clip-rule="nonzero"/></clipPath><clipPath id="3827c74df6"><path d="M 0.679688 0 L 333.652344 0 L 333.652344 327.71875 L 0.679688 327.71875 Z M 0.679688 0 " clip-rule="nonzero"/></clipPath><clipPath id="56925dc09a"><path d="M 58.878906 9.519531 C 122.355469 70.84375 175.175781 127.179688 206.574219 156.539062 C 228.339844 176.828125 245.453125 189.410156 263.589844 206.070312 C 280.933594 221.828125 314.144531 251.300781 313.125 253.792969 C 312.898438 254.246094 310.292969 253.339844 310.179688 253.679688 C 309.953125 254.246094 317.660156 257.535156 320.605469 260.253906 C 323.667969 262.972656 326.5 266.375 328.429688 270.003906 C 330.46875 273.515625 332.054688 277.597656 332.847656 281.5625 C 333.640625 285.644531 333.753906 289.953125 333.1875 294.03125 C 332.621094 298.113281 331.375 302.195312 329.5625 305.933594 C 327.746094 309.5625 325.253906 313.074219 322.421875 316.023438 C 319.472656 318.96875 315.960938 321.464844 312.332031 323.277344 C 308.589844 325.089844 304.511719 326.453125 300.429688 327.019531 C 296.347656 327.585938 292.042969 327.472656 287.960938 326.679688 C 283.992188 325.996094 279.914062 324.410156 276.285156 322.484375 C 272.773438 320.445312 269.371094 317.722656 266.652344 314.664062 C 263.929688 311.714844 261.550781 307.976562 259.851562 304.234375 C 258.261719 300.492188 257.242188 296.300781 256.902344 292.21875 C 256.5625 288.136719 256.902344 283.832031 257.808594 279.863281 C 258.832031 275.894531 260.53125 271.816406 262.683594 268.414062 C 264.835938 264.902344 267.785156 261.726562 270.957031 259.121094 C 274.132812 256.511719 277.875 254.359375 281.726562 253 C 285.582031 251.527344 289.886719 250.730469 293.96875 250.617188 C 298.050781 250.503906 302.355469 251.074219 306.210938 252.207031 C 310.179688 253.453125 314.03125 255.378906 317.433594 257.761719 C 320.71875 260.027344 323.78125 263.199219 326.273438 266.488281 C 328.65625 269.777344 330.582031 273.628906 331.828125 277.597656 C 332.960938 281.449219 333.640625 285.757812 333.527344 289.839844 C 333.414062 293.917969 332.621094 298.226562 331.148438 302.082031 C 329.789062 305.933594 327.632812 309.789062 325.140625 312.960938 C 322.535156 316.136719 319.359375 319.082031 315.960938 321.238281 C 312.445312 323.503906 308.476562 325.203125 304.511719 326.222656 C 300.542969 327.246094 296.234375 327.585938 292.15625 327.246094 C 288.074219 326.90625 284.222656 326.222656 280.027344 324.296875 C 274.8125 321.804688 270.503906 317.609375 263.929688 311.828125 C 251.574219 301.058594 231.511719 279.070312 213.828125 262.40625 C 195.011719 244.726562 177.785156 231.917969 154.09375 209.019531 C 116.234375 172.179688 26.914062 76.625 11.609375 59.394531 C 8.550781 55.996094 7.871094 55.3125 6.394531 53.046875 C 4.921875 50.78125 3.675781 48.171875 2.769531 45.566406 C 1.863281 42.960938 1.296875 40.238281 1.070312 37.519531 C 0.84375 34.683594 0.84375 31.851562 1.296875 29.242188 C 1.75 26.523438 2.542969 23.6875 3.5625 21.195312 C 4.582031 18.703125 6.054688 16.207031 7.644531 14.054688 C 9.34375 11.789062 11.269531 9.746094 13.3125 8.046875 C 15.464844 6.234375 17.84375 4.757812 20.339844 3.511719 C 22.832031 2.378906 25.4375 1.359375 28.160156 0.792969 C 30.878906 0.226562 33.714844 0 36.433594 0.113281 C 39.15625 0.226562 41.988281 0.679688 44.597656 1.359375 C 47.203125 2.152344 49.921875 3.285156 52.304688 4.644531 C 54.683594 5.894531 58.878906 9.519531 58.878906 9.519531 " clip-rule="nonzero"/></clipPath><clipPath id="79cb1886d8"><rect x="0" width="334" y="0" height="328"/></clipPath><clipPath id="b4e9d9f32c"><path d="M 520.101562 180.328125 L 733.988281 180.328125 L 733.988281 292.453125 L 520.101562 292.453125 Z M 520.101562 180.328125 " clip-rule="nonzero"/></clipPath><clipPath id="2dc74b286e"><path d="M 686.003906 262.800781 C 635.335938 249.085938 624.339844 253.050781 614.023438 257.132812 C 603.597656 261.214844 584.441406 274.363281 584.441406 274.25 C 584.328125 274.25 591.695312 268.808594 592.148438 269.375 C 592.714844 269.941406 588.292969 276.628906 585.6875 279.578125 C 582.964844 282.523438 579.679688 285.242188 576.164062 287.171875 C 572.765625 289.210938 568.683594 290.570312 564.832031 291.363281 C 560.863281 292.160156 556.667969 292.273438 552.703125 291.707031 C 548.734375 291.136719 544.652344 289.890625 541.027344 288.191406 C 537.511719 286.378906 534 283.882812 531.164062 281.050781 C 528.332031 278.214844 525.949219 274.816406 524.136719 271.1875 C 522.324219 267.5625 521.078125 263.59375 520.625 259.625 C 520.058594 255.660156 520.171875 251.351562 520.851562 247.5 C 521.644531 243.53125 523.117188 239.5625 525.042969 236.050781 C 527.085938 232.648438 529.691406 229.25 532.753906 226.640625 C 535.699219 223.921875 539.214844 221.652344 542.953125 220.066406 C 546.582031 218.480469 550.773438 217.460938 554.742188 217.121094 C 558.710938 216.78125 562.902344 217.234375 566.757812 218.140625 C 570.726562 219.160156 574.578125 220.746094 577.980469 222.902344 C 581.265625 225.054688 584.441406 227.886719 586.933594 231.0625 C 589.429688 234.121094 591.582031 237.863281 592.941406 241.605469 C 594.300781 245.34375 595.09375 249.539062 595.207031 253.503906 C 595.320312 257.585938 594.753906 261.78125 593.621094 265.519531 C 592.375 269.375 590.5625 273.230469 588.179688 276.402344 C 585.914062 279.691406 582.851562 282.636719 579.566406 285.015625 C 576.390625 287.398438 572.539062 289.210938 568.683594 290.34375 C 564.945312 291.59375 560.636719 292.160156 556.667969 292.046875 C 552.703125 291.933594 548.507812 291.136719 544.765625 289.777344 C 541.027344 288.304688 537.285156 286.265625 534.226562 283.769531 C 531.164062 281.277344 528.21875 278.101562 526.175781 274.703125 C 524.023438 271.300781 522.324219 267.449219 521.304688 263.59375 C 520.398438 259.738281 520.058594 255.433594 520.398438 251.464844 C 520.738281 247.5 521.078125 243.417969 523.34375 239.675781 C 526.0625 235.03125 531.503906 231.0625 537.511719 226.753906 C 546.015625 220.519531 559.503906 214.625 570.386719 207.824219 C 581.378906 200.796875 591.015625 189.914062 602.917969 185.382812 C 614.933594 180.847656 629.554688 180.054688 642.023438 180.621094 C 653.585938 181.1875 664.351562 185.042969 675.234375 187.988281 C 686.117188 190.824219 698.925781 194.5625 707.199219 198.191406 C 712.867188 200.570312 717.402344 203.0625 720.800781 205.671875 C 723.296875 207.484375 724.882812 209.296875 726.582031 211.339844 C 728.285156 213.492188 729.644531 215.871094 730.777344 218.367188 C 731.910156 220.859375 732.703125 223.46875 733.15625 226.074219 C 733.609375 228.796875 733.835938 231.515625 733.609375 234.234375 C 733.382812 236.957031 732.929688 239.675781 732.136719 242.285156 C 731.34375 244.777344 730.097656 247.382812 728.738281 249.652344 C 727.375 251.917969 725.675781 254.074219 723.75 256 C 721.824219 257.925781 719.554688 259.625 717.289062 260.988281 C 715.019531 262.347656 712.414062 263.480469 709.921875 264.273438 C 707.3125 265.066406 704.59375 265.632812 701.871094 265.746094 C 699.152344 265.859375 696.429688 265.746094 693.710938 265.179688 C 691.105469 264.726562 686.003906 262.800781 686.003906 262.800781 " clip-rule="nonzero"/></clipPath><clipPath id="2dbae88df1"><path d="M 0.101562 0.328125 L 213.921875 0.328125 L 213.921875 112.320312 L 0.101562 112.320312 Z M 0.101562 0.328125 " clip-rule="nonzero"/></clipPath><clipPath id="58535c952e"><path d="M 166.003906 82.800781 C 115.335938 69.085938 104.339844 73.050781 94.023438 77.132812 C 83.597656 81.214844 64.441406 94.363281 64.441406 94.25 C 64.328125 94.25 71.695312 88.808594 72.148438 89.375 C 72.714844 89.941406 68.292969 96.628906 65.6875 99.578125 C 62.964844 102.523438 59.679688 105.242188 56.164062 107.171875 C 52.765625 109.210938 48.683594 110.570312 44.832031 111.363281 C 40.863281 112.160156 36.667969 112.273438 32.703125 111.707031 C 28.734375 111.136719 24.652344 109.890625 21.027344 108.191406 C 17.511719 106.378906 14 103.882812 11.164062 101.050781 C 8.332031 98.214844 5.949219 94.816406 4.136719 91.1875 C 2.324219 87.5625 1.078125 83.59375 0.625 79.625 C 0.0585938 75.660156 0.171875 71.351562 0.851562 67.5 C 1.644531 63.53125 3.117188 59.5625 5.042969 56.050781 C 7.085938 52.648438 9.691406 49.25 12.753906 46.640625 C 15.699219 43.921875 19.214844 41.652344 22.953125 40.066406 C 26.582031 38.480469 30.773438 37.460938 34.742188 37.121094 C 38.710938 36.78125 42.902344 37.234375 46.757812 38.140625 C 50.726562 39.160156 54.578125 40.746094 57.980469 42.902344 C 61.265625 45.054688 64.441406 47.886719 66.933594 51.0625 C 69.429688 54.121094 71.582031 57.863281 72.941406 61.605469 C 74.300781 65.34375 75.09375 69.539062 75.207031 73.503906 C 75.320312 77.585938 74.753906 81.78125 73.621094 85.519531 C 72.375 89.375 70.5625 93.230469 68.179688 96.402344 C 65.914062 99.691406 62.851562 102.636719 59.566406 105.015625 C 56.390625 107.398438 52.539062 109.210938 48.683594 110.34375 C 44.945312 111.59375 40.636719 112.160156 36.667969 112.046875 C 32.703125 111.933594 28.507812 111.136719 24.765625 109.777344 C 21.027344 108.304688 17.285156 106.265625 14.226562 103.769531 C 11.164062 101.277344 8.21875 98.101562 6.175781 94.703125 C 4.023438 91.300781 2.324219 87.449219 1.304688 83.59375 C 0.398438 79.738281 0.0585938 75.433594 0.398438 71.464844 C 0.738281 67.5 1.078125 63.417969 3.34375 59.675781 C 6.0625 55.03125 11.503906 51.0625 17.511719 46.753906 C 26.015625 40.519531 39.503906 34.625 50.386719 27.824219 C 61.378906 20.796875 71.015625 9.914062 82.917969 5.382812 C 94.933594 0.847656 109.554688 0.0546875 122.023438 0.621094 C 133.585938 1.1875 144.351562 5.042969 155.234375 7.988281 C 166.117188 10.824219 178.925781 14.5625 187.199219 18.191406 C 192.867188 20.570312 197.402344 23.0625 200.800781 25.671875 C 203.296875 27.484375 204.882812 29.296875 206.582031 31.339844 C 208.285156 33.492188 209.644531 35.871094 210.777344 38.367188 C 211.910156 40.859375 212.703125 43.46875 213.15625 46.074219 C 213.609375 48.796875 213.835938 51.515625 213.609375 54.234375 C 213.382812 56.957031 212.929688 59.675781 212.136719 62.285156 C 211.34375 64.777344 210.097656 67.382812 208.738281 69.652344 C 207.375 71.917969 205.675781 74.074219 203.75 76 C 201.824219 77.925781 199.554688 79.625 197.289062 80.988281 C 195.019531 82.347656 192.414062 83.480469 189.921875 84.273438 C 187.3125 85.066406 184.59375 85.632812 181.871094 85.746094 C 179.152344 85.859375 176.429688 85.746094 173.710938 85.179688 C 171.105469 84.726562 166.003906 82.800781 166.003906 82.800781 " clip-rule="nonzero"/></clipPath><clipPath id="5bd97fe9fb"><rect x="0" width="214" y="0" height="113"/></clipPath><clipPath id="615aea1fd7"><path d="M 529.265625 67.75 L 631.566406 67.75 L 631.566406 257.613281 L 529.265625 257.613281 Z M 529.265625 67.75 " clip-rule="nonzero"/></clipPath><clipPath id="cc1cbfd539"><path d="M 591.582031 83.476562 C 620.710938 130.179688 625.132812 141.0625 627.855469 152.28125 C 630.460938 163.390625 631.933594 174.613281 631.367188 186.402344 C 630.6875 199.097656 629.214844 214.285156 622.753906 225.847656 C 616.066406 237.863281 597.476562 253.503906 590.902344 256.566406 C 588.632812 257.699219 587.726562 257.359375 585.574219 257.246094 C 582.398438 257.246094 577.527344 256.566406 573.785156 255.320312 C 570.042969 254.074219 566.304688 252.144531 563.242188 249.765625 C 560.070312 247.382812 557.234375 244.324219 554.96875 241.148438 C 552.816406 237.863281 551 234.007812 549.980469 230.269531 C 548.847656 226.414062 548.394531 222.335938 548.621094 218.367188 C 548.847656 214.398438 549.753906 210.320312 551.226562 206.691406 C 552.589844 203.0625 554.855469 199.4375 557.347656 196.375 C 559.84375 193.429688 563.128906 190.710938 566.417969 188.667969 C 569.816406 186.628906 573.671875 185.042969 577.527344 184.246094 C 581.378906 183.339844 585.574219 183.113281 589.542969 183.566406 C 593.394531 184.019531 597.476562 185.15625 600.988281 186.742188 C 604.617188 188.441406 608.015625 190.710938 610.964844 193.429688 C 613.796875 196.148438 616.292969 199.550781 618.21875 202.949219 C 620.03125 206.464844 621.394531 210.433594 621.960938 214.285156 C 622.640625 218.140625 622.640625 222.335938 621.960938 226.300781 C 621.394531 230.15625 620.03125 234.121094 618.21875 237.636719 C 616.40625 241.035156 613.796875 244.4375 610.964844 247.15625 C 608.132812 249.878906 604.617188 252.144531 601.101562 253.847656 C 597.476562 255.546875 593.507812 256.679688 589.542969 257.019531 C 585.6875 257.472656 581.492188 257.246094 577.640625 256.453125 C 573.785156 255.546875 569.929688 254.074219 566.53125 252.03125 C 563.128906 249.992188 559.957031 247.269531 557.347656 244.324219 C 554.855469 241.265625 552.703125 237.636719 551.226562 234.007812 C 549.753906 230.382812 548.847656 226.300781 548.621094 222.335938 C 548.394531 218.480469 548.847656 214.285156 549.867188 210.433594 C 551 206.691406 552.703125 202.835938 554.96875 199.664062 C 557.121094 196.375 560.070312 193.316406 563.128906 190.9375 C 566.304688 188.554688 569.929688 186.628906 573.671875 185.269531 C 577.414062 184.019531 585.347656 183 585.460938 183.339844 C 585.6875 184.019531 563.695312 196.148438 558.824219 192.863281 C 553.496094 189.234375 560.75 170.53125 557.347656 158.742188 C 553.15625 144.007812 534.566406 121.679688 531.164062 112.382812 C 529.804688 108.753906 529.691406 107.167969 529.464844 104.449219 C 529.238281 101.726562 529.351562 99.007812 529.804688 96.289062 C 530.144531 93.679688 530.9375 90.960938 531.957031 88.464844 C 533.09375 85.972656 534.453125 83.59375 536.039062 81.4375 C 537.625 79.285156 539.554688 77.242188 541.707031 75.542969 C 543.746094 73.84375 546.128906 72.371094 548.507812 71.238281 C 551 69.988281 553.609375 69.082031 556.214844 68.628906 C 558.824219 68.0625 561.65625 67.835938 564.378906 67.949219 C 566.984375 68.0625 569.816406 68.402344 572.425781 69.195312 C 574.917969 69.988281 577.527344 71.011719 579.90625 72.371094 C 582.171875 73.730469 584.441406 75.429688 586.367188 77.242188 C 588.292969 79.058594 591.582031 83.476562 591.582031 83.476562 " clip-rule="nonzero"/></clipPath><clipPath id="9adfd0e6a0"><path d="M 0.265625 0.75 L 102.566406 0.75 L 102.566406 190.613281 L 0.265625 190.613281 Z M 0.265625 0.75 " clip-rule="nonzero"/></clipPath><clipPath id="30a61e5d98"><path d="M 62.582031 16.476562 C 91.710938 63.179688 96.132812 74.0625 98.855469 85.28125 C 101.460938 96.390625 102.933594 107.613281 102.367188 119.402344 C 101.6875 132.097656 100.214844 147.285156 93.753906 158.847656 C 87.066406 170.863281 68.476562 186.503906 61.902344 189.566406 C 59.632812 190.699219 58.726562 190.359375 56.574219 190.246094 C 53.398438 190.246094 48.527344 189.566406 44.785156 188.320312 C 41.042969 187.074219 37.304688 185.144531 34.242188 182.765625 C 31.070312 180.382812 28.234375 177.324219 25.96875 174.148438 C 23.816406 170.863281 22 167.007812 20.980469 163.269531 C 19.847656 159.414062 19.394531 155.335938 19.621094 151.367188 C 19.847656 147.398438 20.753906 143.320312 22.226562 139.691406 C 23.589844 136.0625 25.855469 132.4375 28.347656 129.375 C 30.84375 126.429688 34.128906 123.710938 37.417969 121.667969 C 40.816406 119.628906 44.671875 118.042969 48.527344 117.246094 C 52.378906 116.339844 56.574219 116.113281 60.542969 116.566406 C 64.394531 117.019531 68.476562 118.15625 71.988281 119.742188 C 75.617188 121.441406 79.015625 123.710938 81.964844 126.429688 C 84.796875 129.148438 87.292969 132.550781 89.21875 135.949219 C 91.03125 139.464844 92.394531 143.433594 92.960938 147.285156 C 93.640625 151.140625 93.640625 155.335938 92.960938 159.300781 C 92.394531 163.15625 91.03125 167.121094 89.21875 170.636719 C 87.40625 174.035156 84.796875 177.4375 81.964844 180.15625 C 79.132812 182.878906 75.617188 185.144531 72.101562 186.847656 C 68.476562 188.546875 64.507812 189.679688 60.542969 190.019531 C 56.6875 190.472656 52.492188 190.246094 48.640625 189.453125 C 44.785156 188.546875 40.929688 187.074219 37.53125 185.03125 C 34.128906 182.992188 30.957031 180.269531 28.347656 177.324219 C 25.855469 174.265625 23.703125 170.636719 22.226562 167.007812 C 20.753906 163.382812 19.847656 159.300781 19.621094 155.335938 C 19.394531 151.480469 19.847656 147.285156 20.867188 143.433594 C 22 139.691406 23.703125 135.835938 25.96875 132.664062 C 28.121094 129.375 31.070312 126.316406 34.128906 123.9375 C 37.304688 121.554688 40.929688 119.628906 44.671875 118.269531 C 48.414062 117.019531 56.347656 116 56.460938 116.339844 C 56.6875 117.019531 34.695312 129.148438 29.824219 125.863281 C 24.496094 122.234375 31.75 103.53125 28.347656 91.742188 C 24.15625 77.007812 5.566406 54.679688 2.164062 45.382812 C 0.804688 41.753906 0.691406 40.167969 0.464844 37.449219 C 0.238281 34.726562 0.351562 32.007812 0.804688 29.289062 C 1.144531 26.679688 1.9375 23.960938 2.957031 21.464844 C 4.09375 18.972656 5.453125 16.59375 7.039062 14.4375 C 8.625 12.285156 10.554688 10.242188 12.707031 8.542969 C 14.746094 6.84375 17.128906 5.371094 19.507812 4.238281 C 22 2.988281 24.609375 2.082031 27.214844 1.628906 C 29.824219 1.0625 32.65625 0.835938 35.378906 0.949219 C 37.984375 1.0625 40.816406 1.402344 43.425781 2.195312 C 45.917969 2.988281 48.527344 4.011719 50.90625 5.371094 C 53.171875 6.730469 55.441406 8.429688 57.367188 10.242188 C 59.292969 12.058594 62.582031 16.476562 62.582031 16.476562 " clip-rule="nonzero"/></clipPath><clipPath id="daf8c44833"><rect x="0" width="103" y="0" height="191"/></clipPath><clipPath id="66ebbb1b78"><path d="M 553.152344 178.214844 L 618.8125 178.214844 L 618.8125 245.347656 L 553.152344 245.347656 Z M 553.152344 178.214844 " clip-rule="nonzero"/></clipPath><clipPath id="eb2c558e39"><path d="M 618.558594 201.816406 C 618.558594 222.902344 616.179688 228.339844 612.890625 232.421875 C 609.71875 236.503906 605.070312 240.128906 600.308594 242.285156 C 595.664062 244.4375 589.769531 245.457031 584.554688 245.117188 C 579.453125 244.777344 573.785156 243.078125 569.25 240.355469 C 564.832031 237.75 560.636719 233.441406 558.03125 229.023438 C 555.308594 224.601562 553.496094 218.933594 553.269531 213.832031 C 552.929688 208.617188 553.949219 202.722656 556.101562 198.078125 C 558.257812 193.316406 561.882812 188.667969 565.964844 185.496094 C 570.042969 182.207031 575.484375 179.828125 580.585938 178.921875 C 585.6875 177.898438 591.582031 178.355469 596.570312 179.828125 C 601.554688 181.414062 610.285156 188.101562 610.285156 188.101562 " clip-rule="nonzero"/></clipPath><clipPath id="cd392849f3"><path d="M 0.152344 0.214844 L 65.71875 0.214844 L 65.71875 67.347656 L 0.152344 67.347656 Z M 0.152344 0.214844 " clip-rule="nonzero"/></clipPath><clipPath id="89b5206bad"><path d="M 65.558594 23.816406 C 65.558594 44.902344 63.179688 50.339844 59.890625 54.421875 C 56.71875 58.503906 52.070312 62.128906 47.308594 64.285156 C 42.664062 66.4375 36.769531 67.457031 31.554688 67.117188 C 26.453125 66.777344 20.785156 65.078125 16.25 62.355469 C 11.832031 59.75 7.636719 55.441406 5.03125 51.023438 C 2.308594 46.601562 0.496094 40.933594 0.269531 35.832031 C -0.0703125 30.617188 0.949219 24.722656 3.101562 20.078125 C 5.257812 15.316406 8.882812 10.667969 12.964844 7.496094 C 17.042969 4.207031 22.484375 1.828125 27.585938 0.921875 C 32.6875 -0.101562 38.582031 0.355469 43.570312 1.828125 C 48.554688 3.414062 57.285156 10.101562 57.285156 10.101562 " clip-rule="nonzero"/></clipPath><clipPath id="ac8c778626"><rect x="0" width="66" y="0" height="68"/></clipPath><clipPath id="4e62ba819e"><path d="M 517 141.367188 L 626.980469 141.367188 L 626.980469 298.535156 L 517 298.535156 Z M 517 141.367188 " clip-rule="nonzero"/></clipPath><clipPath id="149fc9390b"><path d="M 624.679688 186.96875 C 618.785156 201.589844 604.390625 219.839844 598.496094 232.648438 C 593.394531 243.984375 592.941406 256 588.066406 266.429688 C 583.195312 276.628906 575.597656 289.890625 569.25 294.652344 C 565.511719 297.371094 561.882812 297.484375 558.03125 297.941406 C 554.175781 298.394531 550.09375 298.28125 546.355469 297.484375 C 542.5 296.804688 538.644531 295.332031 535.359375 293.40625 C 531.957031 291.476562 528.785156 288.871094 526.292969 285.925781 C 523.683594 283.089844 521.53125 279.578125 520.058594 276.0625 C 518.582031 272.433594 517.5625 268.46875 517.335938 264.613281 C 517.109375 260.761719 517.449219 256.679688 518.355469 252.9375 C 519.375 249.199219 520.964844 245.457031 523.117188 242.285156 C 525.269531 238.996094 527.992188 235.9375 531.050781 233.554688 C 534 231.175781 537.625 229.25 541.253906 227.886719 C 544.878906 226.640625 548.960938 225.847656 552.816406 225.847656 C 556.667969 225.734375 560.75 226.300781 564.378906 227.546875 C 568.117188 228.683594 571.746094 230.496094 574.804688 232.761719 C 577.980469 235.03125 580.8125 237.976562 583.082031 241.152344 C 585.234375 244.324219 587.046875 248.066406 588.179688 251.691406 C 589.316406 255.433594 589.769531 259.511719 589.65625 263.367188 C 589.542969 267.222656 588.746094 271.1875 587.386719 274.816406 C 586.027344 278.441406 583.875 281.957031 581.492188 285.015625 C 579 287.964844 575.9375 290.683594 572.652344 292.726562 C 569.363281 294.765625 565.625 296.351562 561.882812 297.257812 C 558.144531 298.167969 554.0625 298.394531 550.207031 298.054688 C 546.355469 297.710938 542.386719 296.691406 538.875 295.105469 C 535.359375 293.632812 531.84375 291.363281 529.011719 288.757812 C 526.175781 286.152344 523.683594 282.976562 521.757812 279.578125 C 519.945312 276.175781 518.46875 272.320312 517.789062 268.46875 C 517.109375 264.726562 517.109375 260.648438 517.675781 256.792969 C 518.128906 252.9375 519.375 249.085938 521.191406 245.683594 C 522.890625 242.171875 525.382812 238.882812 528.105469 236.164062 C 530.824219 233.441406 537.738281 229.476562 537.625 229.476562 C 537.625 229.363281 529.011719 236.164062 528.21875 235.371094 C 526.632812 233.894531 540.914062 214.851562 546.242188 203.40625 C 552.023438 191.050781 557.804688 171.777344 561.316406 163.84375 C 562.902344 160.445312 563.46875 158.855469 565.058594 156.589844 C 566.53125 154.4375 568.34375 152.28125 570.269531 150.46875 C 572.3125 148.65625 574.578125 147.070312 576.960938 145.820312 C 579.339844 144.460938 581.945312 143.441406 584.554688 142.761719 C 587.160156 142.082031 589.882812 141.742188 592.601562 141.742188 C 595.207031 141.628906 598.042969 141.96875 600.648438 142.535156 C 603.257812 143.214844 605.863281 144.121094 608.246094 145.367188 C 610.738281 146.5 613.003906 148.089844 615.046875 149.902344 C 617.085938 151.601562 618.898438 153.644531 620.484375 155.910156 C 622.074219 158.0625 623.433594 160.558594 624.339844 163.050781 C 625.359375 165.546875 626.039062 168.265625 626.492188 170.871094 C 626.832031 173.59375 626.832031 176.3125 626.605469 179.035156 C 626.265625 181.640625 624.679688 186.96875 624.679688 186.96875 " clip-rule="nonzero"/></clipPath><clipPath id="40dfc519da"><path d="M 0 0.601562 L 109.878906 0.601562 L 109.878906 157.535156 L 0 157.535156 Z M 0 0.601562 " clip-rule="nonzero"/></clipPath><clipPath id="da92bfdf70"><path d="M 107.679688 45.96875 C 101.785156 60.589844 87.390625 78.839844 81.496094 91.648438 C 76.394531 102.984375 75.941406 115 71.066406 125.429688 C 66.195312 135.628906 58.597656 148.890625 52.25 153.652344 C 48.511719 156.371094 44.882812 156.484375 41.03125 156.941406 C 37.175781 157.394531 33.09375 157.28125 29.355469 156.484375 C 25.5 155.804688 21.644531 154.332031 18.359375 152.40625 C 14.957031 150.476562 11.785156 147.871094 9.292969 144.925781 C 6.683594 142.089844 4.53125 138.578125 3.058594 135.0625 C 1.582031 131.433594 0.5625 127.46875 0.335938 123.613281 C 0.109375 119.761719 0.449219 115.679688 1.355469 111.9375 C 2.375 108.199219 3.964844 104.457031 6.117188 101.285156 C 8.269531 97.996094 10.992188 94.9375 14.050781 92.554688 C 17 90.175781 20.625 88.25 24.253906 86.886719 C 27.878906 85.640625 31.960938 84.847656 35.816406 84.847656 C 39.667969 84.734375 43.75 85.300781 47.378906 86.546875 C 51.117188 87.683594 54.746094 89.496094 57.804688 91.761719 C 60.980469 94.03125 63.8125 96.976562 66.082031 100.152344 C 68.234375 103.324219 70.046875 107.066406 71.179688 110.691406 C 72.316406 114.433594 72.769531 118.511719 72.65625 122.367188 C 72.542969 126.222656 71.746094 130.1875 70.386719 133.816406 C 69.027344 137.441406 66.875 140.957031 64.492188 144.015625 C 62 146.964844 58.9375 149.683594 55.652344 151.726562 C 52.363281 153.765625 48.625 155.351562 44.882812 156.257812 C 41.144531 157.167969 37.0625 157.394531 33.207031 157.054688 C 29.355469 156.710938 25.386719 155.691406 21.875 154.105469 C 18.359375 152.632812 14.84375 150.363281 12.011719 147.757812 C 9.175781 145.152344 6.683594 141.976562 4.757812 138.578125 C 2.945312 135.175781 1.46875 131.320312 0.789062 127.46875 C 0.109375 123.726562 0.109375 119.648438 0.675781 115.792969 C 1.128906 111.9375 2.375 108.085938 4.191406 104.683594 C 5.890625 101.171875 8.382812 97.882812 11.105469 95.164062 C 13.824219 92.441406 20.738281 88.476562 20.625 88.476562 C 20.625 88.363281 12.011719 95.164062 11.21875 94.371094 C 9.632812 92.894531 23.914062 73.851562 29.242188 62.40625 C 35.023438 50.050781 40.804688 30.777344 44.316406 22.84375 C 45.902344 19.445312 46.46875 17.855469 48.058594 15.589844 C 49.53125 13.4375 51.34375 11.28125 53.269531 9.46875 C 55.3125 7.65625 57.578125 6.070312 59.960938 4.820312 C 62.339844 3.460938 64.945312 2.441406 67.554688 1.761719 C 70.160156 1.082031 72.882812 0.742188 75.601562 0.742188 C 78.207031 0.628906 81.042969 0.96875 83.648438 1.535156 C 86.257812 2.214844 88.863281 3.121094 91.246094 4.367188 C 93.738281 5.5 96.003906 7.089844 98.046875 8.902344 C 100.085938 10.601562 101.898438 12.644531 103.484375 14.910156 C 105.074219 17.0625 106.433594 19.558594 107.339844 22.050781 C 108.359375 24.546875 109.039062 27.265625 109.492188 29.871094 C 109.832031 32.59375 109.832031 35.3125 109.605469 38.035156 C 109.265625 40.640625 107.679688 45.96875 107.679688 45.96875 " clip-rule="nonzero"/></clipPath><clipPath id="390131d809"><rect x="0" width="110" y="0" height="158"/></clipPath><clipPath id="cf41d1c256"><path d="M 164.472656 377.625 L 289.773438 377.625 L 289.773438 488.484375 L 164.472656 488.484375 Z M 164.472656 377.625 " clip-rule="nonzero"/></clipPath><clipPath id="b71983789b"><path d="M 220.355469 385.785156 C 259.914062 415.9375 259.121094 416.730469 260.027344 417.523438 C 261.617188 419.226562 267.507812 419.566406 270.796875 421.378906 C 274.199219 423.078125 277.371094 425.574219 279.863281 428.40625 C 282.472656 431.128906 284.738281 434.527344 286.324219 437.929688 C 287.800781 441.328125 288.933594 445.296875 289.273438 449.035156 C 289.613281 452.777344 289.386719 456.746094 288.59375 460.484375 C 287.6875 464.113281 286.210938 467.851562 284.171875 471.140625 C 282.246094 474.316406 279.636719 477.375 276.691406 479.867188 C 273.742188 482.25 270.34375 484.289062 266.828125 485.648438 C 263.316406 487.011719 259.347656 487.804688 255.609375 488.03125 C 251.753906 488.144531 247.785156 487.691406 244.160156 486.667969 C 240.53125 485.648438 236.90625 483.949219 233.730469 481.796875 C 230.671875 479.640625 227.722656 476.808594 225.457031 473.746094 C 223.1875 470.800781 221.375 467.171875 220.242188 463.660156 C 218.996094 460.03125 218.429688 456.066406 218.429688 452.210938 C 218.429688 448.46875 219.109375 444.503906 220.355469 440.875 C 221.601562 437.363281 223.527344 433.847656 225.796875 430.789062 C 228.175781 427.839844 231.125 425.121094 234.296875 422.964844 C 237.359375 420.925781 241.097656 419.226562 244.726562 418.320312 C 248.351562 417.296875 252.433594 416.84375 256.175781 417.070312 C 259.914062 417.410156 263.882812 418.207031 267.394531 419.679688 C 270.910156 421.152344 274.3125 423.191406 277.144531 425.6875 C 279.976562 428.179688 282.585938 431.242188 284.511719 434.527344 C 286.4375 437.816406 287.914062 441.554688 288.707031 445.183594 C 289.5 448.921875 289.613281 453.003906 289.160156 456.746094 C 288.707031 460.484375 287.6875 464.339844 285.984375 467.738281 C 284.398438 471.140625 282.132812 474.429688 279.523438 477.148438 C 276.917969 479.867188 273.628906 482.363281 270.34375 484.0625 C 266.941406 485.761719 263.089844 487.011719 259.347656 487.691406 C 255.609375 488.257812 252.320312 488.824219 247.898438 487.578125 C 240.417969 485.421875 229.535156 476.695312 220.128906 470.347656 C 209.585938 463.433594 196.664062 454.703125 187.9375 447.5625 C 181.25 442.121094 174.675781 436.453125 171.273438 432.035156 C 169.121094 429.3125 168.214844 427.386719 167.195312 424.894531 C 166.171875 422.398438 165.378906 419.679688 165.039062 416.957031 C 164.585938 414.351562 164.472656 411.519531 164.8125 408.796875 C 165.039062 406.078125 165.605469 403.355469 166.511719 400.75 C 167.421875 398.253906 168.554688 395.648438 170.027344 393.382812 C 171.5 391.113281 173.316406 388.960938 175.355469 387.148438 C 177.28125 385.21875 179.546875 383.632812 181.929688 382.273438 C 184.308594 380.914062 186.917969 379.894531 189.523438 379.097656 C 192.128906 378.417969 194.851562 377.964844 197.570312 377.964844 C 200.292969 377.851562 203.125 378.078125 205.734375 378.644531 C 208.339844 379.210938 211.058594 380.121094 213.441406 381.367188 C 215.933594 382.5 220.355469 385.785156 220.355469 385.785156 " clip-rule="nonzero"/></clipPath><clipPath id="ec8d47fb0d"><path d="M 0.472656 0.761719 L 125.679688 0.761719 L 125.679688 111.484375 L 0.472656 111.484375 Z M 0.472656 0.761719 " clip-rule="nonzero"/></clipPath><clipPath id="50fbd36365"><path d="M 56.355469 8.785156 C 95.914062 38.9375 95.121094 39.730469 96.027344 40.523438 C 97.617188 42.226562 103.507812 42.566406 106.796875 44.378906 C 110.199219 46.078125 113.371094 48.574219 115.863281 51.40625 C 118.472656 54.128906 120.738281 57.527344 122.324219 60.929688 C 123.800781 64.328125 124.933594 68.296875 125.273438 72.035156 C 125.613281 75.777344 125.386719 79.746094 124.59375 83.484375 C 123.6875 87.113281 122.210938 90.851562 120.171875 94.140625 C 118.246094 97.316406 115.636719 100.375 112.691406 102.867188 C 109.742188 105.25 106.34375 107.289062 102.828125 108.648438 C 99.316406 110.011719 95.347656 110.804688 91.609375 111.03125 C 87.753906 111.144531 83.785156 110.691406 80.160156 109.667969 C 76.53125 108.648438 72.90625 106.949219 69.730469 104.796875 C 66.671875 102.640625 63.722656 99.808594 61.457031 96.746094 C 59.1875 93.800781 57.375 90.171875 56.242188 86.660156 C 54.996094 83.03125 54.429688 79.066406 54.429688 75.210938 C 54.429688 71.46875 55.109375 67.503906 56.355469 63.875 C 57.601562 60.363281 59.527344 56.847656 61.796875 53.789062 C 64.175781 50.839844 67.125 48.121094 70.296875 45.964844 C 73.359375 43.925781 77.097656 42.226562 80.726562 41.320312 C 84.351562 40.296875 88.433594 39.84375 92.175781 40.070312 C 95.914062 40.410156 99.882812 41.207031 103.394531 42.679688 C 106.910156 44.152344 110.3125 46.191406 113.144531 48.6875 C 115.976562 51.179688 118.585938 54.242188 120.511719 57.527344 C 122.4375 60.816406 123.914062 64.554688 124.707031 68.183594 C 125.5 71.921875 125.613281 76.003906 125.160156 79.746094 C 124.707031 83.484375 123.6875 87.339844 121.984375 90.738281 C 120.398438 94.140625 118.132812 97.429688 115.523438 100.148438 C 112.917969 102.867188 109.628906 105.363281 106.34375 107.0625 C 102.941406 108.761719 99.089844 110.011719 95.347656 110.691406 C 91.609375 111.257812 88.320312 111.824219 83.898438 110.578125 C 76.417969 108.421875 65.535156 99.695312 56.128906 93.347656 C 45.585938 86.433594 32.664062 77.703125 23.9375 70.5625 C 17.25 65.121094 10.675781 59.453125 7.273438 55.035156 C 5.121094 52.3125 4.214844 50.386719 3.195312 47.894531 C 2.171875 45.398438 1.378906 42.679688 1.039062 39.957031 C 0.585938 37.351562 0.472656 34.519531 0.8125 31.796875 C 1.039062 29.078125 1.605469 26.355469 2.511719 23.75 C 3.421875 21.253906 4.554688 18.648438 6.027344 16.382812 C 7.5 14.113281 9.316406 11.960938 11.355469 10.148438 C 13.28125 8.21875 15.546875 6.632812 17.929688 5.273438 C 20.308594 3.914062 22.917969 2.894531 25.523438 2.097656 C 28.128906 1.417969 30.851562 0.964844 33.570312 0.964844 C 36.292969 0.851562 39.125 1.078125 41.734375 1.644531 C 44.339844 2.210938 47.058594 3.121094 49.441406 4.367188 C 51.933594 5.5 56.355469 8.785156 56.355469 8.785156 " clip-rule="nonzero"/></clipPath><clipPath id="a2af1ea173"><rect x="0" width="126" y="0" height="112"/></clipPath><clipPath id="d0b41daed3"><path d="M 100.710938 437.078125 L 238.390625 437.078125 L 238.390625 571.960938 L 100.710938 571.960938 Z M 100.710938 437.078125 " clip-rule="nonzero"/></clipPath><clipPath id="2dfe5ab157"><path d="M 158.464844 446.996094 C 222.960938 511.71875 204.257812 499.933594 204.597656 498.910156 C 204.824219 498.34375 210.492188 499.820312 213.214844 500.726562 C 215.933594 501.632812 218.65625 502.878906 221.148438 504.351562 C 223.527344 505.941406 225.910156 507.867188 227.949219 509.90625 C 229.988281 511.945312 231.804688 514.328125 233.164062 516.933594 C 234.636719 519.429688 235.882812 522.148438 236.679688 524.871094 C 237.472656 527.703125 238.039062 530.648438 238.152344 533.597656 C 238.265625 536.429688 238.039062 539.492188 237.472656 542.324219 C 236.90625 545.160156 235.996094 547.992188 234.75 550.601562 C 233.503906 553.207031 231.917969 555.699219 230.105469 557.96875 C 228.289062 560.234375 226.136719 562.386719 223.757812 564.089844 C 221.488281 565.789062 218.882812 567.375 216.160156 568.507812 C 213.554688 569.644531 210.71875 570.4375 207.773438 571.003906 C 204.941406 571.457031 202.671875 571.910156 199.046875 571.34375 C 192.925781 570.324219 180.457031 565.5625 174.675781 561.820312 C 170.820312 559.328125 168.554688 556.722656 166.285156 553.546875 C 164.019531 550.488281 162.09375 546.746094 160.960938 543.003906 C 159.824219 539.378906 159.144531 535.296875 159.257812 531.445312 C 159.257812 527.476562 160.050781 523.507812 161.300781 519.769531 C 162.660156 516.140625 164.699219 512.515625 167.082031 509.453125 C 169.460938 506.507812 172.519531 503.671875 175.695312 501.519531 C 178.980469 499.476562 182.722656 497.777344 186.464844 496.757812 C 190.316406 495.851562 194.398438 495.398438 198.25 495.738281 C 202.105469 495.964844 206.074219 496.984375 209.699219 498.457031 C 213.214844 499.933594 216.726562 502.199219 219.675781 504.691406 C 222.621094 507.300781 225.230469 510.472656 227.15625 513.761719 C 229.082031 517.160156 230.558594 521.015625 231.351562 524.871094 C 232.03125 528.609375 232.257812 532.804688 231.804688 536.542969 C 231.238281 540.398438 230.105469 544.367188 228.402344 547.878906 C 226.703125 551.394531 224.324219 554.792969 221.601562 557.515625 C 218.882812 560.234375 215.59375 562.730469 212.082031 564.429688 C 208.679688 566.242188 204.710938 567.488281 200.859375 568.054688 C 197.117188 568.621094 192.925781 568.507812 189.070312 567.828125 C 185.328125 567.148438 181.363281 565.789062 178.074219 563.863281 C 174.675781 562.046875 171.386719 559.441406 168.78125 556.609375 C 166.171875 553.773438 163.90625 550.261719 162.320312 546.746094 C 160.734375 543.230469 159.710938 539.152344 159.371094 535.296875 C 159.03125 531.445312 159.371094 527.363281 160.277344 523.621094 C 161.1875 519.769531 162.773438 516.027344 164.8125 512.742188 C 166.851562 509.453125 169.574219 506.28125 172.519531 503.898438 C 175.582031 501.40625 179.09375 499.363281 182.722656 498.003906 C 186.351562 496.644531 190.429688 495.851562 194.285156 495.625 C 198.136719 495.511719 202.332031 496.078125 205.960938 497.097656 C 209.699219 498.230469 216.726562 501.972656 216.613281 502.3125 C 216.5 502.652344 204.597656 499.136719 204.597656 498.910156 C 204.597656 498.796875 210.492188 499.820312 213.214844 500.726562 C 215.933594 501.632812 218.65625 502.878906 221.148438 504.351562 C 223.527344 505.941406 225.910156 507.867188 227.949219 509.90625 C 229.988281 511.945312 231.804688 514.328125 233.164062 516.933594 C 234.636719 519.429688 235.882812 522.148438 236.679688 524.871094 C 237.472656 527.703125 238.039062 530.648438 238.152344 533.597656 C 238.265625 536.429688 238.039062 539.492188 237.472656 542.324219 C 236.90625 545.160156 235.996094 547.992188 234.75 550.601562 C 233.503906 553.207031 231.917969 555.699219 230.105469 557.96875 C 228.289062 560.234375 226.136719 562.386719 223.757812 564.089844 C 221.488281 565.789062 218.882812 567.375 216.160156 568.507812 C 213.554688 569.644531 210.71875 570.4375 207.773438 571.003906 C 204.941406 571.457031 201.539062 572.136719 199.046875 571.34375 C 197.003906 570.664062 196.210938 569.53125 193.945312 567.375 C 188.164062 562.160156 166.171875 537.222656 166.398438 537.109375 C 166.511719 536.882812 199.386719 568.621094 198.476562 569.757812 C 197.683594 570.777344 178.527344 557.289062 169.007812 550.148438 C 159.371094 542.890625 150.417969 535.296875 141.121094 526.683594 C 130.921875 517.046875 116.410156 501.519531 110.632812 494.832031 C 108.136719 491.996094 107.003906 490.75 105.53125 488.484375 C 104.171875 486.101562 103.035156 483.609375 102.242188 481.003906 C 101.449219 478.394531 100.882812 475.675781 100.769531 472.953125 C 100.65625 470.234375 100.769531 467.511719 101.222656 464.792969 C 101.789062 462.1875 102.582031 459.464844 103.714844 457.085938 C 104.738281 454.589844 106.210938 452.210938 107.910156 450.058594 C 109.609375 447.902344 111.539062 445.976562 113.691406 444.277344 C 115.84375 442.574219 118.226562 441.214844 120.605469 440.082031 C 123.101562 438.949219 125.820312 438.15625 128.425781 437.703125 C 131.148438 437.136719 133.867188 437.023438 136.589844 437.136719 C 139.308594 437.363281 142.03125 437.816406 144.636719 438.609375 C 147.128906 439.402344 149.738281 440.535156 152.003906 442.007812 C 154.382812 443.371094 158.464844 446.996094 158.464844 446.996094 " clip-rule="nonzero"/></clipPath><clipPath id="68245198d5"><path d="M 0.710938 0.078125 L 138.320312 0.078125 L 138.320312 134.960938 L 0.710938 134.960938 Z M 0.710938 0.078125 " clip-rule="nonzero"/></clipPath><clipPath id="454c5d351a"><path d="M 58.464844 9.996094 C 122.960938 74.71875 104.257812 62.933594 104.597656 61.910156 C 104.824219 61.34375 110.492188 62.820312 113.214844 63.726562 C 115.933594 64.632812 118.65625 65.878906 121.148438 67.351562 C 123.527344 68.941406 125.910156 70.867188 127.949219 72.90625 C 129.988281 74.945312 131.804688 77.328125 133.164062 79.933594 C 134.636719 82.429688 135.882812 85.148438 136.679688 87.871094 C 137.472656 90.703125 138.039062 93.648438 138.152344 96.597656 C 138.265625 99.429688 138.039062 102.492188 137.472656 105.324219 C 136.90625 108.160156 135.996094 110.992188 134.75 113.601562 C 133.503906 116.207031 131.917969 118.699219 130.105469 120.96875 C 128.289062 123.234375 126.136719 125.386719 123.757812 127.089844 C 121.488281 128.789062 118.882812 130.375 116.160156 131.507812 C 113.554688 132.644531 110.71875 133.4375 107.773438 134.003906 C 104.941406 134.457031 102.671875 134.910156 99.046875 134.34375 C 92.925781 133.324219 80.457031 128.5625 74.675781 124.820312 C 70.820312 122.328125 68.554688 119.722656 66.285156 116.546875 C 64.019531 113.488281 62.09375 109.746094 60.960938 106.003906 C 59.824219 102.378906 59.144531 98.296875 59.257812 94.445312 C 59.257812 90.476562 60.050781 86.507812 61.300781 82.769531 C 62.660156 79.140625 64.699219 75.515625 67.082031 72.453125 C 69.460938 69.507812 72.519531 66.671875 75.695312 64.519531 C 78.980469 62.476562 82.722656 60.777344 86.464844 59.757812 C 90.316406 58.851562 94.398438 58.398438 98.25 58.738281 C 102.105469 58.964844 106.074219 59.984375 109.699219 61.457031 C 113.214844 62.933594 116.726562 65.199219 119.675781 67.691406 C 122.621094 70.300781 125.230469 73.472656 127.15625 76.761719 C 129.082031 80.160156 130.558594 84.015625 131.351562 87.871094 C 132.03125 91.609375 132.257812 95.804688 131.804688 99.542969 C 131.238281 103.398438 130.105469 107.367188 128.402344 110.878906 C 126.703125 114.394531 124.324219 117.792969 121.601562 120.515625 C 118.882812 123.234375 115.59375 125.730469 112.082031 127.429688 C 108.679688 129.242188 104.710938 130.488281 100.859375 131.054688 C 97.117188 131.621094 92.925781 131.507812 89.070312 130.828125 C 85.328125 130.148438 81.363281 128.789062 78.074219 126.863281 C 74.675781 125.046875 71.386719 122.441406 68.78125 119.609375 C 66.171875 116.773438 63.90625 113.261719 62.320312 109.746094 C 60.734375 106.230469 59.710938 102.152344 59.371094 98.296875 C 59.03125 94.445312 59.371094 90.363281 60.277344 86.621094 C 61.1875 82.769531 62.773438 79.027344 64.8125 75.742188 C 66.851562 72.453125 69.574219 69.28125 72.519531 66.898438 C 75.582031 64.40625 79.09375 62.363281 82.722656 61.003906 C 86.351562 59.644531 90.429688 58.851562 94.285156 58.625 C 98.136719 58.511719 102.332031 59.078125 105.960938 60.097656 C 109.699219 61.230469 116.726562 64.972656 116.613281 65.3125 C 116.5 65.652344 104.597656 62.136719 104.597656 61.910156 C 104.597656 61.796875 110.492188 62.820312 113.214844 63.726562 C 115.933594 64.632812 118.65625 65.878906 121.148438 67.351562 C 123.527344 68.941406 125.910156 70.867188 127.949219 72.90625 C 129.988281 74.945312 131.804688 77.328125 133.164062 79.933594 C 134.636719 82.429688 135.882812 85.148438 136.679688 87.871094 C 137.472656 90.703125 138.039062 93.648438 138.152344 96.597656 C 138.265625 99.429688 138.039062 102.492188 137.472656 105.324219 C 136.90625 108.160156 135.996094 110.992188 134.75 113.601562 C 133.503906 116.207031 131.917969 118.699219 130.105469 120.96875 C 128.289062 123.234375 126.136719 125.386719 123.757812 127.089844 C 121.488281 128.789062 118.882812 130.375 116.160156 131.507812 C 113.554688 132.644531 110.71875 133.4375 107.773438 134.003906 C 104.941406 134.457031 101.539062 135.136719 99.046875 134.34375 C 97.003906 133.664062 96.210938 132.53125 93.945312 130.375 C 88.164062 125.160156 66.171875 100.222656 66.398438 100.109375 C 66.511719 99.882812 99.386719 131.621094 98.476562 132.757812 C 97.683594 133.777344 78.527344 120.289062 69.007812 113.148438 C 59.371094 105.890625 50.417969 98.296875 41.121094 89.683594 C 30.921875 80.046875 16.410156 64.519531 10.632812 57.832031 C 8.136719 54.996094 7.003906 53.75 5.53125 51.484375 C 4.171875 49.101562 3.035156 46.609375 2.242188 44.003906 C 1.449219 41.394531 0.882812 38.675781 0.769531 35.953125 C 0.65625 33.234375 0.769531 30.511719 1.222656 27.792969 C 1.789062 25.1875 2.582031 22.464844 3.714844 20.085938 C 4.738281 17.589844 6.210938 15.210938 7.910156 13.058594 C 9.609375 10.902344 11.539062 8.976562 13.691406 7.277344 C 15.84375 5.574219 18.226562 4.214844 20.605469 3.082031 C 23.101562 1.949219 25.820312 1.15625 28.425781 0.703125 C 31.148438 0.136719 33.867188 0.0234375 36.589844 0.136719 C 39.308594 0.363281 42.03125 0.816406 44.636719 1.609375 C 47.128906 2.402344 49.738281 3.535156 52.003906 5.007812 C 54.382812 6.371094 58.464844 9.996094 58.464844 9.996094 " clip-rule="nonzero"/></clipPath><clipPath id="511554c7dc"><rect x="0" width="139" y="0" height="135"/></clipPath><clipPath id="87120426ec"><path d="M 35 323 L 220 323 L 220 521 L 35 521 Z M 35 323 " clip-rule="nonzero"/></clipPath><clipPath id="872ad48cc0"><path d="M 42.507812 465.8125 C 83.652344 414.578125 90.339844 408.796875 100.089844 398.140625 C 114.144531 382.726562 139.082031 352.121094 150.984375 340.332031 C 156.765625 334.550781 160.164062 330.925781 164.8125 328.203125 C 168.554688 326.050781 172.179688 324.917969 176.035156 324.238281 C 180.003906 323.445312 184.195312 323.445312 188.050781 324.011719 C 192.015625 324.578125 195.984375 325.824219 199.5 327.636719 C 203.011719 329.335938 206.414062 331.832031 209.246094 334.664062 C 211.96875 337.5 214.347656 340.898438 216.046875 344.527344 C 217.863281 348.039062 218.996094 352.121094 219.5625 355.976562 C 220.015625 359.941406 219.902344 364.136719 219.109375 367.992188 C 218.316406 371.84375 216.839844 375.8125 214.800781 379.210938 C 212.875 382.613281 210.152344 385.898438 207.207031 388.507812 C 204.257812 391.113281 200.746094 393.269531 197.003906 394.855469 C 193.378906 396.328125 189.296875 397.347656 185.441406 397.574219 C 181.476562 397.914062 177.28125 397.574219 173.429688 396.554688 C 169.574219 395.535156 165.832031 393.835938 162.433594 391.679688 C 159.144531 389.527344 156.085938 386.695312 153.589844 383.632812 C 151.210938 380.460938 149.171875 376.832031 147.808594 373.089844 C 146.449219 369.351562 145.769531 365.269531 145.65625 361.304688 C 145.65625 357.335938 146.222656 353.140625 147.355469 349.402344 C 148.605469 345.660156 150.53125 341.917969 152.796875 338.746094 C 155.179688 335.570312 158.125 332.625 161.414062 330.359375 C 164.585938 328.089844 168.441406 326.277344 172.179688 325.144531 C 175.921875 324.011719 180.117188 323.445312 184.082031 323.558594 C 188.050781 323.785156 192.128906 324.578125 195.871094 325.9375 C 199.5 327.410156 203.238281 329.453125 206.1875 331.945312 C 209.246094 334.4375 212.082031 337.613281 214.121094 341.011719 C 216.273438 344.300781 217.863281 348.265625 218.769531 352.007812 C 219.675781 355.863281 220.015625 360.054688 219.675781 364.023438 C 219.335938 367.992188 218.203125 372.070312 216.613281 375.585938 C 215.027344 379.210938 212.761719 382.726562 210.039062 385.671875 C 207.433594 388.621094 201.199219 391.339844 200.632812 393.042969 C 200.519531 393.835938 201.539062 393.949219 201.3125 394.855469 C 200.292969 400.296875 167.421875 432.488281 153.816406 446.203125 C 144.070312 456.066406 136.703125 461.390625 127.972656 470.6875 C 117.773438 481.457031 102.921875 500.5 96.574219 507.414062 C 93.855469 510.246094 92.949219 511.605469 90.792969 513.308594 C 88.640625 515.007812 86.261719 516.480469 83.765625 517.613281 C 81.273438 518.75 78.664062 519.542969 75.945312 520.109375 C 73.226562 520.5625 70.503906 520.789062 67.785156 520.675781 C 65.0625 520.5625 62.230469 519.996094 59.621094 519.203125 C 57.015625 518.523438 54.523438 517.386719 52.140625 515.914062 C 49.761719 514.554688 47.609375 512.855469 45.566406 510.925781 C 43.640625 509 41.941406 506.847656 40.464844 504.464844 C 39.105469 502.199219 37.859375 499.59375 37.066406 497.097656 C 36.160156 494.492188 35.707031 491.65625 35.480469 488.9375 C 35.253906 486.214844 35.480469 483.496094 35.933594 480.777344 C 36.386719 478.054688 37.179688 475.335938 38.3125 472.953125 C 39.332031 470.460938 42.507812 465.8125 42.507812 465.8125 " clip-rule="nonzero"/></clipPath><clipPath id="4e28b74314"><path d="M 0.0390625 0.28125 L 185 0.28125 L 185 197.800781 L 0.0390625 197.800781 Z M 0.0390625 0.28125 " clip-rule="nonzero"/></clipPath><clipPath id="b9ef0b1093"><path d="M 7.507812 142.8125 C 48.652344 91.578125 55.339844 85.796875 65.089844 75.140625 C 79.144531 59.726562 104.082031 29.121094 115.984375 17.332031 C 121.765625 11.550781 125.164062 7.925781 129.8125 5.203125 C 133.554688 3.050781 137.179688 1.917969 141.035156 1.238281 C 145.003906 0.445312 149.195312 0.445312 153.050781 1.011719 C 157.015625 1.578125 160.984375 2.824219 164.5 4.636719 C 168.011719 6.335938 171.414062 8.832031 174.246094 11.664062 C 176.96875 14.5 179.347656 17.898438 181.046875 21.527344 C 182.863281 25.039062 183.996094 29.121094 184.5625 32.976562 C 185.015625 36.941406 184.902344 41.136719 184.109375 44.992188 C 183.316406 48.84375 181.839844 52.8125 179.800781 56.210938 C 177.875 59.613281 175.152344 62.898438 172.207031 65.507812 C 169.257812 68.113281 165.746094 70.269531 162.003906 71.855469 C 158.378906 73.328125 154.296875 74.347656 150.441406 74.574219 C 146.476562 74.914062 142.28125 74.574219 138.429688 73.554688 C 134.574219 72.535156 130.832031 70.835938 127.433594 68.679688 C 124.144531 66.527344 121.085938 63.695312 118.589844 60.632812 C 116.210938 57.460938 114.171875 53.832031 112.808594 50.089844 C 111.449219 46.351562 110.769531 42.269531 110.65625 38.304688 C 110.65625 34.335938 111.222656 30.140625 112.355469 26.402344 C 113.605469 22.660156 115.53125 18.917969 117.796875 15.746094 C 120.179688 12.570312 123.125 9.625 126.414062 7.359375 C 129.585938 5.089844 133.441406 3.277344 137.179688 2.144531 C 140.921875 1.011719 145.117188 0.445312 149.082031 0.558594 C 153.050781 0.785156 157.128906 1.578125 160.871094 2.9375 C 164.5 4.410156 168.238281 6.453125 171.1875 8.945312 C 174.246094 11.4375 177.082031 14.613281 179.121094 18.011719 C 181.273438 21.300781 182.863281 25.265625 183.769531 29.007812 C 184.675781 32.863281 185.015625 37.054688 184.675781 41.023438 C 184.335938 44.992188 183.203125 49.070312 181.613281 52.585938 C 180.027344 56.210938 177.761719 59.726562 175.039062 62.671875 C 172.433594 65.621094 166.199219 68.339844 165.632812 70.042969 C 165.519531 70.835938 166.539062 70.949219 166.3125 71.855469 C 165.292969 77.296875 132.421875 109.488281 118.816406 123.203125 C 109.070312 133.066406 101.703125 138.390625 92.972656 147.6875 C 82.773438 158.457031 67.921875 177.5 61.574219 184.414062 C 58.855469 187.246094 57.949219 188.605469 55.792969 190.308594 C 53.640625 192.007812 51.261719 193.480469 48.765625 194.613281 C 46.273438 195.75 43.664062 196.542969 40.945312 197.109375 C 38.226562 197.5625 35.503906 197.789062 32.785156 197.675781 C 30.0625 197.5625 27.230469 196.996094 24.621094 196.203125 C 22.015625 195.523438 19.523438 194.386719 17.140625 192.914062 C 14.761719 191.554688 12.609375 189.855469 10.566406 187.925781 C 8.640625 186 6.941406 183.847656 5.464844 181.464844 C 4.105469 179.199219 2.859375 176.59375 2.066406 174.097656 C 1.160156 171.492188 0.707031 168.65625 0.480469 165.9375 C 0.253906 163.214844 0.480469 160.496094 0.933594 157.777344 C 1.386719 155.054688 2.179688 152.335938 3.3125 149.953125 C 4.332031 147.460938 7.507812 142.8125 7.507812 142.8125 " clip-rule="nonzero"/></clipPath><clipPath id="891cc55952"><rect x="0" width="185" y="0" height="198"/></clipPath></defs><rect x="-81" width="972" fill="#ffffff" y="-80.999999" height="971.999992" fill-opacity="1"/><rect x="-81" width="972" fill="#ffffff" y="-80.999999" height="971.999992" fill-opacity="1"/><g clip-path="url(#5a32d48523)"><g clip-path="url(#b39fcebf48)"><g transform="matrix(1, 0, 0, 1, 53, 154)"><g clip-path="url(#06b8749de3)"><g clip-path="url(#c90c283e3d)"><g clip-path="url(#3de94a4b7a)"><rect x="-231.2" width="1166.4" fill="#1e1e1e" height="1166.39999" y="-332.199998" fill-opacity="1"/></g></g></g></g></g></g><g clip-path="url(#f2499a4de5)"><g clip-path="url(#86b8f0f5f0)"><g transform="matrix(1, 0, 0, 1, 4, 681)"><g clip-path="url(#008d5d9c88)"><g clip-path="url(#165683b418)"><g clip-path="url(#aeed15c734)"><rect x="-182.2" width="1166.4" fill="#1e1e1e" height="1166.39999" y="-859.199998" fill-opacity="1"/></g></g></g></g></g></g><g clip-path="url(#44bfc45cd2)"><g clip-path="url(#1b3971c24e)"><g transform="matrix(1, 0, 0, 1, 46, 686)"><g clip-path="url(#ca7826b80b)"><g clip-path="url(#4d31f7bb58)"><g clip-path="url(#02c4c175d9)"><rect x="-224.2" width="1166.4" fill="#1e1e1e" height="1166.39999" y="-864.199998" fill-opacity="1"/></g></g></g></g></g></g><g clip-path="url(#b1d6176f0a)"><g clip-path="url(#9728b99b7f)"><g transform="matrix(1, 0, 0, 1, 38, 601)"><g clip-path="url(#1d1b6a4236)"><g clip-path="url(#628b2d0958)"><g clip-path="url(#76068f43d1)"><rect x="-216.2" width="1166.4" fill="#1e1e1e" height="1166.39999" y="-779.199998" fill-opacity="1"/></g></g></g></g></g></g><g clip-path="url(#cf6f362c59)"><g clip-path="url(#df02cfb157)"><g transform="matrix(1, 0, 0, 1, 41, 640)"><g clip-path="url(#5433bf28a3)"><g clip-path="url(#a8ada9b01f)"><g clip-path="url(#7d0fa616bd)"><rect x="-219.2" width="1166.4" fill="#1e1e1e" height="1166.39999" y="-818.199998" fill-opacity="1"/></g></g></g></g></g></g><g clip-path="url(#08f0cdbb98)"><g clip-path="url(#9ec87e49e5)"><g transform="matrix(1, 0, 0, 1, 469, 3)"><g clip-path="url(#79cb1886d8)"><g clip-path="url(#3827c74df6)"><g clip-path="url(#56925dc09a)"><rect x="-647.2" width="1166.4" fill="#1e1e1e" height="1166.39999" y="-181.199998" fill-opacity="1"/></g></g></g></g></g></g><g clip-path="url(#b4e9d9f32c)"><g clip-path="url(#2dc74b286e)"><g transform="matrix(1, 0, 0, 1, 520, 180)"><g clip-path="url(#5bd97fe9fb)"><g clip-path="url(#2dbae88df1)"><g clip-path="url(#58535c952e)"><rect x="-698.2" width="1166.4" fill="#1e1e1e" height="1166.39999" y="-358.199998" fill-opacity="1"/></g></g></g></g></g></g><g clip-path="url(#615aea1fd7)"><g clip-path="url(#cc1cbfd539)"><g transform="matrix(1, 0, 0, 1, 529, 67)"><g clip-path="url(#daf8c44833)"><g clip-path="url(#9adfd0e6a0)"><g clip-path="url(#30a61e5d98)"><rect x="-707.2" width="1166.4" fill="#1e1e1e" height="1166.39999" y="-245.199998" fill-opacity="1"/></g></g></g></g></g></g><g clip-path="url(#66ebbb1b78)"><g clip-path="url(#eb2c558e39)"><g transform="matrix(1, 0, 0, 1, 553, 178)"><g clip-path="url(#ac8c778626)"><g clip-path="url(#cd392849f3)"><g clip-path="url(#89b5206bad)"><rect x="-731.2" width="1166.4" fill="#1e1e1e" height="1166.39999" y="-356.199998" fill-opacity="1"/></g></g></g></g></g></g><g clip-path="url(#4e62ba819e)"><g clip-path="url(#149fc9390b)"><g transform="matrix(1, 0, 0, 1, 517, 141)"><g clip-path="url(#390131d809)"><g clip-path="url(#40dfc519da)"><g clip-path="url(#da92bfdf70)"><rect x="-695.2" width="1166.4" fill="#1e1e1e" height="1166.39999" y="-319.199998" fill-opacity="1"/></g></g></g></g></g></g><g clip-path="url(#cf41d1c256)"><g clip-path="url(#b71983789b)"><g transform="matrix(1, 0, 0, 1, 164, 377)"><g clip-path="url(#a2af1ea173)"><g clip-path="url(#ec8d47fb0d)"><g clip-path="url(#50fbd36365)"><rect x="-342.2" width="1166.4" fill="#1e1e1e" height="1166.39999" y="-555.199998" fill-opacity="1"/></g></g></g></g></g></g><g clip-path="url(#d0b41daed3)"><g clip-path="url(#2dfe5ab157)"><g transform="matrix(1, 0, 0, 1, 100, 437)"><g clip-path="url(#511554c7dc)"><g clip-path="url(#68245198d5)"><g clip-path="url(#454c5d351a)"><rect x="-278.2" width="1166.4" fill="#1e1e1e" height="1166.39999" y="-615.199998" fill-opacity="1"/></g></g></g></g></g></g><g clip-path="url(#87120426ec)"><g clip-path="url(#872ad48cc0)"><g transform="matrix(1, 0, 0, 1, 35, 323)"><g clip-path="url(#891cc55952)"><g clip-path="url(#4e28b74314)"><g clip-path="url(#b9ef0b1093)"><rect x="-213.2" width="1166.4" fill="#1e1e1e" height="1166.39999" y="-501.199998" fill-opacity="1"/></g></g></g></g></g></g></svg>